SplineFontDB: 2.0
FontName: THMaliGrade6-Italic
FullName: THMaliGrade6-Italic
FamilyName: TH Mali Grade 6
Weight: Book
Copyright: Copyright (c) 2006 by Department of Intellectual Property (DIP), Ministry of Commerce and Software Industry Promotion Agency (Public Organization) (SIPA). All rights reserved.
Version: 1.1
ItalicAngle: -14
UnderlinePosition: -55
UnderlineWidth: 50
Ascent: 1638
Descent: 410
Order2: 1
NeedsXUIDChange: 1
XUID: [1021 375 425136265 122978]
FSType: 0
OS2Version: 3
OS2_WeightWidthSlopeOnly: 0
OS2_UseTypoMetrics: 1
CreationTime: 1152588240
ModificationTime: 1196247023
PfmFamily: 17
TTFWeight: 400
TTFWidth: 5
LineGap: 123
VLineGap: 0
Panose: 2 0 5 6 0 0 0 2 0 4
OS2TypoAscent: 0
OS2TypoAOffset: 1
OS2TypoDescent: 0
OS2TypoDOffset: 1
OS2TypoLinegap: 0
OS2WinAscent: -35
OS2WinAOffset: 1
OS2WinDescent: 190
OS2WinDOffset: 1
HheadAscent: -35
HheadAOffset: 1
HheadDescent: 239
HheadDOffset: 1
OS2SubXSize: 1434
OS2SubYSize: 1331
OS2SubXOff: 0
OS2SubYOff: 287
OS2SupXSize: 1434
OS2SupYSize: 1331
OS2SupXOff: 0
OS2SupYOff: 977
OS2StrikeYSize: 49
OS2StrikeYPos: 399
OS2FamilyClass: 773
OS2Vendor: 'IPTH'
Lookup: 4 0 0 "'frac' Diagonal Fractions in Latin lookup 0"  {"'frac' Diagonal Fractions in Latin lookup 0 subtable"  } ['frac' ('latn' <'dflt' > ) ]
Lookup: 6 0 0 "'liga' Standard Ligatures in Latin lookup 1"  {"'liga' Standard Ligatures in Latin lookup 1 subtable"  } ['liga' ('latn' <'dflt' > ) ]
Lookup: 6 0 0 "'liga' Standard Ligatures in Latin lookup 2"  {"'liga' Standard Ligatures in Latin lookup 2 subtable"  } ['liga' ('latn' <'dflt' > ) ]
Lookup: 6 0 0 "'liga' Standard Ligatures in Latin lookup 3"  {"'liga' Standard Ligatures in Latin lookup 3 subtable"  } ['liga' ('latn' <'dflt' > ) ]
Lookup: 6 0 0 "'liga' Standard Ligatures in Latin lookup 4"  {"'liga' Standard Ligatures in Latin lookup 4 subtable"  } ['liga' ('latn' <'dflt' > ) ]

StartChar: .notdef
Encoding: 65536 -1 0
Width: 1811
VWidth: 3622
Flags: W
HStem: 25 99<953.385 1276.84 1276.84 1477> 44.5 93.5<315.282 470.923 470.923 478.027 478.027 763.104 763.104 832.112 832.112 1200.38> 2402 93.5<1089.34 1555.35 1555.35 1834.74 1834.74 1983.27> 2413 97<817.957 888.881 888.881 1373.93>
Fore
2068 2475 m 0,0,1
 2059 2434 2059 2434 2032.5 2311 c 128,-1,2
 2006 2188 2006 2188 1967 2012 c 128,-1,3
 1928 1836 1928 1836 1883 1624.5 c 128,-1,4
 1838 1413 1838 1413 1790 1197.5 c 128,-1,5
 1742 982 1742 982 1698 779.5 c 128,-1,6
 1654 577 1654 577 1618.5 418.5 c 128,-1,7
 1583 260 1583 260 1561 166.5 c 128,-1,8
 1539 73 1539 73 1537 49 c 128,-1,9
 1535 25 1535 25 1489 25 c 0,10,11
 1166 41 1166 41 946.5 44.5 c 128,-1,12
 727 48 727 48 582 48 c 128,-1,13
 437 48 437 48 362 44.5 c 128,-1,14
 287 41 287 41 253 35 c 1,15,16
 225 41 225 41 230 65 c 0,17,18
 239 101 239 101 264.5 224.5 c 128,-1,19
 290 348 290 348 329 521.5 c 128,-1,20
 368 695 368 695 415 907.5 c 128,-1,21
 462 1120 462 1120 508 1335.5 c 128,-1,22
 554 1551 554 1551 599 1753.5 c 128,-1,23
 644 1956 644 1956 678.5 2113.5 c 128,-1,24
 713 2271 713 2271 734 2366.5 c 128,-1,25
 755 2462 755 2462 755 2464 c 0,26,27
 762 2499 762 2499 795 2506 c 128,-1,28
 828 2513 828 2513 865 2510 c 0,29,30
 1171 2499 1171 2499 1380.5 2495.5 c 128,-1,31
 1590 2492 1590 2492 1728 2492 c 128,-1,32
 1866 2492 1866 2492 1939.5 2495.5 c 128,-1,33
 2013 2499 2013 2499 2045 2503 c 1,34,35
 2073 2499 2073 2499 2068 2475 c 0,0,1
1495 2402 m 2,36,37
 1084 2406 1084 2406 957 2409.5 c 128,-1,38
 830 2413 830 2413 824.5 2413 c 128,-1,39
 819 2413 819 2413 817 2402 c 0,40,41
 808 2361 808 2361 782.5 2249 c 128,-1,42
 757 2137 757 2137 723.5 1979.5 c 128,-1,43
 690 1822 690 1822 648.5 1632 c 128,-1,44
 607 1442 607 1442 563.5 1248 c 128,-1,45
 520 1054 520 1054 478.5 865.5 c 128,-1,46
 437 677 437 677 402.5 525 c 128,-1,47
 368 373 368 373 344 269.5 c 128,-1,48
 320 166 320 166 315 138 c 1,49,50
 471 134 471 134 641.5 132.5 c 128,-1,51
 812 131 812 131 1024 131 c 128,-1,52
 1236 131 1236 131 1477 124 c 1,53,54
 1486 163 1486 163 1525 337 c 128,-1,55
 1564 511 1564 511 1617 751.5 c 128,-1,56
 1670 992 1670 992 1729 1263.5 c 128,-1,57
 1788 1535 1788 1535 1841 1776.5 c 128,-1,58
 1894 2018 1894 2018 1932 2189.5 c 128,-1,59
 1970 2361 1970 2361 1985 2402 c 1,60,-1
 1495 2402 l 2,36,37
EndSplineSet
EndChar
StartChar: uni0E01
Encoding: 3585 3585 5
Width: 1455
VWidth: 3622
Flags: W
HStem: 1254 64<724.245 1214.86>
VStem: 543.5 61.5<608.213 661 661 715.46>
Fore
1274 -58 m 0,0,1
 1270 -83 1270 -83 1241 -85 c 128,-1,2
 1212 -87 1212 -87 1213 -58 c 0,3,4
 1224 14 1224 14 1233 65.5 c 128,-1,5
 1242 117 1242 117 1254 177 c 0,6,7
 1304 463 1304 463 1335.5 668.5 c 128,-1,8
 1367 874 1367 874 1347.5 1004 c 128,-1,9
 1328 1134 1328 1134 1241.5 1194 c 128,-1,10
 1155 1254 1155 1254 976 1254 c 0,11,12
 838 1254 838 1254 721.5 1210 c 128,-1,13
 605 1166 605 1166 516.5 1108.5 c 128,-1,14
 428 1051 428 1051 376 989 c 128,-1,15
 324 927 324 927 317 884 c 1,16,17
 333 877 333 877 352 870 c 1,18,19
 366 861 366 861 387.5 854 c 128,-1,20
 409 847 409 847 433 840 c 0,21,22
 471 826 471 826 505 812 c 128,-1,23
 539 798 539 798 573 775 c 0,24,25
 603 757 603 757 605 695 c 128,-1,26
 607 633 607 633 589 547 c 0,27,28
 564 428 564 428 527 310.5 c 128,-1,29
 490 193 490 193 460 94 c 2,30,-1
 419 -35 l 2,31,32
 414 -65 414 -65 384 -65 c 128,-1,33
 354 -65 354 -65 357 -35 c 0,34,35
 364 -7 364 -7 374 22 c 128,-1,36
 384 51 384 51 400 101 c 0,37,38
 430 200 430 200 466 316 c 128,-1,39
 502 432 502 432 525 547 c 0,40,41
 539 616 539 616 543.5 661 c 128,-1,42
 548 706 548 706 534 718 c 1,43,44
 516 729 516 729 476.5 743 c 128,-1,45
 437 757 437 757 402 775 c 0,46,47
 343 798 343 798 294.5 822.5 c 128,-1,48
 246 847 246 847 253 884 c 0,49,50
 264 934 264 934 325 1008.5 c 128,-1,51
 386 1083 386 1083 481.5 1150 c 128,-1,52
 577 1217 577 1217 707 1267.5 c 128,-1,53
 837 1318 837 1318 991 1318 c 0,54,55
 1192 1318 1192 1318 1289.5 1255 c 128,-1,56
 1387 1192 1387 1192 1411.5 1052.5 c 128,-1,57
 1436 913 1436 913 1402.5 697 c 128,-1,58
 1369 481 1369 481 1316 177 c 0,59,60
 1304 117 1304 117 1295 65.5 c 128,-1,61
 1286 14 1286 14 1274 -58 c 0,0,1
EndSplineSet
EndChar
StartChar: uni0E02
Encoding: 3586 3586 6
Width: 1068
VWidth: 3622
Flags: W
HStem: 0 58<570.335 781.088> 798 46<339.288 485.862> 1144 55<479.667 596.739> 1280.5 46.5<588.7 761.528>
VStem: 285 888<1037 1072 1258.5 1275 1037 1275 1392.61 1413> 470.5 60<170.408 235 235 306.157> 812 49<999.195 1198.61>
Fore
347 1072 m 0,0,1
 301 996 301 996 323 921.5 c 128,-1,2
 345 847 345 847 444 844 c 0,3,4
 506 840 506 840 553.5 883.5 c 128,-1,5
 601 927 601 927 614 989 c 0,6,7
 628 1051 628 1051 599.5 1096 c 128,-1,8
 571 1141 571 1141 502 1144 c 0,9,10
 463 1148 463 1148 419 1134 c 128,-1,11
 375 1120 375 1120 347 1072 c 0,0,1
812 1144 m 1,12,13
 810 1213 810 1213 763 1246 c 128,-1,14
 716 1279 716 1279 657 1280.5 c 128,-1,15
 598 1282 598 1282 544 1258.5 c 128,-1,16
 490 1235 490 1235 479 1199 c 1,17,18
 603 1199 603 1199 644 1148.5 c 128,-1,19
 685 1098 685 1098 670 996 c 0,20,21
 669 968 669 968 648.5 933.5 c 128,-1,22
 628 899 628 899 594.5 868 c 128,-1,23
 561 837 561 837 520 817.5 c 128,-1,24
 479 798 479 798 433 798 c 0,25,26
 329 801 329 801 292 871 c 128,-1,27
 255 941 255 941 285 1037 c 0,28,29
 299 1083 299 1083 330 1139.5 c 128,-1,30
 361 1196 361 1196 413 1239 c 128,-1,31
 465 1282 465 1282 540.5 1309.5 c 128,-1,32
 616 1337 616 1337 723 1327 c 0,33,34
 764 1323 764 1323 791.5 1302.5 c 128,-1,35
 819 1282 819 1282 835 1255 c 128,-1,36
 851 1228 851 1228 857 1199.5 c 128,-1,37
 863 1171 863 1171 861 1148 c 0,38,39
 854 1075 854 1075 811.5 974.5 c 128,-1,40
 769 874 769 874 714.5 765 c 128,-1,41
 660 656 660 656 612 549 c 128,-1,42
 564 442 564 442 545 352 c 0,43,44
 536 315 536 315 530.5 264.5 c 128,-1,45
 525 214 525 214 534 169 c 128,-1,46
 543 124 543 124 569.5 91 c 128,-1,47
 596 58 596 58 649 58 c 0,48,49
 775 55 775 55 843 136.5 c 128,-1,50
 911 218 911 218 930 315 c 2,51,52
 932 318 932 318 944.5 392.5 c 128,-1,53
 957 467 957 467 974 572 c 128,-1,54
 991 677 991 677 1013 800 c 128,-1,55
 1035 923 1035 923 1056 1030 c 128,-1,56
 1077 1137 1077 1137 1095 1209.5 c 128,-1,57
 1113 1282 1113 1282 1123 1289 c 0,58,59
 1159 1307 1159 1307 1166.5 1294.5 c 128,-1,60
 1174 1282 1174 1282 1173 1275 c 0,61,62
 1137 1159 1137 1159 1111.5 1030.5 c 128,-1,63
 1086 902 1086 902 1066.5 775.5 c 128,-1,64
 1047 649 1047 649 1029.5 533 c 128,-1,65
 1012 417 1012 417 992 325 c 0,66,67
 978 265 978 265 953.5 207 c 128,-1,68
 929 149 929 149 886.5 102 c 128,-1,69
 844 55 844 55 783 27.5 c 128,-1,70
 722 0 722 0 637 0 c 0,71,72
 573 0 573 0 534 34.5 c 128,-1,73
 495 69 495 69 481 121 c 128,-1,74
 467 173 467 173 470.5 235 c 128,-1,75
 474 297 474 297 486 352 c 0,76,77
 513 453 513 453 557 554.5 c 128,-1,78
 601 656 601 656 651.5 753.5 c 128,-1,79
 702 851 702 851 746.5 949 c 128,-1,80
 791 1047 791 1047 812 1144 c 1,12,13
EndSplineSet
EndChar
StartChar: uni0E03
Encoding: 3587 3587 7
Width: 1195
VWidth: 3622
Flags: W
HStem: -7 58<744.677 939.199> 794 46<343.438 489.686> 1134 51<469.921 603.24> 1268 59<562.546 658.201>
VStem: 613.5 62<163.408 228 228 332.885> 952 48<1155.72 1159 1159 1233.03>
Fore
356 1061 m 0,0,1
 310 985 310 985 329 914.5 c 128,-1,2
 348 844 348 844 446 840 c 0,3,4
 509 837 509 837 555 882 c 128,-1,5
 601 927 601 927 614 989 c 0,6,7
 628 1051 628 1051 604 1090.5 c 128,-1,8
 580 1130 580 1130 513 1134 c 0,9,10
 472 1137 472 1137 428 1123 c 128,-1,11
 384 1109 384 1109 356 1061 c 0,0,1
605 1268 m 0,12,13
 573 1268 573 1268 547 1258 c 0,14,15
 522 1251 522 1251 498 1232 c 128,-1,16
 474 1213 474 1213 469 1185 c 1,17,18
 593 1185 593 1185 639 1141.5 c 128,-1,19
 685 1098 685 1098 670 996 c 0,20,21
 669 968 669 968 648.5 931.5 c 128,-1,22
 628 895 628 895 596 864 c 128,-1,23
 564 833 564 833 523.5 813.5 c 128,-1,24
 483 794 483 794 437 794 c 0,25,26
 331 798 331 798 290 857 c 128,-1,27
 249 916 249 916 279 1026 c 0,28,29
 295 1083 295 1083 329.5 1137.5 c 128,-1,30
 364 1192 364 1192 411 1233.5 c 128,-1,31
 458 1275 458 1275 514.5 1301 c 128,-1,32
 571 1327 571 1327 630 1327 c 0,33,34
 679 1327 679 1327 711 1289 c 128,-1,35
 743 1251 743 1251 754 1162 c 1,36,37
 791 1251 791 1251 830.5 1284.5 c 128,-1,38
 870 1318 870 1318 909 1318 c 0,39,40
 946 1318 946 1318 965.5 1302 c 128,-1,41
 985 1286 985 1286 993 1260.5 c 128,-1,42
 1001 1235 1001 1235 1000 1206.5 c 128,-1,43
 999 1178 999 1178 1001 1155 c 0,44,45
 1005 1083 1005 1083 961.5 982 c 128,-1,46
 918 881 918 881 861.5 768.5 c 128,-1,47
 805 656 805 656 752.5 545.5 c 128,-1,48
 700 435 700 435 681 345 c 0,49,50
 672 308 672 308 675.5 257.5 c 128,-1,51
 679 207 679 207 697.5 162 c 128,-1,52
 716 117 716 117 749 84 c 128,-1,53
 782 51 782 51 837 51 c 0,54,55
 923 51 923 51 980.5 138 c 128,-1,56
 1038 225 1038 225 1060 322 c 2,57,58
 1061 325 1061 325 1072.5 399.5 c 128,-1,59
 1084 474 1084 474 1105.5 581 c 128,-1,60
 1127 688 1127 688 1150 811 c 128,-1,61
 1173 934 1173 934 1194 1042.5 c 128,-1,62
 1215 1151 1215 1151 1234.5 1225.5 c 128,-1,63
 1254 1300 1254 1300 1263 1311 c 0,64,65
 1286 1334 1286 1334 1299 1319 c 128,-1,66
 1312 1304 1312 1304 1311 1297 c 0,67,68
 1272 1174 1272 1174 1243.5 1041.5 c 128,-1,69
 1215 909 1215 909 1194.5 782.5 c 128,-1,70
 1174 656 1174 656 1157.5 540.5 c 128,-1,71
 1141 425 1141 425 1120 333 c 0,72,73
 1107 272 1107 272 1082.5 212 c 128,-1,74
 1058 152 1058 152 1020 103.5 c 128,-1,75
 982 55 982 55 934 24 c 128,-1,76
 886 -7 886 -7 824 -7 c 0,77,78
 759 -7 759 -7 714 27.5 c 128,-1,79
 669 62 669 62 643 114 c 128,-1,80
 617 166 617 166 613.5 228 c 128,-1,81
 610 290 610 290 623 345 c 0,82,83
 647 446 647 446 698.5 551 c 128,-1,84
 750 656 750 656 805 758.5 c 128,-1,85
 860 861 860 861 903 963 c 128,-1,86
 946 1065 946 1065 952 1159 c 0,87,88
 953 1203 953 1203 945 1234 c 128,-1,89
 937 1265 937 1265 897 1261 c 0,90,91
 858 1258 858 1258 825 1203 c 128,-1,92
 792 1148 792 1148 764 1093 c 1,93,94
 755 1090 755 1090 745 1086 c 0,95,96
 722 1079 722 1079 709 1093 c 1,97,98
 709 1113 709 1113 704.5 1142 c 128,-1,99
 700 1171 700 1171 690.5 1197.5 c 128,-1,100
 681 1224 681 1224 660 1246 c 128,-1,101
 639 1268 639 1268 605 1268 c 0,12,13
EndSplineSet
EndChar
StartChar: uni0E04
Encoding: 3588 3588 8
Width: 1478
VWidth: 3622
Flags: W
HStem: 11 21G<262 286> 409 47<758.982 923.142> 757 51<793.927 977.901> 1279 55<843.398 1204.37>
VStem: 235 53<68.7981 165.766> 1398 52.5<732.659 853.5 853.5 972.934>
Fore
1044 1334 m 0,0,1
 1167 1334 1167 1334 1247.5 1298.5 c 128,-1,2
 1328 1263 1328 1263 1374 1199.5 c 128,-1,3
 1420 1136 1420 1136 1437 1048 c 128,-1,4
 1454 960 1454 960 1450.5 857.5 c 128,-1,5
 1447 755 1447 755 1428.5 639.5 c 128,-1,6
 1410 524 1410 524 1387 405 c 0,7,8
 1376 356 1376 356 1360 287.5 c 128,-1,9
 1344 219 1344 219 1328 156.5 c 128,-1,10
 1312 94 1312 94 1297 49 c 128,-1,11
 1282 4 1282 4 1274 4 c 1,12,13
 1266 5 1266 5 1258.5 0 c 128,-1,14
 1251 -5 1251 -5 1249 4 c 0,15,16
 1249 5 1249 5 1250.5 15 c 128,-1,17
 1252 25 1252 25 1261 64.5 c 128,-1,18
 1270 104 1270 104 1287.5 184 c 128,-1,19
 1305 264 1305 264 1335 405 c 0,20,21
 1351 481 1351 481 1365.5 558 c 128,-1,22
 1380 635 1380 635 1388.5 709.5 c 128,-1,23
 1397 784 1397 784 1398 853.5 c 128,-1,24
 1399 923 1399 923 1389 987 c 256,25,26
 1378 1051 1378 1051 1355 1103 c 128,-1,27
 1332 1155 1332 1155 1289.5 1193 c 128,-1,28
 1247 1231 1247 1231 1184 1253 c 128,-1,29
 1121 1275 1121 1275 1033 1279 c 0,30,31
 939 1279 939 1279 836.5 1231 c 128,-1,32
 734 1183 734 1183 643 1092 c 128,-1,33
 552 1001 552 1001 479.5 871 c 128,-1,34
 407 741 407 741 371 577 c 0,35,36
 364 555 364 555 356 520.5 c 128,-1,37
 348 486 348 486 340.5 445.5 c 128,-1,38
 333 405 333 405 325 360 c 128,-1,39
 317 315 317 315 310 272 c 0,40,41
 294 187 294 187 288 124 c 0,42,43
 285 62 285 62 295 69 c 1,44,45
 318 78 318 78 346.5 110.5 c 128,-1,46
 375 143 375 143 407 187.5 c 128,-1,47
 439 232 439 232 470 285 c 128,-1,48
 501 338 501 338 529 389 c 128,-1,49
 557 440 557 440 578.5 487 c 128,-1,50
 600 534 600 534 612 564 c 0,51,52
 676 700 676 700 732 755 c 0,53,54
 791 808 791 808 895 808 c 0,55,56
 1086 808 1086 808 1045 608 c 0,57,58
 1026 511 1026 511 958.5 460 c 128,-1,59
 891 409 891 409 796 409 c 0,60,61
 755 409 755 409 717 427.5 c 128,-1,62
 679 446 679 446 637 493 c 1,63,64
 554 338 554 338 498 243.5 c 128,-1,65
 442 149 442 149 401.5 96.5 c 128,-1,66
 361 44 361 44 331 27.5 c 128,-1,67
 301 11 301 11 271 11 c 0,68,69
 253 12 253 12 243 26.5 c 128,-1,70
 233 41 233 41 235 91.5 c 128,-1,71
 237 142 237 142 253 240 c 128,-1,72
 269 338 269 338 302 508 c 0,73,74
 345 722 345 722 423.5 877.5 c 128,-1,75
 502 1033 502 1033 602 1134.5 c 128,-1,76
 702 1236 702 1236 815.5 1285 c 128,-1,77
 929 1334 929 1334 1044 1334 c 0,0,1
883 757 m 0,78,79
 831 757 831 757 794 736.5 c 128,-1,80
 757 716 757 716 732.5 682.5 c 128,-1,81
 708 649 708 649 692 608.5 c 128,-1,82
 676 568 676 568 665 527 c 1,83,84
 708 488 708 488 741.5 474 c 128,-1,85
 775 460 775 460 799 456 c 1,86,87
 854 456 854 456 916 490 c 0,88,89
 980 524 980 524 999 608 c 0,90,91
 1015 692 1015 692 973 723 c 0,92,93
 932 757 932 757 883 757 c 0,78,79
EndSplineSet
EndChar
StartChar: uni0E05
Encoding: 3589 3589 9
Width: 1462
VWidth: 3622
Flags: W
HStem: 11 21G<261 290.5> 421 46<779.801 955.054> 764 55<766.889 1006.15>
VStem: 220.5 66<68.8002 110.5 110.5 244.951> 1422 57.5<588.918 913 913 1088.26>
Fore
1019 1134 m 1,0,1
 1063 1189 1063 1189 1111 1231 c 0,2,3
 1153 1272 1153 1272 1203.5 1304.5 c 128,-1,4
 1254 1337 1254 1337 1307 1344 c 1,5,6
 1408 1330 1408 1330 1447 1230 c 128,-1,7
 1486 1130 1486 1130 1479.5 959.5 c 128,-1,8
 1473 789 1473 789 1428 552 c 128,-1,9
 1383 315 1383 315 1320 28 c 1,10,11
 1297 -5 1297 -5 1274 -9.5 c 128,-1,12
 1251 -14 1251 -14 1254 4 c 0,13,14
 1327 279 1327 279 1371 511 c 128,-1,15
 1415 743 1415 743 1422 913 c 128,-1,16
 1429 1083 1429 1083 1393.5 1177.5 c 128,-1,17
 1358 1272 1358 1272 1279 1272 c 0,18,19
 1247 1272 1247 1272 1199 1234 c 128,-1,20
 1151 1196 1151 1196 1106 1151 c 0,21,22
 1056 1102 1056 1102 1001 1037 c 1,23,24
 968 1098 968 1098 930 1144 c 0,25,26
 900 1185 900 1185 859.5 1219.5 c 128,-1,27
 819 1254 819 1254 782 1261 c 1,28,29
 727 1242 727 1242 663.5 1181 c 128,-1,30
 600 1120 600 1120 541.5 1033 c 128,-1,31
 483 946 483 946 432.5 837.5 c 128,-1,32
 382 729 382 729 354 616 c 0,33,34
 338 573 338 573 324 480 c 128,-1,35
 310 387 310 387 299 295 c 128,-1,36
 288 203 288 203 286.5 132.5 c 128,-1,37
 285 62 285 62 297 69 c 0,38,39
 331 83 331 83 370 143 c 128,-1,40
 409 203 409 203 448.5 281 c 128,-1,41
 488 359 488 359 525 440.5 c 128,-1,42
 562 522 562 522 596 577 c 0,43,44
 662 713 662 713 734.5 766 c 128,-1,45
 807 819 807 819 916 819 c 0,46,47
 1123 819 1123 819 1081 619 c 0,48,49
 1060 522 1060 522 991 471.5 c 128,-1,50
 922 421 922 421 824 421 c 0,51,52
 780 421 780 421 722.5 438.5 c 128,-1,53
 665 456 665 456 621 504 c 1,54,55
 532 348 532 348 481 252 c 128,-1,56
 430 156 430 156 397 102 c 128,-1,57
 364 48 364 48 337 29.5 c 128,-1,58
 310 11 310 11 271 11 c 0,59,60
 251 11 251 11 238 31 c 128,-1,61
 225 51 225 51 220.5 110.5 c 128,-1,62
 216 170 216 170 229 275 c 128,-1,63
 242 380 242 380 279 550 c 0,64,65
 308 685 308 685 357.5 813 c 128,-1,66
 407 941 407 941 471.5 1044.5 c 128,-1,67
 536 1148 536 1148 620 1224 c 128,-1,68
 704 1300 704 1300 798 1334 c 1,69,70
 845 1330 845 1330 885 1301 c 128,-1,71
 925 1272 925 1272 955 1231 c 0,72,73
 991 1189 991 1189 1019 1134 c 1,0,1
904 764 m 0,74,75
 798 764 798 764 746.5 698.5 c 128,-1,76
 695 633 695 633 658 543 c 1,77,78
 700 504 700 504 750.5 487.5 c 128,-1,79
 801 471 801 471 831 467 c 0,80,81
 884 467 884 467 948 501.5 c 128,-1,82
 1012 536 1012 536 1029 619 c 256,83,84
 1047 702 1047 702 1001 733 c 128,-1,85
 955 764 955 764 904 764 c 0,74,75
EndSplineSet
EndChar
StartChar: uni0E06
Encoding: 3590 3590 10
Width: 1521
VWidth: 3622
Flags: W
HStem: -48 52<408.026 642.093> 366 52.5<556.778 694.594> 706 48<316.645 467.463> 1037 44<417.442 569.777> 1213 59<470.567 590.339 803.381 941.34>
Fore
331 964 m 0,0,1
 285 888 285 888 305 822.5 c 128,-1,2
 325 757 325 757 425 754 c 0,3,4
 488 750 488 750 529.5 791.5 c 128,-1,5
 571 833 571 833 584 895 c 0,6,7
 612 1029 612 1029 472 1037 c 0,8,9
 433 1040 433 1040 396 1025 c 128,-1,10
 359 1010 359 1010 331 964 c 0,0,1
943 1116 m 1,11,12
 945 1159 945 1159 940.5 1182.5 c 128,-1,13
 936 1206 936 1206 867 1206 c 0,14,15
 828 1206 828 1206 796 1149.5 c 128,-1,16
 764 1093 764 1093 734 1040 c 1,17,18
 727 1037 727 1037 716 1033 c 0,19,20
 692 1026 692 1026 679 1040 c 1,21,22
 681 1058 681 1058 676.5 1087 c 128,-1,23
 672 1116 672 1116 659 1143.5 c 128,-1,24
 646 1171 646 1171 617.5 1192 c 128,-1,25
 589 1213 589 1213 543 1213 c 0,26,27
 501 1217 501 1217 462 1203 c 0,28,29
 428 1189 428 1189 396 1156 c 128,-1,30
 364 1123 364 1123 354 1051 c 1,31,32
 423 1083 423 1083 477.5 1081 c 128,-1,33
 532 1079 532 1079 571 1058 c 128,-1,34
 610 1037 610 1037 628.5 995 c 128,-1,35
 647 953 647 953 640 902 c 0,36,37
 639 874 639 874 620 839.5 c 128,-1,38
 601 805 601 805 569.5 774 c 128,-1,39
 538 743 538 743 499 724.5 c 128,-1,40
 460 706 460 706 414 706 c 0,41,42
 310 709 310 709 274.5 764 c 128,-1,43
 239 819 239 819 255 927 c 0,44,45
 265 992 265 992 289 1054 c 128,-1,46
 313 1116 313 1116 350 1163 c 128,-1,47
 387 1210 387 1210 438.5 1241 c 128,-1,48
 490 1272 490 1272 562 1272 c 0,49,50
 614 1272 614 1272 661.5 1234 c 128,-1,51
 709 1196 709 1196 720 1109 c 1,52,53
 757 1196 757 1196 798.5 1230.5 c 128,-1,54
 840 1265 840 1265 879 1265 c 0,55,56
 973 1265 973 1265 988 1212 c 128,-1,57
 1003 1159 1003 1159 1003 1113 c 1,58,59
 985 1044 985 1044 960.5 951 c 128,-1,60
 936 858 936 858 909.5 759 c 128,-1,61
 883 660 883 660 860 561.5 c 128,-1,62
 837 463 837 463 821 384 c 1,63,64
 925 318 925 318 994 269.5 c 128,-1,65
 1063 221 1063 221 1115 183 c 128,-1,66
 1167 145 1167 145 1210.5 110.5 c 128,-1,67
 1254 76 1254 76 1307 35 c 1,68,69
 1312 28 1312 28 1331.5 93.5 c 128,-1,70
 1351 159 1351 159 1377.5 266 c 128,-1,71
 1404 373 1404 373 1432.5 506.5 c 128,-1,72
 1461 640 1461 640 1488.5 776.5 c 128,-1,73
 1516 913 1516 913 1539 1032 c 128,-1,74
 1562 1151 1562 1151 1578 1231 c 1,75,76
 1594 1265 1594 1265 1615 1263 c 128,-1,77
 1636 1261 1636 1261 1636 1224 c 1,78,79
 1610 1137 1610 1137 1577 974.5 c 128,-1,80
 1544 812 1544 812 1506 634 c 128,-1,81
 1468 456 1468 456 1433.5 291.5 c 128,-1,82
 1399 127 1399 127 1376 35 c 1,83,84
 1362 4 1362 4 1343.5 -7 c 128,-1,85
 1325 -18 1325 -18 1305 -21 c 0,86,87
 1288 -25 1288 -25 1265 -14 c 1,88,89
 1192 35 1192 35 1144.5 76 c 128,-1,90
 1097 117 1097 117 1051 155 c 128,-1,91
 1005 193 1005 193 949 232.5 c 128,-1,92
 893 272 893 272 807 322 c 1,93,94
 777 159 777 159 716.5 57.5 c 128,-1,95
 656 -44 656 -44 515 -48 c 0,96,97
 442 -48 442 -48 401.5 -26 c 128,-1,98
 361 -4 361 -4 341.5 32.5 c 128,-1,99
 322 69 322 69 320 110.5 c 128,-1,100
 318 152 318 152 327 193 c 0,101,102
 334 228 334 228 364 278.5 c 128,-1,103
 394 329 394 329 450 367 c 128,-1,104
 506 405 506 405 583 418.5 c 128,-1,105
 660 432 660 432 755 391 c 1,106,107
 773 471 773 471 800.5 574 c 128,-1,108
 828 677 828 677 854.5 777 c 128,-1,109
 881 877 881 877 905.5 967.5 c 128,-1,110
 930 1058 930 1058 943 1116 c 1,11,12
750 329 m 1,111,112
 677 366 677 366 617 366 c 128,-1,113
 557 366 557 366 509.5 342 c 128,-1,114
 462 318 462 318 428 278.5 c 128,-1,115
 394 239 394 239 377 193 c 0,116,117
 356 131 356 131 395.5 65.5 c 128,-1,118
 435 0 435 0 525 4 c 0,119,120
 626 7 626 7 674.5 88.5 c 128,-1,121
 723 170 723 170 750 329 c 1,111,112
EndSplineSet
EndChar
StartChar: uni0E07
Encoding: 3591 3591 11
Width: 1199
VWidth: 3622
Flags: W
HStem: -4 66<774.019 902.649> 851 65<880.541 1099.25> 1282 55<944.829 1176.43>
VStem: 338 58<626.758 1058.84>
Fore
1254 941 m 2,0,1
 1130 449 1130 449 1031 222.5 c 128,-1,2
 932 -4 932 -4 849 -4 c 0,3,4
 787 -4 787 -4 713.5 76 c 128,-1,5
 640 156 640 156 568.5 297.5 c 128,-1,6
 497 439 497 439 435 630.5 c 128,-1,7
 373 822 373 822 338 1047 c 0,8,9
 334 1072 334 1072 363.5 1079 c 128,-1,10
 393 1086 393 1086 396 1068 c 0,11,12
 455 778 455 778 521 586 c 128,-1,13
 587 394 587 394 651 276.5 c 128,-1,14
 715 159 715 159 769.5 110.5 c 128,-1,15
 824 62 824 62 860 62 c 0,16,17
 877 62 877 62 906.5 112.5 c 128,-1,18
 936 163 936 163 970.5 242.5 c 128,-1,19
 1005 322 1005 322 1039.5 420 c 128,-1,20
 1074 518 1074 518 1104 612 c 128,-1,21
 1134 706 1134 706 1156 783.5 c 128,-1,22
 1178 861 1178 861 1187 906 c 2,23,-1
 1192 930 l 1,24,25
 1157 895 1157 895 1104 873 c 128,-1,26
 1051 851 1051 851 999 851 c 0,27,28
 883 851 883 851 830 916.5 c 128,-1,29
 777 982 777 982 796 1072 c 0,30,31
 824 1199 824 1199 903 1268 c 128,-1,32
 982 1337 982 1337 1095 1337 c 0,33,34
 1167 1337 1167 1337 1209 1309.5 c 128,-1,35
 1251 1282 1251 1282 1267.5 1235.5 c 128,-1,36
 1284 1189 1284 1189 1281.5 1125 c 128,-1,37
 1279 1061 1279 1061 1265 992 c 2,38,-1
 1254 941 l 2,0,1
1014 916 m 0,39,40
 1100 916 1100 916 1148.5 969 c 128,-1,41
 1197 1022 1197 1022 1210 1075 c 0,42,43
 1229 1171 1229 1171 1186 1226.5 c 128,-1,44
 1143 1282 1143 1282 1074 1282 c 0,45,46
 985 1282 985 1282 928.5 1222 c 128,-1,47
 872 1162 872 1162 856 1086 c 0,48,49
 840 1014 840 1014 876.5 965 c 128,-1,50
 913 916 913 916 1014 916 c 0,39,40
EndSplineSet
EndChar
StartChar: uni0E08
Encoding: 3592 3592 12
Width: 1300
VWidth: 3622
Flags: W
HStem: 439 58<634.766 799.723> 798 72<757.566 862.227> 1304 62<849.586 1139.45>
VStem: 283 60<741.352 1063.9> 1280 59<741.722 1052.7>
Fore
343 768 m 0,0,1
 334 729 334 729 306 736 c 128,-1,2
 278 743 278 743 283 768 c 0,3,4
 325 968 325 968 407.5 1085.5 c 128,-1,5
 490 1203 490 1203 586.5 1266.5 c 128,-1,6
 683 1330 683 1330 782 1348 c 128,-1,7
 881 1366 881 1366 957 1366 c 0,8,9
 1130 1366 1130 1366 1213.5 1297 c 128,-1,10
 1297 1228 1297 1228 1324 1128.5 c 128,-1,11
 1351 1029 1351 1029 1339 920.5 c 128,-1,12
 1327 812 1327 812 1311 739 c 0,13,14
 1282 601 1282 601 1231 468.5 c 128,-1,15
 1180 336 1180 336 1121.5 231.5 c 128,-1,16
 1063 127 1063 127 1002 63.5 c 128,-1,17
 941 0 941 0 895 4 c 0,18,19
 837 7 837 7 827 59 c 128,-1,20
 817 111 817 111 826 183.5 c 128,-1,21
 835 256 835 256 856 338.5 c 128,-1,22
 877 421 877 421 884 485 c 1,23,24
 849 456 849 456 807.5 447.5 c 128,-1,25
 766 439 766 439 725 439 c 0,26,27
 621 439 621 439 581 506 c 128,-1,28
 541 573 541 573 545 626 c 0,29,30
 547 674 547 674 573.5 719 c 128,-1,31
 600 764 600 764 637 798.5 c 128,-1,32
 674 833 674 833 721 851.5 c 128,-1,33
 768 870 768 870 814 870 c 0,34,35
 851 870 851 870 890 857 c 128,-1,36
 929 844 929 844 954.5 809.5 c 128,-1,37
 980 775 980 775 984.5 714 c 128,-1,38
 989 653 989 653 964 550 c 0,39,40
 945 481 945 481 922.5 394.5 c 128,-1,41
 900 308 900 308 888 232 c 128,-1,42
 876 156 876 156 878.5 105.5 c 128,-1,43
 881 55 881 55 911 58 c 0,44,45
 939 58 939 58 989.5 134 c 128,-1,46
 1040 210 1040 210 1093 315.5 c 128,-1,47
 1146 421 1146 421 1191 538.5 c 128,-1,48
 1236 656 1236 656 1254 739 c 0,49,50
 1274 826 1274 826 1280 926 c 128,-1,51
 1286 1026 1286 1026 1258.5 1109 c 128,-1,52
 1231 1192 1231 1192 1157.5 1248 c 128,-1,53
 1084 1304 1084 1304 943 1304 c 0,54,55
 891 1304 891 1304 805.5 1291.5 c 128,-1,56
 720 1279 720 1279 631.5 1226.5 c 128,-1,57
 543 1174 543 1174 462.5 1065.5 c 128,-1,58
 382 957 382 957 343 768 c 0,0,1
647 725 m 0,59,60
 594 633 594 633 620 567 c 128,-1,61
 646 501 646 501 741 497 c 0,62,63
 807 493 807 493 853.5 536.5 c 128,-1,64
 900 580 900 580 913 640 c 0,65,66
 927 702 927 702 898.5 748 c 128,-1,67
 870 794 870 794 801 798 c 0,68,69
 764 801 764 801 719 786 c 128,-1,70
 674 771 674 771 647 725 c 0,59,60
EndSplineSet
EndChar
StartChar: uni0E09
Encoding: 3593 3593 13
Width: 1478
VWidth: 3622
Flags: W
HStem: -7 51<1104.74 1242.38> 352 53<278.031 413.843> 706 55<389.906 542.836> 1258 65<647.837 1056.82>
VStem: 1027 57<81.8624 193.125> 1178 67<782.33 1130.54>
Fore
1093 425 m 1,0,1
 1130 570 1130 570 1159.5 715.5 c 128,-1,2
 1189 861 1189 861 1178 981.5 c 128,-1,3
 1167 1102 1167 1102 1100 1178 c 128,-1,4
 1033 1254 1033 1254 883 1258 c 0,5,6
 672 1261 672 1261 558 1156 c 128,-1,7
 444 1051 444 1051 380 870 c 0,8,9
 364 837 364 837 331.5 831.5 c 128,-1,10
 299 826 299 826 306 858 c 0,11,12
 317 899 317 899 348 976.5 c 128,-1,13
 379 1054 379 1054 443.5 1130 c 128,-1,14
 508 1206 508 1206 616.5 1264.5 c 128,-1,15
 725 1323 725 1323 895 1323 c 0,16,17
 1074 1323 1074 1323 1152.5 1235.5 c 128,-1,18
 1231 1148 1231 1148 1245 1018 c 128,-1,19
 1259 888 1259 888 1230 732.5 c 128,-1,20
 1201 577 1201 577 1160 439 c 1,21,22
 1222 471 1222 471 1271.5 465.5 c 128,-1,23
 1321 460 1321 460 1355.5 429 c 128,-1,24
 1390 398 1390 398 1407 347.5 c 128,-1,25
 1424 297 1424 297 1410 232 c 0,26,27
 1404 207 1404 207 1388.5 165.5 c 128,-1,28
 1373 124 1373 124 1342.5 86 c 128,-1,29
 1312 48 1312 48 1265.5 20.5 c 128,-1,30
 1219 -7 1219 -7 1150 -7 c 0,31,32
 1035 -7 1035 -7 1027 79.5 c 128,-1,33
 1019 166 1019 166 1056 318 c 1,34,35
 957 265 957 265 905 230.5 c 128,-1,36
 853 196 853 196 808.5 165 c 128,-1,37
 764 134 764 134 706.5 99.5 c 128,-1,38
 649 65 649 65 552 14 c 0,39,40
 479 -18 479 -18 464 25.5 c 128,-1,41
 449 69 449 69 460.5 141.5 c 128,-1,42
 472 214 472 214 495 297 c 128,-1,43
 518 380 518 380 529 432 c 1,44,45
 502 391 502 391 454.5 371.5 c 128,-1,46
 407 352 407 352 347 352 c 0,47,48
 251 352 251 352 219 416.5 c 128,-1,49
 187 481 187 481 206 557 c 128,-1,50
 225 633 225 633 286.5 697 c 128,-1,51
 348 761 348 761 448 761 c 0,52,53
 552 761 552 761 600.5 705 c 128,-1,54
 649 649 649 649 617 539 c 0,55,56
 598 460 598 460 576 373.5 c 128,-1,57
 554 287 554 287 539 214.5 c 128,-1,58
 524 142 524 142 521 98.5 c 128,-1,59
 518 55 518 55 534 65 c 0,60,61
 596 97 596 97 650 130 c 128,-1,62
 704 163 704 163 767 204.5 c 128,-1,63
 830 246 830 246 906.5 299 c 128,-1,64
 983 352 983 352 1093 425 c 1,0,1
1125 356 m 1,65,66
 1109 279 1109 279 1096.5 221 c 128,-1,67
 1084 163 1084 163 1084 123 c 128,-1,68
 1084 83 1084 83 1102.5 63.5 c 128,-1,69
 1121 44 1121 44 1160 44 c 0,70,71
 1212 44 1212 44 1246.5 60 c 128,-1,72
 1281 76 1281 76 1304 101.5 c 128,-1,73
 1327 127 1327 127 1338.5 157 c 128,-1,74
 1350 187 1350 187 1360 221 c 0,75,76
 1376 276 1376 276 1360 321 c 128,-1,77
 1344 366 1344 366 1308 389 c 128,-1,78
 1272 412 1272 412 1223 407 c 128,-1,79
 1174 402 1174 402 1125 356 c 1,65,66
288 626 m 0,80,81
 244 550 244 550 263.5 479.5 c 128,-1,82
 283 409 283 409 379 405 c 0,83,84
 444 402 444 402 493.5 447.5 c 128,-1,85
 543 493 543 493 555 554 c 0,86,87
 568 616 568 616 545 659 c 128,-1,88
 522 702 522 702 453 706 c 0,89,90
 416 709 416 709 365.5 691.5 c 128,-1,91
 315 674 315 674 288 626 c 0,80,81
EndSplineSet
EndChar
StartChar: uni0E0A
Encoding: 3594 3594 14
Width: 1137
VWidth: 3622
Flags: W
HStem: 798 49<350.222 485.862> 1141 58<479.369 599.304> 1280.5 49.5<588.7 761.528>
VStem: 946.5 69<452.816 598.577 598.577 643 708 767.421 767.421 821.222 821.222 942.796 942.796 1026>
Fore
357 1072 m 0,0,1
 311 996 311 996 334 923.5 c 128,-1,2
 357 851 357 851 451 847 c 0,3,4
 511 844 511 844 558 885.5 c 128,-1,5
 605 927 605 927 617 989 c 0,6,7
 631 1051 631 1051 602 1094 c 128,-1,8
 573 1137 573 1137 511 1141 c 0,9,10
 471 1144 471 1144 428.5 1130 c 128,-1,11
 386 1116 386 1116 357 1072 c 0,0,1
812 1144 m 1,12,13
 810 1213 810 1213 763 1246 c 128,-1,14
 716 1279 716 1279 657 1280.5 c 128,-1,15
 598 1282 598 1282 544 1258.5 c 128,-1,16
 490 1235 490 1235 479 1199 c 1,17,18
 603 1199 603 1199 644 1148.5 c 128,-1,19
 685 1098 685 1098 670 996 c 0,20,21
 669 968 669 968 648.5 933.5 c 128,-1,22
 628 899 628 899 594.5 868 c 128,-1,23
 561 837 561 837 520 817.5 c 128,-1,24
 479 798 479 798 433 798 c 0,25,26
 329 801 329 801 292 871 c 128,-1,27
 255 941 255 941 285 1037 c 0,28,29
 299 1083 299 1083 328 1139.5 c 128,-1,30
 357 1196 357 1196 408.5 1241 c 128,-1,31
 460 1286 460 1286 537 1313.5 c 128,-1,32
 614 1341 614 1341 720 1330 c 0,33,34
 815 1318 815 1318 844.5 1258.5 c 128,-1,35
 874 1199 874 1199 860.5 1112.5 c 128,-1,36
 847 1026 847 1026 803 917 c 128,-1,37
 759 808 759 808 706.5 703 c 128,-1,38
 654 598 654 598 611 505 c 128,-1,39
 568 412 568 412 555 352 c 0,40,41
 547 315 547 315 542.5 262.5 c 128,-1,42
 538 210 538 210 546 165 c 128,-1,43
 554 120 554 120 576 87.5 c 128,-1,44
 598 55 598 55 649 58 c 0,45,46
 755 65 755 65 815.5 126 c 128,-1,47
 876 187 876 187 906.5 282 c 128,-1,48
 937 377 937 377 943.5 489 c 128,-1,49
 950 601 950 601 946.5 708 c 128,-1,50
 943 815 943 815 936.5 902 c 128,-1,51
 930 989 930 989 937 1033 c 1,52,53
 996 1127 996 1127 1065 1197.5 c 128,-1,54
 1134 1268 1134 1268 1194 1314 c 0,55,56
 1268 1369 1268 1369 1341 1406 c 0,57,58
 1376 1420 1376 1420 1384 1396.5 c 128,-1,59
 1392 1373 1392 1373 1369 1355 c 0,60,61
 1291 1307 1291 1307 1219 1254 c 0,62,63
 1157 1206 1157 1206 1096 1146 c 128,-1,64
 1035 1086 1035 1086 1003 1026 c 1,65,66
 1001 960 1001 960 1007.5 858.5 c 128,-1,67
 1014 757 1014 757 1015.5 643 c 128,-1,68
 1017 529 1017 529 1004.5 413 c 128,-1,69
 992 297 992 297 953 204 c 128,-1,70
 914 111 914 111 838 53.5 c 128,-1,71
 762 -4 762 -4 637 0 c 0,72,73
 564 0 564 0 526 36.5 c 128,-1,74
 488 73 488 73 475.5 123 c 128,-1,75
 463 173 463 173 468.5 235 c 128,-1,76
 474 297 474 297 486 352 c 0,77,78
 513 453 513 453 557 554.5 c 128,-1,79
 601 656 601 656 651.5 753.5 c 128,-1,80
 702 851 702 851 746.5 949 c 128,-1,81
 791 1047 791 1047 812 1144 c 1,12,13
EndSplineSet
EndChar
StartChar: uni0E0B
Encoding: 3595 3595 15
Width: 1307
VWidth: 3622
Flags: W
HStem: 0 58<724.272 945.875> 794 46<343.438 489.686> 1268 59<564.537 658.201>
VStem: 1084 72<449.201 594.608 594.608 643 705 763.937 763.937 816.628 816.628 942.796 942.796 967.434 967.434 1026>
Fore
356 1061 m 0,0,1
 310 985 310 985 329 914.5 c 128,-1,2
 348 844 348 844 446 840 c 0,3,4
 509 837 509 837 555 882 c 128,-1,5
 601 927 601 927 614 989 c 0,6,7
 628 1051 628 1051 604 1090.5 c 128,-1,8
 580 1130 580 1130 513 1134 c 0,9,10
 472 1137 472 1137 428 1123 c 128,-1,11
 384 1109 384 1109 356 1061 c 0,0,1
960 1144 m 1,12,13
 960 1189 960 1189 948.5 1227 c 128,-1,14
 937 1265 937 1265 897 1261 c 0,15,16
 858 1258 858 1258 825 1203 c 128,-1,17
 792 1148 792 1148 764 1093 c 1,18,19
 755 1090 755 1090 745 1086 c 0,20,21
 722 1079 722 1079 709 1093 c 1,22,23
 709 1113 709 1113 704.5 1142 c 128,-1,24
 700 1171 700 1171 690.5 1197.5 c 128,-1,25
 681 1224 681 1224 660 1246 c 128,-1,26
 639 1268 639 1268 605 1268 c 0,27,28
 580 1268 580 1268 550 1258 c 0,29,30
 522 1251 522 1251 490 1228.5 c 128,-1,31
 458 1206 458 1206 428 1171 c 1,32,33
 561 1196 561 1196 623 1147 c 128,-1,34
 685 1098 685 1098 670 996 c 0,35,36
 669 968 669 968 648.5 931.5 c 128,-1,37
 628 895 628 895 596 864 c 128,-1,38
 564 833 564 833 523.5 813.5 c 128,-1,39
 483 794 483 794 437 794 c 0,40,41
 331 798 331 798 290 857 c 128,-1,42
 249 916 249 916 279 1026 c 0,43,44
 295 1083 295 1083 329.5 1137.5 c 128,-1,45
 364 1192 364 1192 411 1233.5 c 128,-1,46
 458 1275 458 1275 514.5 1301 c 128,-1,47
 571 1327 571 1327 630 1327 c 0,48,49
 679 1327 679 1327 711 1289 c 128,-1,50
 743 1251 743 1251 754 1162 c 1,51,52
 791 1251 791 1251 830.5 1284.5 c 128,-1,53
 870 1318 870 1318 909 1318 c 0,54,55
 992 1318 992 1318 1015 1265.5 c 128,-1,56
 1038 1213 1038 1213 1020.5 1130 c 128,-1,57
 1003 1047 1003 1047 959.5 940 c 128,-1,58
 916 833 916 833 864 726 c 128,-1,59
 812 619 812 619 765 520 c 128,-1,60
 718 421 718 421 700 352 c 0,61,62
 688 315 688 315 684.5 264.5 c 128,-1,63
 681 214 681 214 690 169 c 128,-1,64
 699 124 699 124 723.5 91 c 128,-1,65
 748 58 748 58 798 58 c 0,66,67
 904 58 904 58 965 119 c 128,-1,68
 1026 180 1026 180 1055 275 c 128,-1,69
 1084 370 1084 370 1090.5 484 c 128,-1,70
 1097 598 1097 598 1094 705 c 128,-1,71
 1091 812 1091 812 1085 900.5 c 128,-1,72
 1079 989 1079 989 1084 1033 c 1,73,74
 1144 1127 1144 1127 1213 1197.5 c 128,-1,75
 1282 1268 1282 1268 1343 1314 c 0,76,77
 1417 1369 1417 1369 1489 1406 c 0,78,79
 1525 1420 1525 1420 1533 1396.5 c 128,-1,80
 1541 1373 1541 1373 1518 1355 c 0,81,82
 1440 1307 1440 1307 1367 1254 c 0,83,84
 1305 1206 1305 1206 1244 1146 c 128,-1,85
 1183 1086 1183 1086 1151 1026 c 1,86,87
 1150 960 1150 960 1156 858.5 c 128,-1,88
 1162 757 1162 757 1164 643 c 128,-1,89
 1166 529 1166 529 1153.5 413 c 128,-1,90
 1141 297 1141 297 1102 204 c 128,-1,91
 1063 111 1063 111 987 53.5 c 128,-1,92
 911 -4 911 -4 785 0 c 0,93,94
 713 0 713 0 675 36.5 c 128,-1,95
 637 73 637 73 624.5 123 c 128,-1,96
 612 173 612 173 617.5 235 c 128,-1,97
 623 297 623 297 635 352 c 0,98,99
 660 453 660 453 705 554.5 c 128,-1,100
 750 656 750 656 800.5 753.5 c 128,-1,101
 851 851 851 851 895 949 c 128,-1,102
 939 1047 939 1047 960 1144 c 1,12,13
EndSplineSet
EndChar
StartChar: uni0E0C
Encoding: 3596 3596 16
Width: 1779
VWidth: 3622
Flags: W
HStem: 0 48<798.124 996.82> 4 51<393.028 570.919 1560 1580.65> 348 46<459.627 617.9> 1231 58<692.069 1026.47>
VStem: 729 55<98.9648 159 159 243.595>
Fore
1560 69 m 1,0,1
 1569 69 1569 69 1586 131 c 128,-1,2
 1603 193 1603 193 1624 293.5 c 128,-1,3
 1645 394 1645 394 1670.5 521.5 c 128,-1,4
 1696 649 1696 649 1721 777.5 c 128,-1,5
 1746 906 1746 906 1771.5 1023.5 c 128,-1,6
 1797 1141 1797 1141 1818 1228 c 1,7,8
 1820 1254 1820 1254 1831.5 1266.5 c 128,-1,9
 1843 1279 1843 1279 1857 1279 c 128,-1,10
 1871 1279 1871 1279 1883.5 1265 c 128,-1,11
 1896 1251 1896 1251 1893 1220 c 1,12,13
 1868 1134 1868 1134 1833.5 974.5 c 128,-1,14
 1799 815 1799 815 1764.5 641 c 128,-1,15
 1730 467 1730 467 1693.5 308 c 128,-1,16
 1657 149 1657 149 1636 58 c 1,17,18
 1618 25 1618 25 1600.5 14.5 c 128,-1,19
 1583 4 1583 4 1565 0 c 0,20,21
 1541 -4 1541 -4 1518 7 c 1,22,-1
 1113 276 l 1,23,24
 1107 239 1107 239 1099 194 c 128,-1,25
 1091 149 1091 149 1068 107 c 128,-1,26
 1045 65 1045 65 1001 36 c 128,-1,27
 957 7 957 7 888 0 c 0,28,29
 782 -11 782 -11 752 43 c 128,-1,30
 722 97 722 97 729 159 c 0,31,32
 734 200 734 200 758 245 c 128,-1,33
 782 290 782 290 826 326.5 c 128,-1,34
 870 363 870 363 928.5 377 c 128,-1,35
 987 391 987 391 1063 370 c 1,36,37
 1118 612 1118 612 1136.5 774.5 c 128,-1,38
 1155 937 1155 937 1130.5 1037 c 128,-1,39
 1106 1137 1106 1137 1037.5 1180.5 c 128,-1,40
 969 1224 969 1224 847 1231 c 256,41,42
 725 1238 725 1238 628.5 1210 c 128,-1,43
 532 1182 532 1182 464 1136 c 128,-1,44
 396 1090 396 1090 356.5 1037.5 c 128,-1,45
 317 985 317 985 304 941 c 1,46,-1
 509 854 l 1,47,48
 524 844 524 844 516.5 793.5 c 128,-1,49
 509 743 509 743 490.5 672 c 128,-1,50
 472 601 472 601 444 514.5 c 128,-1,51
 416 428 416 428 394 348 c 1,52,53
 412 363 412 363 435 377 c 0,54,55
 474 398 474 398 547 394 c 0,56,57
 605 394 605 394 637.5 371 c 128,-1,58
 670 348 670 348 685 317.5 c 128,-1,59
 700 287 700 287 701 254 c 128,-1,60
 702 221 702 221 699 200 c 1,61,62
 676 127 676 127 611.5 65.5 c 128,-1,63
 547 4 547 4 446 4 c 1,64,65
 425 0 425 0 392 10.5 c 128,-1,66
 359 21 359 21 333.5 45 c 128,-1,67
 308 69 308 69 293.5 107 c 128,-1,68
 279 145 279 145 292 200 c 0,69,70
 306 272 306 272 338 375 c 128,-1,71
 370 478 370 478 399 572.5 c 128,-1,72
 428 667 428 667 444 736 c 128,-1,73
 460 805 460 805 451 812 c 1,74,75
 417 830 417 830 379 844 c 128,-1,76
 341 858 341 858 307.5 871 c 128,-1,77
 274 884 274 884 251 896.5 c 128,-1,78
 228 909 228 909 232 927 c 0,79,80
 244 985 244 985 296 1054 c 128,-1,81
 348 1123 348 1123 430.5 1177 c 128,-1,82
 513 1231 513 1231 624.5 1265.5 c 128,-1,83
 736 1300 736 1300 863 1289 c 0,84,85
 989 1279 989 1279 1071 1242.5 c 128,-1,86
 1153 1206 1153 1206 1186 1106 c 128,-1,87
 1219 1006 1219 1006 1204 823 c 128,-1,88
 1189 640 1189 640 1116 345 c 1,89,-1
 1560 69 l 1,0,1
640 207 m 0,90,91
 654 269 654 269 619 308.5 c 128,-1,92
 584 348 584 348 522 348 c 0,93,94
 446 348 446 348 402.5 297 c 128,-1,95
 359 246 359 246 350 200 c 0,96,97
 340 156 340 156 362 105.5 c 128,-1,98
 384 55 384 55 460 55 c 0,99,100
 522 55 522 55 572.5 96.5 c 128,-1,101
 623 138 623 138 640 207 c 0,90,91
1049 301 m 1,102,103
 1006 325 1006 325 963 325 c 128,-1,104
 920 325 920 325 882.5 304 c 128,-1,105
 845 283 845 283 818 246.5 c 128,-1,106
 791 210 791 210 784 163 c 0,107,108
 778 124 778 124 797.5 84 c 128,-1,109
 817 44 817 44 897 48 c 0,110,111
 982 51 982 51 1021 129 c 128,-1,112
 1060 207 1060 207 1049 301 c 1,102,103
EndSplineSet
EndChar
StartChar: uni0E0D
Encoding: 3597 3597 17
Width: 1775
VWidth: 3622
Flags: W
HStem: -623 60<1002.63 1176.56> 7 69<1045 1102.46> 7 58<392.967 570.919 1104.55 1134 1134 1225.52 1225.52 1403.48 1403.48 1506.94 1506.94 1515.25 1515.25 1576.87> 348 46<459.627 617.9> 1231 58<731.131 1019.94>
VStem: 722 58<-439.021 -336 -336 -297.042>
Fore
1100 547 m 2,0,1
 1266 1231 1266 1231 847 1231 c 0,2,3
 746 1231 746 1231 653.5 1202.5 c 128,-1,4
 561 1174 561 1174 487.5 1131 c 128,-1,5
 414 1088 414 1088 365.5 1036.5 c 128,-1,6
 317 985 317 985 304 941 c 1,7,-1
 509 854 l 1,8,9
 525 842 525 842 517 792.5 c 128,-1,10
 509 743 509 743 490 671.5 c 128,-1,11
 471 600 471 600 443.5 515 c 128,-1,12
 416 430 416 430 394 348 c 1,13,14
 403 356 403 356 413 363 c 128,-1,15
 423 370 423 370 435 377 c 0,16,17
 474 398 474 398 547 394 c 0,18,19
 605 394 605 394 637.5 371 c 128,-1,20
 670 348 670 348 684.5 317.5 c 128,-1,21
 699 287 699 287 700.5 254 c 128,-1,22
 702 221 702 221 699 200 c 1,23,24
 674 124 674 124 610 65 c 0,25,26
 545 4 545 4 446 4 c 1,27,28
 423 0 423 0 392 9.5 c 128,-1,29
 361 19 361 19 334.5 44 c 128,-1,30
 308 69 308 69 293.5 108 c 128,-1,31
 279 147 279 147 292 200 c 0,32,33
 299 235 299 235 310.5 279.5 c 128,-1,34
 322 324 322 324 338 375 c 2,35,-1
 398 571 l 2,36,37
 414 619 414 619 425.5 661.5 c 128,-1,38
 437 704 437 704 444 736 c 128,-1,39
 451 768 451 768 453.5 788 c 128,-1,40
 456 808 456 808 451 812 c 0,41,42
 419 828 419 828 379.5 843 c 128,-1,43
 340 858 340 858 306 871 c 128,-1,44
 272 884 272 884 250 897.5 c 128,-1,45
 228 911 228 911 232 927 c 0,46,47
 244 985 244 985 306 1052.5 c 128,-1,48
 368 1120 368 1120 458 1174.5 c 128,-1,49
 548 1229 548 1229 655 1263 c 128,-1,50
 762 1297 762 1297 863 1289 c 0,51,52
 975 1282 975 1282 1051 1247.5 c 128,-1,53
 1127 1213 1127 1213 1166.5 1132.5 c 128,-1,54
 1206 1052 1206 1052 1207 916 c 128,-1,55
 1208 780 1208 780 1167 570 c 2,56,-1
 1045 76 l 1,57,58
 1070 73 1070 73 1103.5 71 c 128,-1,59
 1137 69 1137 69 1182 67 c 256,60,61
 1226 65 1226 65 1269 65 c 128,-1,62
 1312 65 1312 65 1353 65 c 0,63,64
 1403 65 1403 65 1454 66 c 128,-1,65
 1505 67 1505 67 1560 69 c 0,66,67
 1569 69 1569 69 1587.5 132 c 128,-1,68
 1606 195 1606 195 1630 295.5 c 128,-1,69
 1654 396 1654 396 1681.5 523.5 c 128,-1,70
 1709 651 1709 651 1735.5 780 c 128,-1,71
 1762 909 1762 909 1785 1029.5 c 128,-1,72
 1808 1150 1808 1150 1824 1235 c 0,73,74
 1825 1259 1825 1259 1837.5 1273.5 c 128,-1,75
 1850 1288 1850 1288 1862.5 1288 c 128,-1,76
 1875 1288 1875 1288 1883 1274.5 c 128,-1,77
 1891 1261 1891 1261 1884 1231 c 0,78,79
 1871 1187 1871 1187 1858 1126 c 128,-1,80
 1845 1065 1845 1065 1829 983 c 2,81,-1
 1763 646 l 2,82,83
 1746 557 1746 557 1729 474 c 128,-1,84
 1712 391 1712 391 1695 310 c 0,85,86
 1661 152 1661 152 1636 58 c 1,87,88
 1615 19 1615 19 1585 11 c 0,89,90
 1581 9 1581 9 1552 8 c 128,-1,91
 1523 7 1523 7 1478 7 c 128,-1,92
 1433 7 1433 7 1375.5 7 c 128,-1,93
 1318 7 1318 7 1256 7 c 128,-1,94
 1194 7 1194 7 1134 7 c 128,-1,95
 1074 7 1074 7 1022 7 c 0,96,97
 1003 7 1003 7 989 14 c 128,-1,98
 975 21 975 21 980 48 c 2,99,-1
 1100 547 l 2,0,1
640 207 m 0,100,101
 654 269 654 269 619 308.5 c 128,-1,102
 584 348 584 348 522 348 c 0,103,104
 448 348 448 348 402 297 c 0,105,106
 359 246 359 246 350 200 c 0,107,108
 340 154 340 154 361 104 c 0,109,110
 384 55 384 55 460 55 c 0,111,112
 522 55 522 55 572.5 96.5 c 128,-1,113
 623 138 623 138 640 207 c 0,100,101
886 -515 m 0,114,115
 876 -513 876 -513 908.5 -530.5 c 128,-1,116
 941 -548 941 -548 996 -555 c 0,117,118
 1040 -562 1040 -562 1086 -563 c 128,-1,119
 1132 -564 1132 -564 1178 -557 c 0,120,121
 1259 -547 1259 -547 1332.5 -531.5 c 128,-1,122
 1406 -516 1406 -516 1470 -476.5 c 128,-1,123
 1534 -437 1534 -437 1587.5 -362 c 128,-1,124
 1641 -287 1641 -287 1684 -156 c 1,125,126
 1700 -124 1700 -124 1705 -117.5 c 128,-1,127
 1710 -111 1710 -111 1726 -108 c 0,128,129
 1744 -104 1744 -104 1755.5 -114 c 128,-1,130
 1767 -124 1767 -124 1758 -145 c 0,131,132
 1718 -271 1718 -271 1663 -363 c 128,-1,133
 1608 -455 1608 -455 1528 -508 c 0,134,135
 1450 -562 1450 -562 1361 -589 c 128,-1,136
 1272 -616 1272 -616 1171 -623 c 0,137,138
 1084 -630 1084 -630 1000 -620 c 128,-1,139
 916 -610 916 -610 851.5 -576.5 c 128,-1,140
 787 -543 787 -543 750 -484.5 c 128,-1,141
 713 -426 713 -426 722 -336 c 0,142,143
 725 -299 725 -299 742 -262.5 c 128,-1,144
 759 -226 759 -226 785.5 -197 c 128,-1,145
 812 -168 812 -168 845.5 -148.5 c 128,-1,146
 879 -129 879 -129 916 -126 c 0,147,148
 959 -120 959 -120 1004 -127 c 128,-1,149
 1049 -134 1049 -134 1079 -161 c 0,150,151
 1139 -214 1139 -214 1134 -287 c 0,152,153
 1130 -333 1130 -333 1107 -376 c 128,-1,154
 1084 -419 1084 -419 1049.5 -452 c 128,-1,155
 1015 -485 1015 -485 972.5 -502.5 c 128,-1,156
 930 -520 930 -520 886 -515 c 0,114,115
920 -186 m 0,157,158
 897 -189 897 -189 873 -200.5 c 128,-1,159
 849 -212 849 -212 829.5 -230.5 c 128,-1,160
 810 -249 810 -249 796 -275.5 c 128,-1,161
 782 -302 782 -302 780 -334 c 0,162,163
 777 -409 777 -409 810.5 -440 c 128,-1,164
 844 -471 844 -471 891 -467 c 0,165,166
 929 -463 929 -463 960.5 -446.5 c 128,-1,167
 992 -430 992 -430 1015 -406 c 128,-1,168
 1038 -382 1038 -382 1052.5 -353 c 128,-1,169
 1067 -324 1067 -324 1070 -297 c 0,170,171
 1074 -262 1074 -262 1062.5 -239 c 128,-1,172
 1051 -216 1051 -216 1028.5 -202.5 c 128,-1,173
 1006 -189 1006 -189 978 -185.5 c 128,-1,174
 950 -182 950 -182 920 -186 c 0,157,158
EndSplineSet
Substitution2: "Single Substitution lookup 22 subtable" uni0E0D.alt1
Substitution2: "Single Substitution lookup 22 subtable" uni0E0D.alt1
EndChar
StartChar: uni0E0E
Encoding: 3598 3598 18
Width: 1376
VWidth: 3622
Flags: W
HStem: 345 46<257.006 378.963> 1265 58<825.065 1180.18>
VStem: 4 51<-547.375 -380.4>
Fore
1206 193 m 2,0,1
 1270 474 1270 474 1300 675.5 c 128,-1,2
 1330 877 1330 877 1310.5 1007 c 128,-1,3
 1291 1137 1291 1137 1214 1199 c 128,-1,4
 1137 1261 1137 1261 985 1265 c 0,5,6
 826 1268 826 1268 712 1230 c 128,-1,7
 598 1192 598 1192 523.5 1142.5 c 128,-1,8
 449 1093 449 1093 411 1044.5 c 128,-1,9
 373 996 373 996 366 975 c 1,10,-1
 617 895 l 2,11,12
 633 888 633 888 618 793.5 c 128,-1,13
 603 699 603 699 578.5 579.5 c 128,-1,14
 554 460 554 460 522 344 c 128,-1,15
 490 228 490 228 474 173 c 0,16,17
 460 120 460 120 427 85.5 c 128,-1,18
 394 51 394 51 357 31 c 128,-1,19
 320 11 320 11 284 3.5 c 128,-1,20
 248 -4 248 -4 225 0 c 0,21,22
 131 7 131 7 95.5 65.5 c 128,-1,23
 60 124 60 124 83 207 c 0,24,25
 88 228 88 228 106 262.5 c 128,-1,26
 124 297 124 297 153 326.5 c 128,-1,27
 182 356 182 356 224.5 375 c 128,-1,28
 267 394 267 394 327 391 c 0,29,30
 368 391 368 391 395.5 380.5 c 128,-1,31
 423 370 423 370 437 356 c 2,32,33
 456 341 456 341 465 318 c 1,34,35
 527 547 527 547 548.5 695.5 c 128,-1,36
 570 844 570 844 557 851 c 0,37,38
 525 870 525 870 478.5 882.5 c 128,-1,39
 432 895 432 895 387.5 907.5 c 128,-1,40
 343 920 343 920 315 930.5 c 128,-1,41
 287 941 287 941 290 960 c 0,42,43
 302 1003 302 1003 354.5 1068.5 c 128,-1,44
 407 1134 407 1134 497 1194 c 128,-1,45
 587 1254 587 1254 712.5 1292 c 128,-1,46
 838 1330 838 1330 1001 1323 c 0,47,48
 1173 1314 1173 1314 1263 1249.5 c 128,-1,49
 1353 1185 1353 1185 1378 1057.5 c 128,-1,50
 1403 930 1403 930 1373.5 733 c 128,-1,51
 1344 536 1344 536 1282 265 c 2,52,-1
 1196 -149 l 2,53,54
 1151 -318 1151 -318 1131 -414.5 c 128,-1,55
 1111 -511 1111 -511 1097.5 -558 c 128,-1,56
 1084 -605 1084 -605 1075.5 -622.5 c 128,-1,57
 1067 -640 1067 -640 1040 -626 c 1,58,59
 1006 -580 1006 -580 973.5 -545.5 c 128,-1,60
 941 -511 941 -511 904 -483.5 c 128,-1,61
 867 -456 867 -456 822.5 -430.5 c 128,-1,62
 778 -405 778 -405 723 -377 c 1,63,64
 700 -456 700 -456 634 -516.5 c 128,-1,65
 568 -577 568 -577 484 -613 c 128,-1,66
 400 -649 400 -649 311.5 -661.5 c 128,-1,67
 223 -674 223 -674 151.5 -660 c 128,-1,68
 80 -646 80 -646 36.5 -603.5 c 128,-1,69
 -7 -561 -7 -561 4 -488 c 0,70,71
 25 -356 25 -356 115 -297.5 c 128,-1,72
 205 -239 205 -239 315.5 -232 c 128,-1,73
 426 -225 426 -225 532.5 -250.5 c 128,-1,74
 639 -276 639 -276 695 -308 c 1,75,-1
 720 -218 l 1,76,77
 720 -200 720 -200 730.5 -192 c 128,-1,78
 741 -184 741 -184 752.5 -184 c 128,-1,79
 764 -184 764 -184 773 -195.5 c 128,-1,80
 782 -207 782 -207 778 -221 c 2,81,-1
 750 -318 l 1,82,83
 807 -345 807 -345 842 -364.5 c 128,-1,84
 877 -384 877 -384 909 -406 c 128,-1,85
 941 -428 941 -428 972 -454.5 c 128,-1,86
 1003 -481 1003 -481 1047 -522 c 1,87,-1
 1206 193 l 2,0,1
136 218 m 0,88,89
 117 149 117 149 146 103.5 c 128,-1,90
 175 58 175 58 235 51 c 0,91,92
 310 44 310 44 356 91 c 128,-1,93
 402 138 402 138 417 180 c 0,94,95
 435 228 435 228 417.5 282 c 128,-1,96
 400 336 400 336 325 345 c 0,97,98
 267 352 267 352 211.5 315.5 c 128,-1,99
 156 279 156 279 136 218 c 0,88,89
672 -363 m 1,100,101
 621 -329 621 -329 523.5 -306 c 128,-1,102
 426 -283 426 -283 328 -288.5 c 128,-1,103
 230 -294 230 -294 150.5 -337 c 128,-1,104
 71 -380 71 -380 55 -488 c 0,105,106
 46 -543 46 -543 83 -574 c 128,-1,107
 120 -605 120 -605 184 -612 c 128,-1,108
 248 -619 248 -619 325.5 -605 c 128,-1,109
 403 -591 403 -591 475.5 -556.5 c 128,-1,110
 548 -522 548 -522 601 -473.5 c 128,-1,111
 654 -425 654 -425 672 -363 c 1,100,101
EndSplineSet
Substitution2: "Single Substitution lookup 22 subtable" uni0E0E.alt1
Substitution2: "Single Substitution lookup 22 subtable" uni0E0E.alt1
EndChar
StartChar: uni0E0F
Encoding: 3599 3599 19
Width: 1406
VWidth: 3622
Flags: W
HStem: 345 46<300.513 423.031> 1265 58<849.703 1205.55>
VStem: -42 47<-551.422 -338.35> 313 44<-473.503 -363> 354 58<-235.704 -181.86>
Fore
1037 -573 m 1,0,1
 1044 -570 1044 -570 1057 -535.5 c 128,-1,2
 1070 -501 1070 -501 1086 -446 c 128,-1,3
 1102 -391 1102 -391 1119.5 -323.5 c 128,-1,4
 1137 -256 1137 -256 1151 -184 c 0,5,6
 1190 -18 1190 -18 1236 193 c 0,7,8
 1298 474 1298 474 1330 672 c 128,-1,9
 1362 870 1362 870 1343.5 998.5 c 128,-1,10
 1325 1127 1325 1127 1251.5 1190.5 c 128,-1,11
 1178 1254 1178 1254 1031 1265 c 0,12,13
 879 1275 879 1275 764 1239 c 128,-1,14
 649 1203 649 1203 574 1152.5 c 128,-1,15
 499 1102 499 1102 458 1049 c 128,-1,16
 417 996 417 996 410 975 c 1,17,-1
 660 895 l 2,18,19
 676 888 676 888 661.5 793.5 c 128,-1,20
 647 699 647 699 622.5 579.5 c 128,-1,21
 598 460 598 460 565 344 c 128,-1,22
 532 228 532 228 516 173 c 0,23,24
 502 120 502 120 470.5 85.5 c 128,-1,25
 439 51 439 51 401.5 31 c 128,-1,26
 364 11 364 11 328 3.5 c 128,-1,27
 292 -4 292 -4 269 0 c 0,28,29
 173 7 173 7 137 69 c 128,-1,30
 101 131 101 131 132.5 215 c 128,-1,31
 164 299 164 299 195 327.5 c 128,-1,32
 226 356 226 356 268.5 375 c 128,-1,33
 311 394 311 394 371 391 c 0,34,35
 410 391 410 391 437.5 380.5 c 128,-1,36
 465 370 465 370 479 356 c 2,37,38
 501 341 501 341 509 318 c 1,39,40
 571 547 571 547 592.5 695.5 c 128,-1,41
 614 844 614 844 601 851 c 0,42,43
 568 870 568 870 522 882.5 c 128,-1,44
 476 895 476 895 431.5 907.5 c 128,-1,45
 387 920 387 920 359 930.5 c 128,-1,46
 331 941 331 941 334 960 c 0,47,48
 347 1003 347 1003 397.5 1068.5 c 128,-1,49
 448 1134 448 1134 536 1194 c 128,-1,50
 624 1254 624 1254 752.5 1294 c 128,-1,51
 881 1334 881 1334 1047 1323 c 0,52,53
 1201 1314 1201 1314 1286 1249.5 c 128,-1,54
 1371 1185 1371 1185 1397.5 1057.5 c 128,-1,55
 1424 930 1424 930 1399 733 c 128,-1,56
 1374 536 1374 536 1312 265 c 2,57,-1
 1226 -149 l 2,58,59
 1182 -318 1182 -318 1154.5 -418 c 128,-1,60
 1127 -518 1127 -518 1105 -567 c 128,-1,61
 1083 -616 1083 -616 1062.5 -628 c 128,-1,62
 1042 -640 1042 -640 1015 -640 c 0,63,64
 994 -640 994 -640 968.5 -597 c 128,-1,65
 943 -554 943 -554 919 -503.5 c 128,-1,66
 895 -453 895 -453 872 -409.5 c 128,-1,67
 849 -366 849 -366 835 -363 c 256,68,69
 821 -359 821 -359 779.5 -402.5 c 128,-1,70
 738 -446 738 -446 689 -496.5 c 128,-1,71
 640 -547 640 -547 596 -590 c 128,-1,72
 552 -633 552 -633 534 -633 c 0,73,74
 509 -633 509 -633 484.5 -597 c 128,-1,75
 460 -561 460 -561 437 -514 c 128,-1,76
 414 -467 414 -467 394.5 -422 c 128,-1,77
 375 -377 375 -377 357 -363 c 1,78,79
 352 -471 352 -471 285.5 -536 c 128,-1,80
 219 -601 219 -601 144 -615.5 c 128,-1,81
 69 -630 69 -630 9 -590 c 128,-1,82
 -51 -550 -51 -550 -42 -449 c 0,83,84
 -39 -352 -39 -352 14 -299 c 128,-1,85
 67 -246 67 -246 133.5 -228 c 128,-1,86
 200 -210 200 -210 259 -224.5 c 128,-1,87
 318 -239 318 -239 338 -276 c 1,88,-1
 354 -203 l 1,89,90
 354 -184 354 -184 364.5 -177 c 128,-1,91
 375 -170 375 -170 386.5 -170 c 128,-1,92
 398 -170 398 -170 406 -181.5 c 128,-1,93
 414 -193 414 -193 412 -207 c 2,94,-1
 403 -294 l 1,95,96
 425 -322 425 -322 447 -367 c 128,-1,97
 469 -412 469 -412 488.5 -456.5 c 128,-1,98
 508 -501 508 -501 525.5 -531 c 128,-1,99
 543 -561 543 -561 552 -554 c 0,100,101
 621 -485 621 -485 676 -428 c 0,102,103
 727 -377 727 -377 774.5 -333.5 c 128,-1,104
 822 -290 822 -290 845 -279 c 1,105,106
 867 -279 867 -279 890.5 -322.5 c 128,-1,107
 914 -366 914 -366 939 -418.5 c 128,-1,108
 964 -471 964 -471 989 -516 c 128,-1,109
 1014 -561 1014 -561 1037 -573 c 1,0,1
180 218 m 0,110,111
 161 149 161 149 190 103.5 c 128,-1,112
 219 58 219 58 279 51 c 0,113,114
 354 44 354 44 400 91 c 128,-1,115
 446 138 446 138 462 180 c 0,116,117
 479 228 479 228 461.5 282 c 128,-1,118
 444 336 444 336 370 345 c 0,119,120
 310 352 310 352 255 315.5 c 128,-1,121
 200 279 200 279 180 218 c 0,110,111
313 -329 m 1,122,123
 285 -294 285 -294 232.5 -281.5 c 128,-1,124
 180 -269 180 -269 130.5 -281.5 c 128,-1,125
 81 -294 81 -294 43 -337 c 128,-1,126
 5 -380 5 -380 5 -449 c 0,127,128
 4 -529 4 -529 52.5 -553 c 128,-1,129
 101 -577 101 -577 159.5 -556.5 c 128,-1,130
 218 -536 218 -536 266.5 -476.5 c 128,-1,131
 315 -417 315 -417 313 -329 c 1,122,123
EndSplineSet
Substitution2: "Single Substitution lookup 22 subtable" uni0E0F.alt1
Substitution2: "Single Substitution lookup 22 subtable" uni0E0F.alt1
EndChar
StartChar: uni0E10
Encoding: 3600 3600 20
Width: 1271
VWidth: 3622
Flags: W
HStem: -396.5 49<-34.5 -28 -28 29.3937 627.25 746.339> -117 48<671.465 830.395> 0 58<779.787 864.452> 348 50<496.469 633.806 633.806 666 666 718.341> 718 60<616.391 724.837> 871 64.5<377.957 502.896 502.896 593.319 593.319 780.893 780.893 890.012 890.012 1065.62> 1014 61<1180.76 1279.44> 1254 57<682.765 981.358>
VStem: 787 60<-553.047 -538 -538 -380.146 508.062 550 550 636.531> 1316 60<1096.54 1141.62>
Fore
508 633 m 0,0,1
 451 543 451 543 478.5 472.5 c 128,-1,2
 506 402 506 402 601 398 c 0,3,4
 667 394 667 394 720 441 c 128,-1,5
 773 488 773 488 787 550 c 0,6,7
 799 612 799 612 766.5 662.5 c 128,-1,8
 734 713 734 713 667 718 c 0,9,10
 626 722 626 722 580 701.5 c 128,-1,11
 534 681 534 681 508 633 c 0,0,1
85 -463 m 1,12,13
 74 -428 74 -428 42.5 -409.5 c 128,-1,14
 11 -391 11 -391 -28 -396.5 c 128,-1,15
 -67 -402 -67 -402 -102.5 -432.5 c 128,-1,16
 -138 -463 -138 -463 -145 -518 c 0,17,18
 -154 -577 -154 -577 -122 -600 c 128,-1,19
 -90 -623 -90 -623 -45 -614 c 128,-1,20
 0 -605 0 -605 40 -567 c 128,-1,21
 80 -529 80 -529 85 -463 c 1,12,13
736 -626 m 1,22,23
 752 -601 752 -601 767 -554.5 c 128,-1,24
 782 -508 782 -508 792 -460 c 0,25,26
 805 -405 805 -405 814 -348 c 1,27,28
 778 -370 l 0,29,30
 746 -387 746 -387 692 -387 c 0,31,32
 616 -387 616 -387 586.5 -338.5 c 128,-1,33
 557 -290 557 -290 569.5 -230 c 128,-1,34
 582 -170 582 -170 630.5 -119.5 c 128,-1,35
 679 -69 679 -69 755 -69 c 0,36,37
 849 -69 849 -69 882.5 -112.5 c 128,-1,38
 916 -156 916 -156 907 -232 c 2,39,-1
 872 -377 l 2,40,41
 851 -478 851 -478 835 -538 c 128,-1,42
 819 -598 819 -598 800.5 -630.5 c 128,-1,43
 782 -663 782 -663 761.5 -674 c 128,-1,44
 741 -685 741 -685 708 -685 c 0,45,46
 690 -685 690 -685 667 -657.5 c 128,-1,47
 644 -630 644 -630 617.5 -600 c 128,-1,48
 591 -570 591 -570 569.5 -544 c 128,-1,49
 548 -518 548 -518 534 -518 c 0,50,51
 522 -518 522 -518 489 -541 c 128,-1,52
 456 -564 456 -564 418 -595 c 128,-1,53
 380 -626 380 -626 347.5 -651.5 c 128,-1,54
 315 -677 315 -677 301 -677 c 0,55,56
 276 -677 276 -677 251 -655 c 128,-1,57
 226 -633 226 -633 204 -601.5 c 128,-1,58
 182 -570 182 -570 163.5 -537 c 128,-1,59
 145 -504 145 -504 136 -481 c 1,60,61
 111 -564 111 -564 53 -612 c 128,-1,62
 -5 -660 -5 -660 -62.5 -665 c 128,-1,63
 -120 -670 -120 -670 -162.5 -634 c 128,-1,64
 -205 -598 -205 -598 -195 -515 c 0,65,66
 -187 -442 -187 -442 -138.5 -400.5 c 128,-1,67
 -90 -359 -90 -359 -34.5 -347.5 c 128,-1,68
 21 -336 21 -336 67 -353 c 128,-1,69
 113 -370 113 -370 119 -409 c 1,70,71
 127 -391 127 -391 134 -373 c 0,72,73
 149 -336 149 -336 138 -290 c 1,74,75
 140 -260 140 -260 167.5 -256.5 c 128,-1,76
 195 -253 195 -253 198 -283 c 0,77,78
 203 -308 203 -308 197 -333.5 c 128,-1,79
 191 -359 191 -359 187 -377 c 0,80,81
 182 -402 182 -402 173 -425 c 1,82,83
 193 -456 193 -456 214 -492.5 c 128,-1,84
 235 -529 235 -529 253.5 -556.5 c 128,-1,85
 272 -584 272 -584 290 -600 c 128,-1,86
 308 -616 308 -616 315 -608 c 0,87,88
 363 -570 363 -570 410 -536 c 0,89,90
 448 -508 448 -508 485 -482 c 128,-1,91
 522 -456 522 -456 541 -449 c 1,92,93
 561 -449 561 -449 586.5 -473 c 128,-1,94
 612 -497 612 -497 637.5 -527 c 128,-1,95
 663 -557 663 -557 689.5 -586.5 c 128,-1,96
 716 -616 716 -616 736 -626 c 1,22,23
847 -239 m 0,97,98
 860 -180 860 -180 826 -150 c 128,-1,99
 792 -120 792 -120 755 -117 c 0,100,101
 713 -117 713 -117 676.5 -150.5 c 128,-1,102
 640 -184 640 -184 626 -226.5 c 128,-1,103
 612 -269 612 -269 628 -305 c 128,-1,104
 644 -341 644 -341 708 -341 c 0,105,106
 738 -341 738 -341 788 -310 c 128,-1,107
 838 -279 838 -279 847 -239 c 0,97,98
1203 736 m 0,108,109
 1169 598 1169 598 1120.5 465.5 c 128,-1,110
 1072 333 1072 333 1016 230 c 128,-1,111
 960 127 960 127 902 63.5 c 128,-1,112
 844 0 844 0 789 0 c 0,113,114
 739 0 739 0 723.5 38 c 128,-1,115
 708 76 708 76 710.5 131.5 c 128,-1,116
 713 187 713 187 724.5 256 c 128,-1,117
 736 325 736 325 741 391 c 1,118,119
 706 363 706 363 666 355.5 c 128,-1,120
 626 348 626 348 587 348 c 0,121,122
 481 348 481 348 441.5 414.5 c 128,-1,123
 402 481 402 481 407 536 c 0,124,125
 410 584 410 584 435 629 c 128,-1,126
 460 674 460 674 497 708.5 c 128,-1,127
 534 743 534 743 581 760.5 c 128,-1,128
 628 778 628 778 676 778 c 0,129,130
 711 778 711 778 750 766 c 128,-1,131
 789 754 789 754 814.5 719.5 c 128,-1,132
 840 685 840 685 847 623 c 128,-1,133
 854 561 854 561 830 460 c 0,134,135
 814 391 814 391 799 320 c 128,-1,136
 784 249 784 249 779.5 191.5 c 128,-1,137
 775 134 775 134 779.5 96 c 128,-1,138
 784 58 784 58 807 58 c 0,139,140
 835 58 835 58 883.5 127 c 128,-1,141
 932 196 932 196 985 299 c 128,-1,142
 1038 402 1038 402 1082.5 519.5 c 128,-1,143
 1127 637 1127 637 1146 729 c 0,144,145
 1151 768 1151 768 1149.5 795 c 128,-1,146
 1148 822 1148 822 1130.5 840 c 128,-1,147
 1113 858 1113 858 1071 866 c 128,-1,148
 1029 874 1029 874 953 874 c 0,149,150
 746 874 746 874 611 869.5 c 128,-1,151
 476 865 476 865 396.5 871 c 128,-1,152
 317 877 317 877 286 895 c 128,-1,153
 255 913 255 913 260 957 c 0,154,155
 269 1010 269 1010 324 1072 c 128,-1,156
 379 1134 379 1134 456.5 1186 c 128,-1,157
 534 1238 534 1238 627 1274.5 c 128,-1,158
 720 1311 720 1311 807 1311 c 0,159,160
 948 1311 948 1311 1016 1274.5 c 128,-1,161
 1084 1238 1084 1238 1121.5 1193 c 128,-1,162
 1159 1148 1159 1148 1182.5 1111.5 c 128,-1,163
 1206 1075 1206 1075 1254 1075 c 0,164,165
 1275 1075 1275 1075 1291 1086.5 c 128,-1,166
 1307 1098 1307 1098 1316 1134 c 0,167,168
 1320 1151 1320 1151 1350.5 1151 c 128,-1,169
 1381 1151 1381 1151 1376 1130 c 0,170,171
 1366 1079 1366 1079 1320.5 1046.5 c 128,-1,172
 1275 1014 1275 1014 1240 1014 c 0,173,174
 1171 1014 1171 1014 1137.5 1052 c 128,-1,175
 1104 1090 1104 1090 1067.5 1136 c 128,-1,176
 1031 1182 1031 1182 976.5 1218 c 128,-1,177
 922 1254 922 1254 805 1254 c 0,178,179
 739 1254 739 1254 659.5 1226.5 c 128,-1,180
 580 1199 580 1199 512 1157.5 c 128,-1,181
 444 1116 444 1116 395.5 1066.5 c 128,-1,182
 347 1017 347 1017 340 971 c 0,183,184
 336 953 336 953 367 945 c 128,-1,185
 398 937 398 937 481 935.5 c 128,-1,186
 564 934 564 934 707.5 935.5 c 128,-1,187
 851 937 851 937 1075 937 c 0,188,189
 1171 946 1171 946 1197.5 882.5 c 128,-1,190
 1224 819 1224 819 1203 736 c 0,108,109
EndSplineSet
Substitution2: "Single Substitution lookup 22 subtable" uni0E10.alt1
Substitution2: "Single Substitution lookup 22 subtable" uni0E10.alt1
EndChar
StartChar: uni0E11
Encoding: 3601 3601 21
Width: 1648
VWidth: 3622
Flags: W
HStem: 706 48<321.674 470.463> 1037 44<420.559 573.777> 1206 59<818.821 947.532> 1220 62<1345.41 1578.69>
VStem: 955.5 59<1032.83 1173.36> 1608 68.5<862.656 1193.35>
Fore
334 964 m 0,0,1
 288 888 288 888 308.5 822.5 c 128,-1,2
 329 757 329 757 428 754 c 0,3,4
 492 750 492 750 533.5 791.5 c 128,-1,5
 575 833 575 833 587 895 c 0,6,7
 616 1029 616 1029 476 1037 c 0,8,9
 437 1040 437 1040 400 1025 c 128,-1,10
 363 1010 363 1010 334 964 c 0,0,1
787 163 m 0,11,12
 854 497 854 497 890 699 c 0,13,14
 914 844 914 844 933 942 c 128,-1,15
 952 1040 952 1040 955.5 1099.5 c 128,-1,16
 959 1159 959 1159 944 1182.5 c 128,-1,17
 929 1206 929 1206 888 1206 c 0,18,19
 835 1203 835 1203 812 1148 c 128,-1,20
 789 1093 789 1093 759 1040 c 1,21,22
 748 1033 748 1033 728 1023.5 c 128,-1,23
 708 1014 708 1014 693 1040 c 1,24,25
 695 1058 695 1058 689 1087 c 128,-1,26
 683 1116 683 1116 666 1143.5 c 128,-1,27
 649 1171 649 1171 621 1192 c 128,-1,28
 593 1213 593 1213 547 1213 c 1,29,30
 493 1203 493 1203 449 1182 c 0,31,32
 412 1162 412 1162 384 1130 c 128,-1,33
 356 1098 356 1098 357 1051 c 1,34,35
 426 1083 426 1083 481 1081 c 128,-1,36
 536 1079 536 1079 575 1058 c 128,-1,37
 614 1037 614 1037 632.5 995 c 128,-1,38
 651 953 651 953 644 902 c 0,39,40
 642 874 642 874 623.5 839.5 c 128,-1,41
 605 805 605 805 573 774 c 128,-1,42
 541 743 541 743 502 724.5 c 128,-1,43
 463 706 463 706 417 706 c 0,44,45
 313 709 313 709 277.5 764 c 128,-1,46
 242 819 242 819 258 927 c 0,47,48
 279 1058 279 1058 358 1161.5 c 128,-1,49
 437 1265 437 1265 566 1272 c 0,50,51
 619 1275 619 1275 671 1235.5 c 128,-1,52
 723 1196 723 1196 736 1109 c 1,53,54
 771 1196 771 1196 811 1230.5 c 128,-1,55
 851 1265 851 1265 900 1265 c 0,56,57
 952 1265 952 1265 982 1241 c 128,-1,58
 1012 1217 1012 1217 1014.5 1146 c 128,-1,59
 1017 1075 1017 1075 996.5 945 c 128,-1,60
 976 815 976 815 929 601 c 1,61,62
 936 623 936 623 958 683 c 128,-1,63
 980 743 980 743 1013.5 819 c 128,-1,64
 1047 895 1047 895 1095.5 976.5 c 128,-1,65
 1144 1058 1144 1058 1205 1127 c 128,-1,66
 1266 1196 1266 1196 1343 1239 c 128,-1,67
 1420 1282 1420 1282 1511 1282 c 0,68,69
 1597 1279 1597 1279 1635 1210 c 128,-1,70
 1673 1141 1673 1141 1676.5 1032 c 128,-1,71
 1680 923 1680 923 1660.5 789.5 c 128,-1,72
 1641 656 1641 656 1610.5 516.5 c 128,-1,73
 1580 377 1580 377 1547 248.5 c 128,-1,74
 1514 120 1514 120 1493 25 c 1,75,76
 1477 0 1477 0 1456.5 -3.5 c 128,-1,77
 1436 -7 1436 -7 1431 25 c 1,78,79
 1468 180 1468 180 1518.5 385.5 c 128,-1,80
 1569 591 1569 591 1596.5 775.5 c 128,-1,81
 1624 960 1624 960 1608 1088.5 c 128,-1,82
 1592 1217 1592 1217 1496 1220 c 0,83,84
 1297 1224 1297 1224 1127 914.5 c 128,-1,85
 957 605 957 605 892.5 316.5 c 128,-1,86
 828 28 828 28 813 17.5 c 128,-1,87
 798 7 798 7 781 7 c 128,-1,88
 764 7 764 7 756 19.5 c 128,-1,89
 748 32 748 32 787 163 c 0,11,12
EndSplineSet
EndChar
StartChar: uni0E12
Encoding: 3602 3602 22
Width: 1912
VWidth: 3622
Flags: W
HStem: 409 47<524.14 730.445> 757 55<582.692 764.139> 1206 66<659.885 815.41 1114.67 1325.3>
VStem: 237 54.5<46.8002 218.415> 884 62<102.673 159 159 245.357> 1348 57.5<965.849 1167.2> 1960 65<1192.76 1228>
Fore
810 612 m 0,0,1
 822 674 822 674 784 715.5 c 128,-1,2
 746 757 746 757 685 757 c 0,3,4
 605 757 605 757 561.5 705 c 128,-1,5
 518 653 518 653 508 605 c 0,6,7
 499 561 499 561 520 508.5 c 128,-1,8
 541 456 541 456 621 456 c 0,9,10
 686 456 686 456 737.5 499.5 c 128,-1,11
 789 543 789 543 810 612 c 0,0,1
1297 667 m 2,12,13
 1312 782 1312 782 1330 880 c 128,-1,14
 1348 978 1348 978 1348 1052.5 c 128,-1,15
 1348 1127 1348 1127 1326 1168.5 c 128,-1,16
 1304 1210 1304 1210 1245 1210 c 0,17,18
 1166 1213 1166 1213 1097.5 1153 c 128,-1,19
 1029 1093 1029 1093 968 946 c 0,20,21
 957 927 957 927 939 927 c 0,22,23
 914 927 914 927 914 950 c 1,24,25
 904 1003 904 1003 894 1048 c 128,-1,26
 884 1093 884 1093 866.5 1129.5 c 128,-1,27
 849 1166 849 1166 818 1186 c 128,-1,28
 787 1206 787 1206 732 1206 c 0,29,30
 683 1206 683 1206 629 1177 c 128,-1,31
 575 1148 575 1148 528 1085 c 128,-1,32
 481 1022 481 1022 440.5 918.5 c 128,-1,33
 400 815 400 815 370 670 c 0,34,35
 340 532 340 532 323 418 c 128,-1,36
 306 304 306 304 297 221 c 128,-1,37
 288 138 288 138 291.5 91 c 128,-1,38
 295 44 295 44 310 44 c 0,39,40
 345 44 345 44 421 96.5 c 128,-1,41
 497 149 497 149 576.5 223 c 128,-1,42
 656 297 656 297 722.5 380 c 128,-1,43
 789 463 789 463 807 529 c 1,44,45
 791 471 791 471 727 440 c 128,-1,46
 663 409 663 409 612 409 c 0,47,48
 550 409 550 409 514 429 c 128,-1,49
 478 449 478 449 463.5 480 c 128,-1,50
 449 511 449 511 446.5 544 c 128,-1,51
 444 577 444 577 448 598 c 0,52,53
 453 619 453 619 470.5 655.5 c 128,-1,54
 488 692 488 692 520 726.5 c 128,-1,55
 552 761 552 761 595.5 786.5 c 128,-1,56
 639 812 639 812 700 812 c 0,57,58
 725 812 725 812 760.5 800.5 c 128,-1,59
 796 789 796 789 825 764 c 128,-1,60
 854 739 854 739 869 694 c 128,-1,61
 884 649 884 649 868 580 c 0,62,63
 844 460 844 460 768 353 c 128,-1,64
 692 246 692 246 601.5 166.5 c 128,-1,65
 511 87 511 87 421 40 c 128,-1,66
 331 -7 331 -7 279 -11 c 256,67,68
 228 -14 228 -14 237 148.5 c 128,-1,69
 246 311 246 311 302 626 c 0,70,71
 338 830 338 830 392 954.5 c 128,-1,72
 446 1079 446 1079 508 1149.5 c 128,-1,73
 570 1220 570 1220 631.5 1246 c 128,-1,74
 693 1272 693 1272 746 1272 c 0,75,76
 867 1272 867 1272 908.5 1197.5 c 128,-1,77
 950 1123 950 1123 952 1017 c 1,78,79
 980 1123 980 1123 1060.5 1199 c 128,-1,80
 1141 1275 1141 1275 1261 1272 c 0,81,82
 1330 1272 1330 1272 1366.5 1235.5 c 128,-1,83
 1403 1199 1403 1199 1405.5 1099 c 128,-1,84
 1408 999 1408 999 1378 819.5 c 128,-1,85
 1348 640 1348 640 1288 352 c 1,86,-1
 1700 65 l 1,87,88
 1707 65 1707 65 1724.5 126 c 128,-1,89
 1742 187 1742 187 1765 289 c 128,-1,90
 1788 391 1788 391 1814.5 515.5 c 128,-1,91
 1841 640 1841 640 1867.5 771 c 128,-1,92
 1894 902 1894 902 1918 1021.5 c 128,-1,93
 1942 1141 1942 1141 1960 1228 c 1,94,95
 1976 1272 1976 1272 1998 1266.5 c 128,-1,96
 2020 1261 2020 1261 2025 1220 c 1,97,98
 2001 1134 2001 1134 1967 976.5 c 128,-1,99
 1933 819 1933 819 1898 646.5 c 128,-1,100
 1863 474 1863 474 1828.5 316.5 c 128,-1,101
 1794 159 1794 159 1771 69 c 0,102,103
 1755 28 1755 28 1738 16 c 128,-1,104
 1721 4 1721 4 1703 0 c 0,105,106
 1682 -4 1682 -4 1659 7 c 1,107,-1
 1275 276 l 1,108,109
 1270 239 1270 239 1262 192 c 128,-1,110
 1254 145 1254 145 1231 105 c 128,-1,111
 1208 65 1208 65 1165.5 34.5 c 128,-1,112
 1123 4 1123 4 1051 0 c 0,113,114
 948 -7 948 -7 912.5 45 c 128,-1,115
 877 97 877 97 884 159 c 0,116,117
 890 203 890 203 916.5 250 c 128,-1,118
 943 297 943 297 988 331.5 c 128,-1,119
 1033 366 1033 366 1093 378.5 c 128,-1,120
 1153 391 1153 391 1229 370 c 1,121,-1
 1297 667 l 2,12,13
1212 301 m 1,122,123
 1171 325 1171 325 1127 325 c 128,-1,124
 1083 325 1083 325 1046.5 304 c 128,-1,125
 1010 283 1010 283 981.5 246.5 c 128,-1,126
 953 210 953 210 946 163 c 0,127,128
 941 124 941 124 960.5 86 c 128,-1,129
 980 48 980 48 1060 48 c 0,130,131
 1143 48 1143 48 1183.5 127.5 c 128,-1,132
 1224 207 1224 207 1212 301 c 1,122,123
EndSplineSet
EndChar
StartChar: uni0E13
Encoding: 3603 3603 23
Width: 1963
VWidth: 3622
Flags: W
HStem: -7 51<389.998 568.919 1612.1 1803.86> 336 48<461.803 615.415> 1238 59<701.341 1007.96>
VStem: 1131 58<672.517 1044.09>
Fore
1663 359 m 1,0,1
 1746 380 1746 380 1800 366 c 128,-1,2
 1854 352 1854 352 1882 315.5 c 128,-1,3
 1910 279 1910 279 1914.5 233 c 128,-1,4
 1919 187 1919 187 1907 149 c 0,5,6
 1887 87 1887 87 1834 33 c 128,-1,7
 1781 -21 1781 -21 1680 -11 c 0,8,9
 1610 -4 1610 -4 1579.5 25.5 c 128,-1,10
 1549 55 1549 55 1544 96.5 c 128,-1,11
 1539 138 1539 138 1550.5 183 c 128,-1,12
 1562 228 1562 228 1572 265 c 1,13,-1
 1051 4 l 2,14,15
 1024 -7 1024 -7 1005 -7 c 0,16,17
 987 -7 987 -7 973 3.5 c 128,-1,18
 959 14 959 14 959 48 c 1,19,-1
 996 221 l 2,20,21
 1014 304 1014 304 1037.5 416.5 c 128,-1,22
 1061 529 1061 529 1095 667 c 0,23,24
 1128 830 1128 830 1131 937 c 128,-1,25
 1134 1044 1134 1044 1104.5 1109 c 128,-1,26
 1075 1174 1075 1174 1010 1202.5 c 128,-1,27
 945 1231 945 1231 849 1238 c 0,28,29
 727 1247 727 1247 630.5 1216 c 128,-1,30
 534 1185 534 1185 466 1139 c 128,-1,31
 398 1093 398 1093 357.5 1039 c 128,-1,32
 317 985 317 985 304 941 c 1,33,-1
 509 854 l 1,34,35
 524 844 524 844 516 791.5 c 128,-1,36
 508 739 508 739 489.5 666.5 c 128,-1,37
 471 594 471 594 442.5 505.5 c 128,-1,38
 414 417 414 417 393 336 c 1,39,40
 410 352 410 352 432 366 c 0,41,42
 472 387 472 387 545 384 c 0,43,44
 603 384 603 384 636 360 c 128,-1,45
 669 336 669 336 684 306 c 128,-1,46
 699 276 699 276 699.5 243 c 128,-1,47
 700 210 700 210 695 187 c 0,48,49
 674 117 674 117 609.5 55 c 128,-1,50
 545 -7 545 -7 444 -7 c 1,51,52
 421 -11 421 -11 389 0 c 128,-1,53
 357 11 357 11 331.5 34.5 c 128,-1,54
 306 58 306 58 292 96 c 128,-1,55
 278 134 278 134 288 187 c 0,56,57
 304 260 304 260 336 365.5 c 128,-1,58
 368 471 368 471 398 569 c 128,-1,59
 428 667 428 667 444 736 c 128,-1,60
 460 805 460 805 451 812 c 1,61,62
 417 830 417 830 379 844 c 128,-1,63
 341 858 341 858 307.5 871 c 128,-1,64
 274 884 274 884 251 896.5 c 128,-1,65
 228 909 228 909 232 927 c 0,66,67
 244 985 244 985 296 1054 c 128,-1,68
 348 1123 348 1123 431.5 1180.5 c 128,-1,69
 515 1238 515 1238 626.5 1272.5 c 128,-1,70
 738 1307 738 1307 865 1297 c 0,71,72
 971 1289 971 1289 1043.5 1254.5 c 128,-1,73
 1116 1220 1116 1220 1152.5 1149.5 c 128,-1,74
 1189 1079 1189 1079 1189 961.5 c 128,-1,75
 1189 844 1189 844 1151 667 c 0,76,77
 1123 550 1123 550 1101 437.5 c 128,-1,78
 1079 325 1079 325 1065 242 c 0,79,80
 1047 142 1047 142 1033 55 c 1,81,-1
 1594 333 l 1,82,-1
 1783 1251 l 1,83,84
 1797 1289 1797 1289 1823.5 1291 c 128,-1,85
 1850 1293 1850 1293 1854 1265 c 1,86,87
 1815 1044 1815 1044 1757.5 808.5 c 128,-1,88
 1700 573 1700 573 1663 359 c 1,0,1
639 196 m 0,89,90
 651 256 651 256 616.5 296 c 128,-1,91
 582 336 582 336 520 336 c 0,92,93
 444 336 444 336 400.5 285.5 c 128,-1,94
 357 235 357 235 347 187 c 0,95,96
 338 145 338 145 360 94.5 c 128,-1,97
 382 44 382 44 458 44 c 0,98,99
 520 44 520 44 570.5 85.5 c 128,-1,100
 621 127 621 127 639 196 c 0,89,90
1647 290 m 1,101,102
 1595 196 1595 196 1601.5 118.5 c 128,-1,103
 1608 41 1608 41 1691 35 c 0,104,105
 1769 32 1769 32 1805 71.5 c 128,-1,106
 1841 111 1841 111 1854 152 c 0,107,108
 1868 200 1868 200 1855.5 236 c 128,-1,109
 1843 272 1843 272 1814.5 293.5 c 128,-1,110
 1786 315 1786 315 1743 315 c 128,-1,111
 1700 315 1700 315 1647 290 c 1,101,102
EndSplineSet
EndChar
StartChar: uni0E14
Encoding: 3604 3604 24
Width: 1445
VWidth: 3622
Flags: W
HStem: 449 48<672.695 869.178> 798 46<748.84 902.779> 1258 65<869.702 1123.1>
VStem: 238.5 73<53.1738 127.5 127.5 451.549>
Fore
991 1258 m 0,0,1
 899 1258 899 1258 804 1218 c 128,-1,2
 709 1178 709 1178 626 1097.5 c 128,-1,3
 543 1017 543 1017 477.5 896 c 128,-1,4
 412 775 412 775 380 619 c 0,5,6
 324 345 324 345 311.5 198 c 128,-1,7
 299 51 299 51 327 51 c 0,8,9
 380 51 380 51 475.5 108.5 c 128,-1,10
 571 166 571 166 668.5 247.5 c 128,-1,11
 766 329 766 329 845.5 418.5 c 128,-1,12
 925 508 925 508 936 570 c 1,13,14
 922 511 922 511 865 480 c 128,-1,15
 808 449 808 449 759 449 c 0,16,17
 699 449 699 449 665 468.5 c 128,-1,18
 631 488 631 488 612.5 519 c 128,-1,19
 594 550 594 550 591.5 583 c 128,-1,20
 589 616 589 616 594 637 c 0,21,22
 600 660 600 660 617.5 694.5 c 128,-1,23
 635 729 635 729 665 763.5 c 128,-1,24
 695 798 695 798 738.5 821 c 128,-1,25
 782 844 782 844 842 844 c 0,26,27
 867 844 867 844 897 833 c 128,-1,28
 927 822 927 822 952.5 795 c 128,-1,29
 978 768 978 768 994 726.5 c 128,-1,30
 1010 685 1010 685 1003 619 c 0,31,32
 994 532 994 532 912.5 425 c 128,-1,33
 831 318 831 318 720.5 222.5 c 128,-1,34
 610 127 610 127 492.5 60 c 128,-1,35
 375 -7 375 -7 297 -11 c 0,36,37
 233 -14 233 -14 238.5 127.5 c 128,-1,38
 244 269 244 269 315 626 c 0,39,40
 356 840 356 840 445 976.5 c 128,-1,41
 534 1113 534 1113 636 1189 c 128,-1,42
 738 1265 738 1265 838.5 1294 c 128,-1,43
 939 1323 939 1323 1003 1323 c 0,44,45
 1061 1323 1061 1323 1151.5 1304.5 c 128,-1,46
 1242 1286 1242 1286 1313.5 1211.5 c 128,-1,47
 1385 1137 1385 1137 1417.5 988.5 c 128,-1,48
 1450 840 1450 840 1404 580 c 2,49,-1
 1288 11 l 1,50,51
 1270 -4 1270 -4 1258 -4 c 0,52,53
 1240 -4 1240 -4 1238 0 c 1,54,-1
 1229 7 l 1,55,-1
 1346 573 l 2,56,57
 1387 768 1387 768 1370 898.5 c 128,-1,58
 1353 1029 1353 1029 1299 1107 c 128,-1,59
 1245 1185 1245 1185 1163 1219.5 c 128,-1,60
 1081 1254 1081 1254 991 1258 c 0,0,1
939 653 m 0,61,62
 952 713 952 713 921.5 755.5 c 128,-1,63
 891 798 891 798 831 798 c 0,64,65
 755 798 755 798 709 745 c 128,-1,66
 663 692 663 692 653 646 c 0,67,68
 644 601 644 601 668.5 549 c 128,-1,69
 693 497 693 497 769 497 c 0,70,71
 833 497 833 497 876.5 540.5 c 128,-1,72
 920 584 920 584 939 653 c 0,61,62
EndSplineSet
EndChar
StartChar: uni0E15
Encoding: 3605 3605 25
Width: 1445
VWidth: 3622
Flags: W
HStem: 409 47<533.511 734.265> 757 55<591.02 767.397> 1251 56<664.237 869.964 1165.8 1357.78>
VStem: 1405.5 67<878.627 1145.57>
Fore
1019 989 m 1,0,1
 1008 971 1008 971 991 971 c 0,2,3
 966 971 966 971 968 992 c 1,4,5
 941 1098 941 1098 895 1174.5 c 128,-1,6
 849 1251 849 1251 746 1251 c 0,7,8
 624 1251 624 1251 529.5 1085.5 c 128,-1,9
 435 920 435 920 384 670 c 0,10,11
 327 394 327 394 304 224.5 c 128,-1,12
 281 55 281 55 327 51 c 0,13,14
 361 48 361 48 434.5 98.5 c 128,-1,15
 508 149 508 149 585 223 c 128,-1,16
 662 297 662 297 726.5 380 c 128,-1,17
 791 463 791 463 808 529 c 1,18,19
 792 471 792 471 730.5 440 c 128,-1,20
 669 409 669 409 619 409 c 0,21,22
 559 409 559 409 523.5 429 c 128,-1,23
 488 449 488 449 475 480 c 128,-1,24
 462 511 462 511 459 544 c 128,-1,25
 456 577 456 577 460 598 c 0,26,27
 465 619 465 619 482 655.5 c 128,-1,28
 499 692 499 692 530 726.5 c 128,-1,29
 561 761 561 761 603.5 786.5 c 128,-1,30
 646 812 646 812 706 812 c 0,31,32
 729 812 729 812 763.5 800.5 c 128,-1,33
 798 789 798 789 826 764 c 128,-1,34
 854 739 854 739 868.5 694 c 128,-1,35
 883 649 883 649 868 580 c 0,36,37
 844 460 844 460 770.5 353 c 128,-1,38
 697 246 697 246 608.5 164.5 c 128,-1,39
 520 83 520 83 432.5 36 c 128,-1,40
 345 -11 345 -11 297 -11 c 0,41,42
 233 -11 233 -11 237 132.5 c 128,-1,43
 241 276 241 276 311 626 c 0,44,45
 357 847 357 847 414 981.5 c 128,-1,46
 471 1116 471 1116 531 1188.5 c 128,-1,47
 591 1261 591 1261 649.5 1284 c 128,-1,48
 708 1307 708 1307 759 1307 c 0,49,50
 876 1307 876 1307 935 1231 c 128,-1,51
 994 1155 994 1155 1001 1061 c 1,52,53
 1038 1159 1038 1159 1117.5 1233 c 128,-1,54
 1197 1307 1197 1307 1300 1307 c 0,55,56
 1344 1307 1344 1307 1386.5 1287.5 c 128,-1,57
 1429 1268 1429 1268 1452 1202.5 c 128,-1,58
 1475 1137 1475 1137 1472.5 1016 c 128,-1,59
 1470 895 1470 895 1429 692 c 2,60,-1
 1415 630 l 1,61,-1
 1288 11 l 1,62,63
 1272 -4 1272 -4 1258 -4 c 0,64,65
 1240 -4 1240 -4 1238 0 c 1,66,-1
 1229 7 l 1,67,-1
 1357 623 l 2,68,69
 1385 754 1385 754 1397.5 868 c 128,-1,70
 1410 982 1410 982 1405.5 1068.5 c 128,-1,71
 1401 1155 1401 1155 1372 1204.5 c 128,-1,72
 1343 1254 1343 1254 1288 1254 c 0,73,74
 1222 1254 1222 1254 1149.5 1195.5 c 128,-1,75
 1077 1137 1077 1137 1019 989 c 1,0,1
812 612 m 0,76,77
 824 674 824 674 787 715.5 c 128,-1,78
 750 757 750 757 690 757 c 0,79,80
 612 757 612 757 570.5 705 c 128,-1,81
 529 653 529 653 518 605 c 0,82,83
 509 561 509 561 529.5 508.5 c 128,-1,84
 550 456 550 456 628 456 c 0,85,86
 692 456 692 456 741.5 499.5 c 128,-1,87
 791 543 791 543 812 612 c 0,76,77
EndSplineSet
EndChar
StartChar: uni0E16
Encoding: 3606 3606 26
Width: 1372
VWidth: 3622
Flags: W
HStem: 4 51<439.029 616.92> 348 46<506.515 664.869> 1261 57<793.594 1218.71>
VStem: 1340 59<835.042 990.5 990.5 1146.4>
Fore
745 200 m 1,0,1
 722 127 722 127 658 65.5 c 128,-1,2
 594 4 594 4 493 4 c 1,3,4
 471 0 471 0 438 10.5 c 128,-1,5
 405 21 405 21 380.5 45 c 128,-1,6
 356 69 356 69 343.5 107 c 128,-1,7
 331 145 331 145 343 200 c 0,8,9
 357 272 357 272 389 380 c 128,-1,10
 421 488 421 488 450 591.5 c 128,-1,11
 479 695 479 695 497 769.5 c 128,-1,12
 515 844 515 844 506 851 c 0,13,14
 474 870 474 870 428 882.5 c 128,-1,15
 382 895 382 895 337 907.5 c 128,-1,16
 292 920 292 920 263.5 930.5 c 128,-1,17
 235 941 235 941 239 960 c 1,18,19
 253 1003 253 1003 302.5 1068.5 c 128,-1,20
 352 1134 352 1134 446.5 1192.5 c 128,-1,21
 541 1251 541 1251 681 1289 c 128,-1,22
 821 1327 821 1327 1015 1318 c 0,23,24
 1219 1311 1219 1311 1305.5 1233 c 128,-1,25
 1392 1155 1392 1155 1399 999.5 c 128,-1,26
 1406 844 1406 844 1351.5 603.5 c 128,-1,27
 1297 363 1297 363 1217 25 c 0,28,29
 1208 0 1208 0 1185 -2.5 c 128,-1,30
 1162 -5 1162 -5 1151 21 c 1,31,32
 1243 373 1243 373 1296.5 610 c 128,-1,33
 1350 847 1350 847 1340 990.5 c 128,-1,34
 1330 1134 1330 1134 1251.5 1196 c 128,-1,35
 1173 1258 1173 1258 999 1261 c 0,36,37
 814 1265 814 1265 687.5 1228.5 c 128,-1,38
 561 1192 561 1192 479.5 1142.5 c 128,-1,39
 398 1093 398 1093 360 1044.5 c 128,-1,40
 322 996 322 996 315 975 c 1,41,-1
 566 895 l 1,42,43
 578 884 578 884 569.5 827.5 c 128,-1,44
 561 771 561 771 540.5 691.5 c 128,-1,45
 520 612 520 612 491.5 520 c 128,-1,46
 463 428 463 428 442 348 c 1,47,48
 460 363 460 363 481 377 c 0,49,50
 522 398 522 398 594 394 c 0,51,52
 653 394 653 394 685.5 371 c 128,-1,53
 718 348 718 348 733 317.5 c 128,-1,54
 748 287 748 287 748 254 c 128,-1,55
 748 221 748 221 745 200 c 1,0,1
688 207 m 0,56,57
 702 269 702 269 666 308.5 c 128,-1,58
 630 348 630 348 570 348 c 0,59,60
 493 348 493 348 450 297 c 128,-1,61
 407 246 407 246 398 200 c 0,62,63
 387 156 387 156 409.5 105.5 c 128,-1,64
 432 55 432 55 508 55 c 0,65,66
 568 55 568 55 618.5 96.5 c 128,-1,67
 669 138 669 138 688 207 c 0,56,57
EndSplineSet
EndChar
StartChar: uni0E17
Encoding: 3607 3607 27
Width: 1469
VWidth: 3622
Flags: W
HStem: 837 62<384.292 646.791> 1279 55<458.818 707.5>
VStem: 1442.5 70<786.447 1004 1004 1143.35>
Fore
741 1072 m 0,0,1
 762 1171 762 1171 719 1223 c 128,-1,2
 676 1275 676 1275 585 1279 c 0,3,4
 504 1282 504 1282 444 1222 c 128,-1,5
 384 1162 384 1162 364.5 1088 c 128,-1,6
 345 1014 345 1014 377.5 954.5 c 128,-1,7
 410 895 410 895 508 899 c 0,8,9
 582 902 582 902 653.5 947 c 128,-1,10
 725 992 725 992 741 1072 c 0,0,1
630 21 m 1,11,12
 607 -4 607 -4 570 0 c 1,13,14
 545 -4 545 -4 528 10.5 c 128,-1,15
 511 25 511 25 527 76 c 2,16,-1
 715 927 l 1,17,18
 658 840 658 840 495 837 c 0,19,20
 373 833 373 833 327 911 c 128,-1,21
 281 989 281 989 299.5 1083.5 c 128,-1,22
 318 1178 318 1178 397 1256 c 128,-1,23
 476 1334 476 1334 594 1334 c 0,24,25
 722 1334 722 1334 770.5 1270 c 128,-1,26
 819 1206 819 1206 808 1093 c 0,27,28
 801 1029 801 1029 781 925.5 c 128,-1,29
 761 822 761 822 735 708 c 128,-1,30
 709 594 709 594 681 478.5 c 128,-1,31
 653 363 653 363 631.5 270 c 128,-1,32
 610 177 610 177 600.5 123 c 128,-1,33
 591 69 591 69 598 73 c 1,34,35
 662 272 662 272 742 462.5 c 128,-1,36
 822 653 822 653 912.5 812 c 128,-1,37
 1003 971 1003 971 1096 1088.5 c 128,-1,38
 1189 1206 1189 1206 1274 1258 c 0,39,40
 1335 1297 1335 1297 1383 1289.5 c 128,-1,41
 1431 1282 1431 1282 1450 1272 c 0,42,43
 1489 1251 1489 1251 1503.5 1182 c 128,-1,44
 1518 1113 1518 1113 1512.5 1011 c 128,-1,45
 1507 909 1507 909 1486 782.5 c 128,-1,46
 1465 656 1465 656 1436.5 521.5 c 128,-1,47
 1408 387 1408 387 1376 257 c 128,-1,48
 1344 127 1344 127 1320 14 c 1,49,50
 1304 4 1304 4 1281 5.5 c 128,-1,51
 1258 7 1258 7 1259 28 c 0,52,53
 1288 196 1288 196 1329.5 376.5 c 128,-1,54
 1371 557 1371 557 1402 719 c 128,-1,55
 1433 881 1433 881 1442.5 1004 c 128,-1,56
 1452 1127 1452 1127 1420 1182 c 0,57,58
 1392 1235 1392 1235 1318 1213 c 1,59,60
 1226 1155 1226 1155 1138.5 1041 c 128,-1,61
 1051 927 1051 927 963.5 771.5 c 128,-1,62
 876 616 876 616 793.5 424 c 128,-1,63
 711 232 711 232 630 21 c 1,11,12
EndSplineSet
EndChar
StartChar: uni0E18
Encoding: 3608 3608 28
Width: 1188
VWidth: 3622
Flags: W
HStem: 14 62<335.305 449.096 449.096 519.515 519.515 652.704 652.704 752.3 752.3 849.809> 801 58.5<411.969 481 481 585.385 585.385 673 673 809.05 809.05 948.449> 971 55<1164.6 1259.59> 1231 62<636.518 981.401>
VStem: 1275 64<1063.59 1111.14>
Fore
971 446 m 0,0,1
 1001 584 1001 584 1008 654.5 c 128,-1,2
 1015 725 1015 725 999 753.5 c 128,-1,3
 983 782 983 782 949.5 785.5 c 128,-1,4
 916 789 916 789 865 789 c 2,5,-1
 481 801 l 2,6,7
 373 805 373 805 332.5 815.5 c 128,-1,8
 292 826 292 826 306 891 c 0,9,10
 317 946 317 946 360 1016 c 128,-1,11
 403 1086 403 1086 471 1148 c 128,-1,12
 539 1210 539 1210 626 1251.5 c 128,-1,13
 713 1293 713 1293 814 1293 c 0,14,15
 948 1293 948 1293 1017 1251.5 c 128,-1,16
 1086 1210 1086 1210 1118.5 1159.5 c 128,-1,17
 1151 1109 1151 1109 1164.5 1067.5 c 128,-1,18
 1178 1026 1178 1026 1206 1026 c 0,19,20
 1243 1026 1243 1026 1254 1045.5 c 128,-1,21
 1265 1065 1265 1065 1275 1093 c 0,22,23
 1286 1130 1286 1130 1313.5 1130 c 128,-1,24
 1341 1130 1341 1130 1339 1102 c 0,25,26
 1332 1054 1332 1054 1292 1012.5 c 128,-1,27
 1252 971 1252 971 1197 971 c 0,28,29
 1139 971 1139 971 1117 1009 c 128,-1,30
 1095 1047 1095 1047 1067.5 1095.5 c 128,-1,31
 1040 1144 1040 1144 983.5 1186 c 128,-1,32
 927 1228 927 1228 799 1231 c 0,33,34
 716 1231 716 1231 642 1195 c 128,-1,35
 568 1159 568 1159 509.5 1105 c 128,-1,36
 451 1051 451 1051 413 994 c 128,-1,37
 375 937 375 937 368 902 c 0,38,39
 363 881 363 881 394 871 c 128,-1,40
 425 861 425 861 495.5 859.5 c 128,-1,41
 566 858 566 858 676.5 859.5 c 128,-1,42
 787 861 787 861 943 858 c 0,43,44
 998 858 998 858 1029.5 849 c 128,-1,45
 1061 840 1061 840 1074.5 802 c 128,-1,46
 1088 764 1088 764 1078 682.5 c 128,-1,47
 1068 601 1068 601 1035 449 c 2,48,-1
 962 104 l 1,49,50
 960 73 960 73 931 47 c 128,-1,51
 902 21 902 21 881 21 c 0,52,53
 746 18 746 18 624 14 c 0,54,55
 520 11 520 11 415 12.5 c 128,-1,56
 310 14 310 14 255 28 c 1,57,-1
 377 587 l 1,58,59
 393 626 393 626 420.5 628 c 128,-1,60
 448 630 448 630 446 591 c 1,61,-1
 334 76 l 1,62,63
 460 69 460 69 563.5 71 c 128,-1,64
 667 73 667 73 741 76 c 0,65,66
 824 80 824 80 891 87 c 1,67,68
 900 111 900 111 904.5 133.5 c 128,-1,69
 909 156 909 156 917 192 c 128,-1,70
 925 228 925 228 937.5 288 c 128,-1,71
 950 348 950 348 971 446 c 0,0,1
EndSplineSet
EndChar
StartChar: uni0E19
Encoding: 3609 3609 29
Width: 1641
VWidth: 3622
Flags: W
HStem: -18 53<1238.04 1431.46> 789 58<365.831 631.504> 1235 51<443.487 691.129>
Fore
531 65 m 1,0,1
 562 279 562 279 604 466 c 128,-1,2
 646 653 646 653 700 881 c 1,3,4
 646 794 646 794 481 789 c 0,5,6
 359 785 359 785 314 863 c 128,-1,7
 269 941 269 941 286.5 1035.5 c 128,-1,8
 304 1130 304 1130 382 1208 c 128,-1,9
 460 1286 460 1286 580 1286 c 0,10,11
 708 1286 708 1286 757.5 1222.5 c 128,-1,12
 807 1159 807 1159 791 1047 c 0,13,14
 784 996 784 996 764.5 902 c 128,-1,15
 745 808 745 808 719 697.5 c 128,-1,16
 693 587 693 587 669.5 475 c 128,-1,17
 646 363 646 363 628 271.5 c 128,-1,18
 610 180 610 180 604 124.5 c 128,-1,19
 598 69 598 69 614 76 c 0,20,21
 734 134 734 134 870 229.5 c 128,-1,22
 1006 325 1006 325 1185 412 c 1,23,24
 1252 695 1252 695 1296.5 902 c 128,-1,25
 1341 1109 1341 1109 1376 1279 c 1,26,27
 1399 1318 1399 1318 1424.5 1300 c 128,-1,28
 1450 1282 1450 1282 1436 1254 c 1,29,30
 1406 1109 1406 1109 1355 905.5 c 128,-1,31
 1304 702 1304 702 1251 421 c 1,32,33
 1385 456 1385 456 1455.5 438.5 c 128,-1,34
 1526 421 1526 421 1555.5 378.5 c 128,-1,35
 1585 336 1585 336 1586 289 c 128,-1,36
 1587 242 1587 242 1581 221 c 0,37,38
 1576 196 1576 196 1558.5 153.5 c 128,-1,39
 1541 111 1541 111 1507 73 c 128,-1,40
 1473 35 1473 35 1423.5 8.5 c 128,-1,41
 1374 -18 1374 -18 1305 -18 c 0,42,43
 1190 -18 1190 -18 1161 84.5 c 128,-1,44
 1132 187 1132 187 1173 352 c 1,45,46
 1072 297 1072 297 997.5 250 c 128,-1,47
 923 203 923 203 859.5 161.5 c 128,-1,48
 796 120 796 120 739.5 84 c 128,-1,49
 683 48 683 48 621 14 c 0,50,51
 594 4 594 4 577 7 c 256,52,53
 559 11 559 11 545 21.5 c 128,-1,54
 531 32 531 32 531 65 c 1,0,1
729 1026 m 0,55,56
 748 1123 748 1123 705 1177 c 128,-1,57
 662 1231 662 1231 573 1235 c 0,58,59
 490 1238 490 1238 427 1177 c 128,-1,60
 364 1116 364 1116 343 1043.5 c 128,-1,61
 322 971 322 971 354 909 c 128,-1,62
 386 847 386 847 493 847 c 0,63,64
 566 847 566 847 638.5 896.5 c 128,-1,65
 711 946 711 946 729 1026 c 0,55,56
1233 352 m 1,66,67
 1192 193 1192 193 1220.5 114 c 128,-1,68
 1249 35 1249 35 1318 35 c 0,69,70
 1401 35 1401 35 1460 97 c 128,-1,71
 1519 159 1519 159 1532 221 c 0,72,73
 1539 253 1539 253 1528.5 293 c 128,-1,74
 1518 333 1518 333 1484 360 c 128,-1,75
 1450 387 1450 387 1390 390.5 c 128,-1,76
 1330 394 1330 394 1233 352 c 1,66,67
EndSplineSet
EndChar
StartChar: uni0E1A
Encoding: 3610 3610 30
Width: 1542
VWidth: 3622
Flags: W
HStem: -2 67<709.138 929.969 929.969 1084.94 1084.94 1177.57 1177.57 1233.09 1233.09 1307 1307 1321> 815 59<472.029 738.798> 1261 50<549.445 799.829>
Fore
681 73 m 1,0,1
 715 65 715 65 818.5 65 c 128,-1,2
 922 65 922 65 1035 65 c 0,3,4
 1164 65 1164 65 1321 69 c 1,5,6
 1358 193 1358 193 1377.5 293.5 c 128,-1,7
 1397 394 1397 394 1421 523.5 c 128,-1,8
 1445 653 1445 653 1467 783 c 128,-1,9
 1489 913 1489 913 1511.5 1034 c 128,-1,10
 1534 1155 1534 1155 1553 1247 c 0,11,12
 1555 1272 1555 1272 1566.5 1284.5 c 128,-1,13
 1578 1297 1578 1297 1594 1298.5 c 128,-1,14
 1610 1300 1610 1300 1617 1286 c 128,-1,15
 1624 1272 1624 1272 1618 1242 c 0,16,17
 1601 1144 1601 1144 1575 981.5 c 128,-1,18
 1549 819 1549 819 1519 643 c 128,-1,19
 1489 467 1489 467 1459 304.5 c 128,-1,20
 1429 142 1429 142 1396 44 c 1,21,22
 1390 7 1390 7 1307 4 c 0,23,24
 1228 0 1228 0 1159.5 -2 c 128,-1,25
 1091 -4 1091 -4 1010 -4 c 128,-1,26
 929 -4 929 -4 850 -2 c 128,-1,27
 771 0 771 0 705 5.5 c 128,-1,28
 639 11 639 11 605 21 c 1,29,30
 647 200 647 200 678 331.5 c 128,-1,31
 709 463 709 463 731.5 565 c 128,-1,32
 754 667 754 667 772.5 748.5 c 128,-1,33
 791 830 791 830 807 906 c 1,34,35
 754 819 754 819 589 815 c 0,36,37
 465 812 465 812 420 890 c 128,-1,38
 375 968 375 968 392.5 1061.5 c 128,-1,39
 410 1155 410 1155 489 1233 c 128,-1,40
 568 1311 568 1311 686 1311 c 0,41,42
 814 1311 814 1311 864 1248 c 128,-1,43
 914 1185 914 1185 897 1072 c 0,44,45
 884 978 884 978 828.5 717 c 128,-1,46
 773 456 773 456 681 73 c 1,0,1
835 1051 m 0,47,48
 854 1148 854 1148 812.5 1203 c 128,-1,49
 771 1258 771 1258 679 1261 c 0,50,51
 596 1265 596 1265 533.5 1203 c 128,-1,52
 471 1141 471 1141 449.5 1068.5 c 128,-1,53
 428 996 428 996 460.5 935 c 128,-1,54
 493 874 493 874 603 874 c 0,55,56
 674 874 674 874 745.5 922.5 c 128,-1,57
 817 971 817 971 835 1051 c 0,47,48
EndSplineSet
EndChar
StartChar: uni0E1B
Encoding: 3611 3611 31
Width: 1434
VWidth: 3622
Flags: W
HStem: -2 67<578 620.146 620.146 665.154 665.154 829.212 829.212 984.458 984.458 1082.02 1082.02 1118.76 1118.76 1229> 815 59<373.113 636.82> 1261 50<448.692 698.588>
Fore
578 73 m 1,0,1
 614 65 614 65 719 65 c 128,-1,2
 824 65 824 65 936 65 c 0,3,4
 1067 65 1067 65 1229 67 c 1,5,6
 1277 290 1277 290 1309 461.5 c 128,-1,7
 1341 633 1341 633 1378 843.5 c 128,-1,8
 1415 1054 1415 1054 1451.5 1256.5 c 128,-1,9
 1488 1459 1488 1459 1517 1628 c 128,-1,10
 1546 1797 1546 1797 1565 1887 c 1,11,12
 1576 1912 1576 1912 1609.5 1910.5 c 128,-1,13
 1643 1909 1643 1909 1638 1884 c 0,14,15
 1624 1818 1624 1818 1598 1675 c 128,-1,16
 1572 1532 1572 1532 1538.5 1351.5 c 128,-1,17
 1505 1171 1505 1171 1467 967.5 c 128,-1,18
 1429 764 1429 764 1396.5 583 c 128,-1,19
 1364 402 1364 402 1336.5 256.5 c 128,-1,20
 1309 111 1309 111 1295 44 c 1,21,22
 1295 4 1295 4 1262 0 c 128,-1,23
 1229 -4 1229 -4 1178 -2 c 128,-1,24
 1127 0 1127 0 1059 -2 c 128,-1,25
 991 -4 991 -4 909.5 -4 c 128,-1,26
 828 -4 828 -4 749 -2 c 128,-1,27
 670 0 670 0 581 0 c 128,-1,28
 492 0 492 0 504 21 c 1,29,30
 547 200 547 200 577.5 331.5 c 128,-1,31
 608 463 608 463 630.5 565 c 128,-1,32
 653 667 653 667 671.5 748.5 c 128,-1,33
 690 830 690 830 706 906 c 1,34,35
 651 819 651 819 486 815 c 0,36,37
 364 812 364 812 319 890 c 128,-1,38
 274 968 274 968 292 1061.5 c 128,-1,39
 310 1155 310 1155 387.5 1233 c 128,-1,40
 465 1311 465 1311 585 1311 c 0,41,42
 713 1311 713 1311 762.5 1248 c 128,-1,43
 812 1185 812 1185 796 1072 c 0,44,45
 784 978 784 978 728 717 c 128,-1,46
 672 456 672 456 578 73 c 1,0,1
734 1051 m 0,47,48
 754 1148 754 1148 711.5 1203 c 128,-1,49
 669 1258 669 1258 578 1261 c 0,50,51
 495 1265 495 1265 432.5 1203 c 128,-1,52
 370 1141 370 1141 348.5 1068.5 c 128,-1,53
 327 996 327 996 360 935 c 128,-1,54
 393 874 393 874 501 874 c 0,55,56
 573 874 573 874 644.5 922.5 c 128,-1,57
 716 971 716 971 734 1051 c 0,47,48
EndSplineSet
EndChar
StartChar: uni0E1C
Encoding: 3612 3612 32
Width: 1268
VWidth: 3622
Flags: W
HStem: 4 83<975.541 1069>
Fore
379 985 m 0,0,1
 403 1134 403 1134 482.5 1226 c 128,-1,2
 562 1318 562 1318 686 1327 c 0,3,4
 794 1334 794 1334 854 1270 c 128,-1,5
 914 1206 914 1206 900 1102 c 0,6,7
 888 992 888 992 807.5 912.5 c 128,-1,8
 727 833 727 833 621 826 c 0,9,10
 547 819 547 819 493 855 c 128,-1,11
 439 891 439 891 430 920 c 1,12,13
 416 837 416 837 387.5 695.5 c 128,-1,14
 359 554 359 554 330 416.5 c 128,-1,15
 301 279 301 279 281.5 181 c 128,-1,16
 262 83 262 83 271 87 c 1,17,18
 384 173 384 173 498 285.5 c 128,-1,19
 612 398 612 398 731 594 c 0,20,21
 741 612 741 612 768.5 614 c 128,-1,22
 796 616 796 616 798 591 c 0,23,24
 810 511 810 511 836.5 422 c 128,-1,25
 863 333 863 333 898.5 258.5 c 128,-1,26
 934 184 934 184 972 135.5 c 128,-1,27
 1010 87 1010 87 1051 87 c 0,28,29
 1065 87 1065 87 1087 181.5 c 128,-1,30
 1109 276 1109 276 1143.5 438.5 c 128,-1,31
 1178 601 1178 601 1222 817 c 128,-1,32
 1266 1033 1266 1033 1325 1275 c 1,33,34
 1339 1311 1339 1311 1366.5 1302 c 128,-1,35
 1394 1293 1394 1293 1390 1265 c 0,36,37
 1277 746 1277 746 1211.5 445.5 c 128,-1,38
 1146 145 1146 145 1111 58 c 0,39,40
 1102 30 1102 30 1078 17 c 128,-1,41
 1054 4 1054 4 1040 4 c 0,42,43
 968 7 968 7 875 130 c 128,-1,44
 782 253 782 253 741 493 c 1,45,46
 709 425 709 425 640 340.5 c 128,-1,47
 571 256 571 256 493.5 182 c 128,-1,48
 416 108 416 108 344 56 c 128,-1,49
 272 4 272 4 232 4 c 0,50,51
 203 4 203 4 199 36.5 c 128,-1,52
 195 69 195 69 213.5 172.5 c 128,-1,53
 232 276 232 276 272.5 469.5 c 128,-1,54
 313 663 313 663 379 985 c 0,0,1
467 1058 m 0,55,56
 456 978 456 978 504 926 c 128,-1,57
 552 874 552 874 628 881 c 0,58,59
 702 888 702 888 763 945.5 c 128,-1,60
 824 1003 824 1003 837 1093 c 0,61,62
 849 1185 849 1185 799.5 1228.5 c 128,-1,63
 750 1272 750 1272 676 1265 c 0,64,65
 578 1258 578 1258 527 1196 c 128,-1,66
 476 1134 476 1134 467 1058 c 0,55,56
EndSplineSet
EndChar
StartChar: uni0E1D
Encoding: 3613 3613 33
Width: 1278
VWidth: 3622
Flags: W
Fore
379 985 m 0,0,1
 403 1134 403 1134 482.5 1226 c 128,-1,2
 562 1318 562 1318 686 1327 c 0,3,4
 794 1334 794 1334 854 1270 c 128,-1,5
 914 1206 914 1206 900 1102 c 0,6,7
 888 992 888 992 807.5 912.5 c 128,-1,8
 727 833 727 833 621 826 c 0,9,10
 547 819 547 819 493 855 c 128,-1,11
 439 891 439 891 430 920 c 1,12,13
 421 865 421 865 405 780 c 128,-1,14
 389 695 389 695 369.5 601.5 c 128,-1,15
 350 508 350 508 331.5 415 c 128,-1,16
 313 322 313 322 299 246 c 128,-1,17
 285 170 285 170 277 125 c 128,-1,18
 269 80 269 80 272 83 c 1,19,20
 394 156 394 156 501 277 c 128,-1,21
 608 398 608 398 727 594 c 0,22,23
 738 612 738 612 765 614 c 128,-1,24
 792 616 792 616 794 591 c 0,25,26
 807 511 807 511 841.5 414.5 c 128,-1,27
 876 318 876 318 914.5 238.5 c 128,-1,28
 953 159 953 159 983.5 110.5 c 128,-1,29
 1014 62 1014 62 1038 80 c 1,30,31
 1047 90 1047 90 1074.5 184.5 c 128,-1,32
 1102 279 1102 279 1137.5 428 c 128,-1,33
 1173 577 1173 577 1216 767 c 128,-1,34
 1259 957 1259 957 1303.5 1156 c 128,-1,35
 1348 1355 1348 1355 1392 1552 c 128,-1,36
 1436 1749 1436 1749 1472 1916 c 1,37,38
 1486 1953 1486 1953 1511.5 1944 c 128,-1,39
 1537 1935 1537 1935 1534 1905 c 0,40,41
 1512 1801 1512 1801 1479.5 1648.5 c 128,-1,42
 1447 1496 1447 1496 1411.5 1320 c 128,-1,43
 1376 1144 1376 1144 1334.5 957.5 c 128,-1,44
 1293 771 1293 771 1254 603 c 128,-1,45
 1215 435 1215 435 1177 297 c 128,-1,46
 1139 159 1139 159 1109 80 c 0,47,48
 1097 51 1097 51 1074 27.5 c 128,-1,49
 1051 4 1051 4 1007.5 2 c 128,-1,50
 964 0 964 0 871 126.5 c 128,-1,51
 778 253 778 253 738 493 c 1,52,53
 706 425 706 425 638.5 339 c 128,-1,54
 571 253 571 253 493.5 178.5 c 128,-1,55
 416 104 416 104 346 52 c 128,-1,56
 276 0 276 0 235 0 c 0,57,58
 207 0 207 0 201.5 32.5 c 128,-1,59
 196 65 196 65 214 170.5 c 128,-1,60
 232 276 232 276 272.5 469.5 c 128,-1,61
 313 663 313 663 379 985 c 0,0,1
467 1058 m 0,62,63
 456 978 456 978 504 926 c 128,-1,64
 552 874 552 874 628 881 c 0,65,66
 702 888 702 888 763 945.5 c 128,-1,67
 824 1003 824 1003 837 1093 c 0,68,69
 849 1185 849 1185 799.5 1228.5 c 128,-1,70
 750 1272 750 1272 676 1265 c 0,71,72
 578 1258 578 1258 527 1196 c 128,-1,73
 476 1134 476 1134 467 1058 c 0,62,63
EndSplineSet
EndChar
StartChar: uni0E1E
Encoding: 3614 3614 34
Width: 1507
VWidth: 3622
Flags: W
HStem: 7 83<1195.73 1273.2> 815 55<379.867 611.876> 1254 60<439.094 688.847>
Fore
1228 7 m 0,0,1
 1189 7 1189 7 1160.5 59 c 128,-1,2
 1132 111 1132 111 1110 202.5 c 128,-1,3
 1088 294 1088 294 1074 415 c 128,-1,4
 1060 536 1060 536 1052 677 c 1,5,6
 998 536 998 536 928 413 c 128,-1,7
 858 290 858 290 790 200.5 c 128,-1,8
 722 111 722 111 663.5 59 c 128,-1,9
 605 7 605 7 573 7 c 0,10,11
 539 7 539 7 536.5 45 c 128,-1,12
 534 83 534 83 554.5 186.5 c 128,-1,13
 575 290 575 290 614 473 c 128,-1,14
 653 656 653 656 704 946 c 1,15,16
 674 877 674 877 609.5 846 c 128,-1,17
 545 815 545 815 472 815 c 0,18,19
 368 815 368 815 312 886 c 128,-1,20
 256 957 256 957 279 1065 c 0,21,22
 302 1171 302 1171 383.5 1242.5 c 128,-1,23
 465 1314 465 1314 571 1314 c 0,24,25
 716 1314 716 1314 763 1244 c 128,-1,26
 810 1174 810 1174 785 999 c 0,27,28
 769 891 769 891 738.5 737.5 c 128,-1,29
 708 584 708 584 677.5 444 c 128,-1,30
 647 304 647 304 628.5 207.5 c 128,-1,31
 610 111 610 111 621 111 c 1,32,33
 640 117 640 117 699.5 194.5 c 128,-1,34
 759 272 759 272 829 382.5 c 128,-1,35
 899 493 899 493 957 612.5 c 128,-1,36
 1015 732 1015 732 1044 819 c 0,37,38
 1056 847 1056 847 1084.5 847 c 128,-1,39
 1113 847 1113 847 1114 822 c 0,40,41
 1116 736 1116 736 1122 610.5 c 128,-1,42
 1128 485 1128 485 1143.5 369 c 128,-1,43
 1159 253 1159 253 1182.5 171.5 c 128,-1,44
 1206 90 1206 90 1238 90 c 0,45,46
 1259 90 1259 90 1295.5 186.5 c 128,-1,47
 1332 283 1332 283 1375.5 445.5 c 128,-1,48
 1419 608 1419 608 1468.5 826 c 128,-1,49
 1518 1044 1518 1044 1569 1282 c 1,50,51
 1580 1300 1580 1300 1603.5 1300 c 128,-1,52
 1627 1300 1627 1300 1634 1282 c 1,53,54
 1496 656 1496 656 1404 333.5 c 128,-1,55
 1312 11 1312 11 1228 7 c 0,0,1
713 1061 m 0,56,57
 729 1137 729 1137 698 1195.5 c 128,-1,58
 667 1254 667 1254 570 1254 c 0,59,60
 497 1254 497 1254 432.5 1204.5 c 128,-1,61
 368 1155 368 1155 348 1065 c 0,62,63
 329 971 329 971 374 920.5 c 128,-1,64
 419 870 419 870 492 870 c 0,65,66
 568 870 568 870 630 926 c 128,-1,67
 692 982 692 982 713 1061 c 0,56,57
EndSplineSet
EndChar
StartChar: uni0E1F
Encoding: 3615 3615 35
Width: 1499
VWidth: 3622
Flags: W
HStem: 11 106<570.5 651.225> 822 59<377.039 610.885> 1265 62<434.514 684.925>
VStem: 1663 65<1780.85 1979.3>
Fore
1252 11 m 0,0,1
 1199 7 1199 7 1163 63.5 c 128,-1,2
 1127 120 1127 120 1099.5 215.5 c 128,-1,3
 1072 311 1072 311 1058 440.5 c 128,-1,4
 1044 570 1044 570 1037 706 c 1,5,6
 980 564 980 564 915.5 439.5 c 128,-1,7
 851 315 851 315 789 219.5 c 128,-1,8
 727 124 727 124 674 67.5 c 128,-1,9
 621 11 621 11 589 11 c 0,10,11
 552 11 552 11 547.5 57.5 c 128,-1,12
 543 104 543 104 561.5 214.5 c 128,-1,13
 580 325 580 325 618 505 c 128,-1,14
 656 685 656 685 709 953 c 1,15,16
 676 888 676 888 611.5 855 c 128,-1,17
 547 822 547 822 478 822 c 0,18,19
 373 822 373 822 316.5 895 c 128,-1,20
 260 968 260 968 283 1075 c 0,21,22
 304 1182 304 1182 386.5 1254.5 c 128,-1,23
 469 1327 469 1327 578 1327 c 0,24,25
 720 1327 720 1327 767.5 1256 c 128,-1,26
 815 1185 815 1185 787 1010 c 0,27,28
 766 899 766 899 733 745 c 128,-1,29
 700 591 700 591 674.5 451 c 128,-1,30
 649 311 649 311 636 214 c 128,-1,31
 623 117 623 117 640 117 c 256,32,33
 658 117 658 117 711 198 c 128,-1,34
 764 279 764 279 827 395 c 128,-1,35
 890 511 890 511 947.5 636 c 128,-1,36
 1005 761 1005 761 1029 847 c 0,37,38
 1045 884 1045 884 1074.5 884 c 128,-1,39
 1104 884 1104 884 1104 854 c 0,40,41
 1100 768 1100 768 1109 639.5 c 128,-1,42
 1118 511 1118 511 1136.5 391.5 c 128,-1,43
 1155 272 1155 272 1182.5 186.5 c 128,-1,44
 1210 101 1210 101 1245 101 c 0,45,46
 1256 101 1256 101 1287 195.5 c 128,-1,47
 1318 290 1318 290 1357.5 444 c 128,-1,48
 1397 598 1397 598 1442.5 793.5 c 128,-1,49
 1488 989 1488 989 1530 1194 c 128,-1,50
 1572 1399 1572 1399 1606.5 1596.5 c 128,-1,51
 1641 1794 1641 1794 1663 1946 c 0,52,53
 1672 1981 1672 1981 1700 1975.5 c 128,-1,54
 1728 1970 1728 1970 1728 1949 c 0,55,56
 1712 1804 1712 1804 1679.5 1607 c 128,-1,57
 1647 1410 1647 1410 1604.5 1196 c 128,-1,58
 1562 982 1562 982 1513.5 769.5 c 128,-1,59
 1465 557 1465 557 1419 391 c 128,-1,60
 1373 225 1373 225 1328.5 119.5 c 128,-1,61
 1284 14 1284 14 1252 11 c 0,0,1
708 1072 m 0,62,63
 723 1148 723 1148 694 1206.5 c 128,-1,64
 665 1265 665 1265 568 1265 c 0,65,66
 492 1265 492 1265 428 1215.5 c 128,-1,67
 364 1166 364 1166 345 1075 c 0,68,69
 324 982 324 982 370.5 931.5 c 128,-1,70
 417 881 417 881 490 881 c 256,71,72
 562 881 562 881 624 935 c 128,-1,73
 686 989 686 989 708 1072 c 0,62,63
EndSplineSet
EndChar
StartChar: uni0E20
Encoding: 3616 3616 36
Width: 1386
VWidth: 3622
Flags: W
HStem: 341 50<259.513 382.823> 1272 58<740.326 1253.39>
VStem: 1352.5 73<695.547 971 971 1174.81>
Fore
465 318 m 1,0,1
 527 547 527 547 548.5 695.5 c 128,-1,2
 570 844 570 844 557 851 c 0,3,4
 525 870 525 870 480 882.5 c 128,-1,5
 435 895 435 895 396 907.5 c 128,-1,6
 357 920 357 920 330.5 930.5 c 128,-1,7
 304 941 304 941 308 960 c 0,8,9
 320 1003 320 1003 368.5 1068.5 c 128,-1,10
 417 1134 417 1134 507.5 1194 c 128,-1,11
 598 1254 598 1254 736 1294 c 128,-1,12
 874 1334 874 1334 1067 1330 c 0,13,14
 1272 1323 1272 1323 1350.5 1247 c 128,-1,15
 1429 1171 1429 1171 1425.5 1011 c 128,-1,16
 1422 851 1422 851 1361 607 c 128,-1,17
 1300 363 1300 363 1228 25 c 1,18,19
 1213 0 1213 0 1201 -3.5 c 128,-1,20
 1189 -7 1189 -7 1180 -2 c 0,21,22
 1169 5 1169 5 1159 21 c 1,23,24
 1231 348 1231 348 1289.5 583.5 c 128,-1,25
 1348 819 1348 819 1352.5 971 c 128,-1,26
 1357 1123 1357 1123 1291.5 1197.5 c 128,-1,27
 1226 1272 1226 1272 1051 1272 c 0,28,29
 860 1272 860 1272 734 1234 c 128,-1,30
 608 1196 608 1196 532 1144.5 c 128,-1,31
 456 1093 456 1093 423.5 1044.5 c 128,-1,32
 391 996 391 996 384 975 c 1,33,-1
 624 895 l 2,34,35
 640 888 640 888 627 793.5 c 128,-1,36
 614 699 614 699 591 579.5 c 128,-1,37
 568 460 568 460 538 344 c 128,-1,38
 508 228 508 228 492 173 c 0,39,40
 478 120 478 120 443.5 85.5 c 128,-1,41
 409 51 409 51 374.5 27.5 c 128,-1,42
 340 4 340 4 294 0 c 128,-1,43
 248 -4 248 -4 225 0 c 0,44,45
 131 7 131 7 95.5 65.5 c 128,-1,46
 60 124 60 124 83 207 c 0,47,48
 88 228 88 228 106 262.5 c 128,-1,49
 124 297 124 297 153 326.5 c 128,-1,50
 182 356 182 356 224.5 375 c 128,-1,51
 267 394 267 394 327 391 c 0,52,53
 368 391 368 391 395.5 380.5 c 128,-1,54
 423 370 423 370 437 356 c 2,55,56
 456 341 456 341 465 318 c 1,0,1
138 214 m 0,57,58
 120 145 120 145 148.5 100 c 128,-1,59
 177 55 177 55 237 48 c 0,60,61
 311 41 311 41 358 87.5 c 128,-1,62
 405 134 405 134 421 177 c 0,63,64
 437 225 437 225 419.5 279 c 128,-1,65
 402 333 402 333 329 341 c 0,66,67
 269 348 269 348 214 312 c 128,-1,68
 159 276 159 276 138 214 c 0,57,58
EndSplineSet
EndChar
StartChar: uni0E21
Encoding: 3617 3617 37
Width: 1282
VWidth: 3622
Flags: W
HStem: 794 50<391.647 654.981> 1242 47<466.685 720.041>
Fore
598 341 m 1,0,1
 534 384 534 384 467 394.5 c 128,-1,2
 400 405 400 405 343.5 385.5 c 128,-1,3
 287 366 287 366 246 319 c 128,-1,4
 205 272 205 272 195 203 c 0,5,6
 187 170 187 170 191 137 c 128,-1,7
 195 104 195 104 215 79.5 c 128,-1,8
 235 55 235 55 271.5 40 c 128,-1,9
 308 25 308 25 371 28 c 0,10,11
 474 35 474 35 522 107.5 c 128,-1,12
 570 180 570 180 598 341 c 1,0,1
727 884 m 1,13,14
 672 798 672 798 509 794 c 0,15,16
 384 789 384 789 339 867.5 c 128,-1,17
 294 946 294 946 312.5 1040 c 128,-1,18
 331 1134 331 1134 408.5 1211.5 c 128,-1,19
 486 1289 486 1289 605 1289 c 0,20,21
 732 1289 732 1289 788.5 1222 c 128,-1,22
 845 1155 845 1155 830 1044 c 2,23,-1
 667 394 l 1,24,25
 784 297 784 297 868.5 214 c 128,-1,26
 953 131 953 131 1060 48 c 0,27,28
 1068 41 1068 41 1085 103.5 c 128,-1,29
 1102 166 1102 166 1126 269.5 c 128,-1,30
 1150 373 1150 373 1178 505 c 128,-1,31
 1206 637 1206 637 1232.5 769.5 c 128,-1,32
 1259 902 1259 902 1282 1019.5 c 128,-1,33
 1305 1137 1305 1137 1323 1217 c 2,34,35
 1325 1242 1325 1242 1336.5 1255 c 128,-1,36
 1348 1268 1348 1268 1361 1268 c 128,-1,37
 1374 1268 1374 1268 1385 1253 c 128,-1,38
 1396 1238 1396 1238 1394 1210 c 1,39,40
 1367 1123 1367 1123 1333.5 964 c 128,-1,41
 1300 805 1300 805 1263 630.5 c 128,-1,42
 1226 456 1226 456 1190.5 297 c 128,-1,43
 1155 138 1155 138 1132 48 c 1,44,45
 1118 14 1118 14 1099.5 3.5 c 128,-1,46
 1081 -7 1081 -7 1061 -11 c 0,47,48
 1040 -14 1040 -14 1015 -4 c 1,49,50
 923 69 923 69 840 159 c 128,-1,51
 757 249 757 249 653 333 c 1,52,53
 623 170 623 170 558 79.5 c 128,-1,54
 493 -11 493 -11 361 -18 c 0,55,56
 288 -21 288 -21 243 -3.5 c 128,-1,57
 198 14 198 14 174 45 c 128,-1,58
 150 76 150 76 144 117.5 c 128,-1,59
 138 159 138 159 143 203 c 0,60,61
 147 253 147 253 184 309.5 c 128,-1,62
 221 366 221 366 280.5 404 c 128,-1,63
 340 442 340 442 422 447.5 c 128,-1,64
 504 453 504 453 603 402 c 1,65,-1
 727 884 l 1,13,14
761 1029 m 0,66,67
 782 1127 782 1127 736 1182.5 c 128,-1,68
 690 1238 690 1238 600 1242 c 0,69,70
 516 1247 516 1247 452.5 1185 c 128,-1,71
 389 1123 389 1123 368 1047 c 128,-1,72
 347 971 347 971 378.5 907.5 c 128,-1,73
 410 844 410 844 520 844 c 0,74,75
 591 844 591 844 668 897 c 128,-1,76
 745 950 745 950 761 1029 c 0,66,67
EndSplineSet
EndChar
StartChar: uni0E22
Encoding: 3618 3618 38
Width: 1261
VWidth: 3622
Flags: W
HStem: 0 48<530.962 732.754> 594 59<478 572.515 572.515 644.673> 861 52<502.88 751.467> 1279 55<557.624 808.814>
Fore
442 633 m 1,0,1
 391 637 391 637 370.5 675 c 128,-1,2
 350 713 350 713 346.5 767.5 c 128,-1,3
 343 822 343 822 353.5 887.5 c 128,-1,4
 364 953 364 953 375 1006 c 0,5,6
 386 1051 386 1051 407 1108.5 c 128,-1,7
 428 1166 428 1166 466 1217 c 128,-1,8
 504 1268 504 1268 564 1301 c 128,-1,9
 624 1334 624 1334 711 1334 c 0,10,11
 831 1330 831 1330 868.5 1256 c 128,-1,12
 906 1182 906 1182 888 1098 c 0,13,14
 868 1003 868 1003 795 932 c 128,-1,15
 722 861 722 861 617 861 c 0,16,17
 545 861 545 861 498 888.5 c 128,-1,18
 451 916 451 916 417 975 c 1,19,20
 405 920 405 920 398 860.5 c 128,-1,21
 391 801 391 801 398 751.5 c 128,-1,22
 405 702 405 702 438.5 674 c 128,-1,23
 472 646 472 646 547 653 c 2,24,25
 573 649 573 649 598 653 c 2,26,27
 619 653 619 653 645.5 656.5 c 128,-1,28
 672 660 672 660 695 667 c 1,29,30
 702 626 702 626 669 612 c 1,31,32
 653 601 653 601 635 601 c 2,33,-1
 478 594 l 1,34,35
 398 543 398 543 359 491 c 128,-1,36
 320 439 320 439 297 333 c 0,37,38
 281 253 281 253 309.5 199 c 128,-1,39
 338 145 338 145 391 112.5 c 128,-1,40
 444 80 444 80 508.5 64 c 128,-1,41
 573 48 573 48 628 48 c 0,42,43
 697 48 697 48 777.5 60.5 c 128,-1,44
 858 73 858 73 931.5 109 c 128,-1,45
 1005 145 1005 145 1059.5 208.5 c 128,-1,46
 1114 272 1114 272 1136 370 c 2,47,-1
 1201 681 l 2,48,49
 1242 870 1242 870 1277 1038 c 128,-1,50
 1312 1206 1312 1206 1332 1311 c 0,51,52
 1337 1334 1337 1334 1368 1334 c 128,-1,53
 1399 1334 1399 1334 1394 1314 c 2,54,-1
 1194 373 l 2,55,56
 1167 260 1167 260 1110.5 188.5 c 128,-1,57
 1054 117 1054 117 973.5 74.5 c 128,-1,58
 893 32 893 32 796 16 c 128,-1,59
 699 0 699 0 587 0 c 0,60,61
 529 0 529 0 460 17.5 c 128,-1,62
 391 35 391 35 336 76 c 128,-1,63
 281 117 281 117 252 178 c 128,-1,64
 223 239 223 239 246 325 c 0,65,66
 276 453 276 453 323 522 c 128,-1,67
 370 591 370 591 442 633 c 1,0,1
460 1093 m 0,68,69
 444 1003 444 1003 501.5 958 c 128,-1,70
 559 913 559 913 624 913 c 0,71,72
 704 913 704 913 760.5 965 c 128,-1,73
 817 1017 817 1017 833 1093 c 0,74,75
 847 1162 847 1162 818 1220.5 c 128,-1,76
 789 1279 789 1279 695 1279 c 0,77,78
 607 1279 607 1279 547.5 1235.5 c 128,-1,79
 488 1192 488 1192 460 1093 c 0,68,69
EndSplineSet
EndChar
StartChar: uni0E23
Encoding: 3619 3619 39
Width: 1261
VWidth: 3622
Flags: W
HStem: 4 54<558.014 732.041> 366 59<579.589 802.283> 789 53<350.005 498.839 498.839 711.2 711.2 837.716> 957 53<1162.87 1263.72> 1217 62<604.4 957.419>
VStem: 1279 64<1043 1096.86>
Fore
906 228 m 2,0,1
 891 163 891 163 861 119.5 c 128,-1,2
 831 76 831 76 792.5 50.5 c 128,-1,3
 754 25 754 25 714 14.5 c 128,-1,4
 674 4 674 4 637 4 c 0,5,6
 587 4 587 4 548 24 c 128,-1,7
 509 44 509 44 486 74 c 128,-1,8
 463 104 463 104 454.5 142 c 128,-1,9
 446 180 446 180 455 218 c 0,10,11
 469 290 469 290 540.5 357.5 c 128,-1,12
 612 425 612 425 713 425 c 0,13,14
 778 425 778 425 827 388.5 c 128,-1,15
 876 352 876 352 879 290 c 1,16,17
 891 341 891 341 903.5 411 c 128,-1,18
 916 481 916 481 925 522 c 0,19,20
 945 612 945 612 945.5 665 c 128,-1,21
 946 718 946 718 922.5 744.5 c 128,-1,22
 899 771 899 771 849 780 c 128,-1,23
 799 789 799 789 720 789 c 2,24,-1
 426 785 l 2,25,26
 318 785 318 785 277.5 798.5 c 128,-1,27
 237 812 237 812 251 877 c 0,28,29
 262 930 262 930 309.5 1001 c 128,-1,30
 357 1072 357 1072 429.5 1134 c 128,-1,31
 502 1196 502 1196 592.5 1237.5 c 128,-1,32
 683 1279 683 1279 785 1279 c 0,33,34
 920 1279 920 1279 992.5 1237.5 c 128,-1,35
 1065 1196 1065 1196 1104.5 1144.5 c 128,-1,36
 1144 1093 1144 1093 1163 1051.5 c 128,-1,37
 1182 1010 1182 1010 1210 1010 c 0,38,39
 1247 1010 1247 1010 1258.5 1030.5 c 128,-1,40
 1270 1051 1270 1051 1279 1079 c 0,41,42
 1291 1116 1291 1116 1318.5 1116 c 128,-1,43
 1346 1116 1346 1116 1343 1086 c 0,44,45
 1335 1040 1335 1040 1295.5 998.5 c 128,-1,46
 1256 957 1256 957 1201 957 c 0,47,48
 1143 957 1143 957 1118 995 c 128,-1,49
 1093 1033 1093 1033 1057 1081.5 c 128,-1,50
 1021 1130 1021 1130 959 1171.5 c 128,-1,51
 897 1213 897 1213 773 1217 c 0,52,53
 690 1217 690 1217 611 1180.5 c 128,-1,54
 532 1144 532 1144 467.5 1090.5 c 128,-1,55
 403 1037 403 1037 362.5 980 c 128,-1,56
 322 923 322 923 315 888 c 0,57,58
 310 865 310 865 333 854.5 c 128,-1,59
 356 844 356 844 417 842 c 128,-1,60
 478 840 478 840 582 842 c 128,-1,61
 686 844 686 844 842 844 c 0,62,63
 964 844 964 844 986 762.5 c 128,-1,64
 1008 681 1008 681 983 564 c 2,65,-1
 906 228 l 2,0,1
639 58 m 0,66,67
 718 58 718 58 766.5 103.5 c 128,-1,68
 815 149 815 149 830 228 c 0,69,70
 837 279 837 279 802.5 322.5 c 128,-1,71
 768 366 768 366 702 366 c 0,72,73
 630 366 630 366 579.5 322.5 c 128,-1,74
 529 279 529 279 516 218 c 0,75,76
 501 149 501 149 533.5 103.5 c 128,-1,77
 566 58 566 58 639 58 c 0,66,67
EndSplineSet
EndChar
StartChar: uni0E24
Encoding: 3620 3620 40
Width: 1379
VWidth: 3622
Flags: W
HStem: 0 51<426.998 603.981> 345 46<495.516 652.415>
VStem: 1324 67.5<573.309 860.5 860.5 1129.01>
Fore
732 196 m 0,0,1
 709 124 709 124 646.5 62 c 128,-1,2
 584 0 584 0 481 0 c 1,3,4
 458 -4 458 -4 426 7 c 128,-1,5
 394 18 394 18 366 41.5 c 128,-1,6
 338 65 338 65 325.5 103.5 c 128,-1,7
 313 142 313 142 324 196 c 0,8,9
 343 269 343 269 376.5 377 c 128,-1,10
 410 485 410 485 440.5 586.5 c 128,-1,11
 471 688 471 688 492 762.5 c 128,-1,12
 513 837 513 837 502 840 c 1,13,14
 472 858 472 858 423.5 873 c 128,-1,15
 375 888 375 888 332.5 898.5 c 128,-1,16
 290 909 290 909 261 919.5 c 128,-1,17
 232 930 232 930 237 950 c 0,18,19
 246 992 246 992 306 1061 c 128,-1,20
 366 1130 366 1130 466 1192 c 128,-1,21
 566 1254 566 1254 705 1294 c 128,-1,22
 844 1334 844 1334 1015 1318 c 0,23,24
 1151 1307 1151 1307 1234.5 1269 c 128,-1,25
 1318 1231 1318 1231 1357 1148 c 128,-1,26
 1396 1065 1396 1065 1391.5 925 c 128,-1,27
 1387 785 1387 785 1347 566.5 c 128,-1,28
 1307 348 1307 348 1237 41.5 c 128,-1,29
 1167 -265 1167 -265 1072 -677 c 0,30,31
 1058 -729 1058 -729 1028.5 -730.5 c 128,-1,32
 999 -732 999 -732 1006 -681 c 0,33,34
 1144 -97 1144 -97 1229 274.5 c 128,-1,35
 1314 646 1314 646 1324 860.5 c 128,-1,36
 1334 1075 1334 1075 1256 1163 c 128,-1,37
 1178 1251 1178 1251 992 1261 c 0,38,39
 830 1272 830 1272 708.5 1237.5 c 128,-1,40
 587 1203 587 1203 503 1150.5 c 128,-1,41
 419 1098 419 1098 373 1045 c 128,-1,42
 327 992 327 992 313 968 c 1,43,-1
 564 884 l 1,44,45
 577 874 577 874 566 819 c 128,-1,46
 555 764 555 764 533 684.5 c 128,-1,47
 511 605 511 605 482 515 c 128,-1,48
 453 425 453 425 432 345 c 1,49,50
 435 348 435 348 473 373 c 128,-1,51
 511 398 511 398 582 391 c 0,52,53
 639 391 639 391 672.5 368 c 128,-1,54
 706 345 706 345 722 314 c 128,-1,55
 738 283 738 283 738 250.5 c 128,-1,56
 738 218 738 218 732 196 c 0,0,1
676 203 m 0,57,58
 688 265 688 265 653.5 305 c 128,-1,59
 619 345 619 345 557 345 c 0,60,61
 481 345 481 345 438.5 293.5 c 128,-1,62
 396 242 396 242 386 196 c 0,63,64
 377 152 377 152 398 101.5 c 128,-1,65
 419 51 419 51 495 51 c 0,66,67
 557 51 557 51 605.5 92.5 c 128,-1,68
 654 134 654 134 676 203 c 0,57,58
EndSplineSet
EndChar
StartChar: uni0E25
Encoding: 3621 3621 41
Width: 1438
VWidth: 3622
Flags: W
HStem: 0 55<400.961 623.492> 18 76<1191.44 1244.21> 352 60<489.676 659.724> 771 55<756.762 974.484> 1279 62<809.969 1170.05>
VStem: 315 60<687.703 1015.92>
Fore
322 173 m 0,0,1
 336 283 336 283 379.5 399 c 128,-1,2
 423 515 423 515 494.5 608.5 c 128,-1,3
 566 702 566 702 659 764 c 128,-1,4
 752 826 752 826 860 826 c 0,5,6
 957 826 957 826 1018 772 c 128,-1,7
 1079 718 1079 718 1111 636 c 128,-1,8
 1143 554 1143 554 1156 460 c 128,-1,9
 1169 366 1169 366 1176 284.5 c 128,-1,10
 1183 203 1183 203 1190 148.5 c 128,-1,11
 1197 94 1197 94 1219 94 c 0,12,13
 1236 94 1236 94 1273.5 235.5 c 128,-1,14
 1311 377 1311 377 1366 649 c 0,15,16
 1401 833 1401 833 1377 952.5 c 128,-1,17
 1353 1072 1353 1072 1296.5 1144.5 c 128,-1,18
 1240 1217 1240 1217 1157.5 1246 c 128,-1,19
 1075 1275 1075 1275 996 1279 c 0,20,21
 900 1279 900 1279 810 1251.5 c 128,-1,22
 720 1224 720 1224 638.5 1158.5 c 128,-1,23
 557 1093 557 1093 491 983.5 c 128,-1,24
 425 874 425 874 375 709 c 0,25,26
 366 685 366 685 336 681 c 128,-1,27
 306 677 306 677 315 706 c 0,28,29
 366 895 366 895 444 1018 c 128,-1,30
 522 1141 522 1141 613 1211.5 c 128,-1,31
 704 1282 704 1282 804 1311.5 c 128,-1,32
 904 1341 904 1341 1003 1341 c 0,33,34
 1100 1341 1100 1341 1194 1308 c 128,-1,35
 1288 1275 1288 1275 1355 1195.5 c 128,-1,36
 1422 1116 1422 1116 1446 985 c 128,-1,37
 1470 854 1470 854 1429 660 c 0,38,39
 1419 612 1419 612 1397.5 505 c 128,-1,40
 1376 398 1376 398 1348 289 c 128,-1,41
 1320 180 1320 180 1287 99 c 128,-1,42
 1254 18 1254 18 1213 18 c 0,43,44
 1174 18 1174 18 1153 72.5 c 128,-1,45
 1132 127 1132 127 1120.5 212 c 128,-1,46
 1109 297 1109 297 1097.5 395 c 128,-1,47
 1086 493 1086 493 1060.5 576.5 c 128,-1,48
 1035 660 1035 660 986 715.5 c 128,-1,49
 937 771 937 771 854 771 c 0,50,51
 826 771 826 771 767.5 753.5 c 128,-1,52
 709 736 709 736 644.5 686.5 c 128,-1,53
 580 637 580 637 517.5 555.5 c 128,-1,54
 455 474 455 474 417 345 c 1,55,56
 448 384 448 384 497.5 398 c 128,-1,57
 547 412 547 412 587 412 c 0,58,59
 640 412 640 412 675.5 391 c 128,-1,60
 711 370 711 370 729.5 337 c 128,-1,61
 748 304 748 304 751 268 c 128,-1,62
 754 232 754 232 748 207 c 0,63,64
 725 94 725 94 647.5 47 c 128,-1,65
 570 0 570 0 501 0 c 0,66,67
 425 0 425 0 363.5 48.5 c 128,-1,68
 302 97 302 97 322 173 c 0,0,1
380 210 m 0,69,70
 364 138 364 138 401.5 96.5 c 128,-1,71
 439 55 439 55 511 55 c 0,72,73
 571 55 571 55 627 102 c 128,-1,74
 683 149 683 149 697 210 c 0,75,76
 704 249 704 249 681 300.5 c 128,-1,77
 658 352 658 352 571 352 c 0,78,79
 509 352 509 352 451.5 314 c 128,-1,80
 394 276 394 276 380 210 c 0,69,70
EndSplineSet
EndChar
StartChar: uni0E26
Encoding: 3622 3622 42
Width: 1376
VWidth: 3622
Flags: W
HStem: 345 46<257.006 378.963> 1272 58<895.367 1245.75>
VStem: 1008 66<-692.706 -623.617> 1346 61<863 1012.5 1012.5 1171.78>
Fore
465 318 m 1,0,1
 527 547 527 547 548.5 695.5 c 128,-1,2
 570 844 570 844 557 851 c 0,3,4
 525 870 525 870 480 882.5 c 128,-1,5
 435 895 435 895 396 907.5 c 128,-1,6
 357 920 357 920 332.5 930.5 c 128,-1,7
 308 941 308 941 311 960 c 0,8,9
 324 1003 324 1003 384 1070 c 128,-1,10
 444 1137 444 1137 544 1197.5 c 128,-1,11
 644 1258 644 1258 775 1297.5 c 128,-1,12
 906 1337 906 1337 1067 1330 c 0,13,14
 1240 1323 1240 1323 1317 1257.5 c 128,-1,15
 1394 1192 1394 1192 1407 1061 c 128,-1,16
 1420 930 1420 930 1382 733 c 128,-1,17
 1344 536 1344 536 1282 265 c 0,18,19
 1279 246 1279 246 1263 171.5 c 128,-1,20
 1247 97 1247 97 1226 -2 c 128,-1,21
 1205 -101 1205 -101 1179 -215 c 128,-1,22
 1153 -329 1153 -329 1132 -430.5 c 128,-1,23
 1111 -532 1111 -532 1095 -606.5 c 128,-1,24
 1079 -681 1079 -681 1074 -702 c 1,25,26
 1056 -722 1056 -722 1045 -722 c 256,27,28
 1035 -722 1035 -722 1022 -713 c 1,29,-1
 1008 -706 l 1,30,31
 1010 -692 1010 -692 1025 -623 c 128,-1,32
 1040 -554 1040 -554 1060.5 -460 c 128,-1,33
 1081 -366 1081 -366 1105.5 -257.5 c 128,-1,34
 1130 -149 1130 -149 1150.5 -52.5 c 128,-1,35
 1171 44 1171 44 1185 110.5 c 128,-1,36
 1199 177 1199 177 1203 193 c 0,37,38
 1265 474 1265 474 1308 677.5 c 128,-1,39
 1351 881 1351 881 1346 1012.5 c 128,-1,40
 1341 1144 1341 1144 1272 1208 c 128,-1,41
 1203 1272 1203 1272 1051 1272 c 0,42,43
 891 1272 891 1272 771 1234 c 128,-1,44
 651 1196 651 1196 568 1144.5 c 128,-1,45
 485 1093 485 1093 439.5 1044.5 c 128,-1,46
 394 996 394 996 387 975 c 1,47,-1
 617 895 l 2,48,49
 633 888 633 888 618 793.5 c 128,-1,50
 603 699 603 699 578.5 579.5 c 128,-1,51
 554 460 554 460 522 344 c 128,-1,52
 490 228 490 228 474 173 c 0,53,54
 460 120 460 120 427 85.5 c 128,-1,55
 394 51 394 51 357 31 c 128,-1,56
 320 11 320 11 284 3.5 c 128,-1,57
 248 -4 248 -4 225 0 c 0,58,59
 131 7 131 7 95.5 65.5 c 128,-1,60
 60 124 60 124 83 207 c 0,61,62
 88 228 88 228 106 262.5 c 128,-1,63
 124 297 124 297 153 326.5 c 128,-1,64
 182 356 182 356 224.5 375 c 128,-1,65
 267 394 267 394 327 391 c 0,66,67
 368 391 368 391 395.5 380.5 c 128,-1,68
 423 370 423 370 437 356 c 2,69,70
 456 341 456 341 465 318 c 1,0,1
136 218 m 0,71,72
 117 149 117 149 146 103.5 c 128,-1,73
 175 58 175 58 235 51 c 0,74,75
 310 44 310 44 356 91 c 128,-1,76
 402 138 402 138 417 180 c 0,77,78
 435 228 435 228 417.5 282 c 128,-1,79
 400 336 400 336 325 345 c 0,80,81
 267 352 267 352 211.5 315.5 c 128,-1,82
 156 279 156 279 136 218 c 0,71,72
EndSplineSet
EndChar
StartChar: uni0E27
Encoding: 3623 3623 43
Width: 1043
VWidth: 3622
Flags: W
HStem: 345 53<694.907 808.469> 1297 58<522.663 928.224>
VStem: 235 60<895.083 1130.83>
Fore
929 193 m 2,0,1
 914 142 914 142 877 99 c 0,2,3
 847 67 847 67 823 46 c 128,-1,4
 799 25 799 25 774.5 13.5 c 128,-1,5
 750 2 750 2 721 -1.5 c 128,-1,6
 692 -5 692 -5 651 -4 c 0,7,8
 555 4 555 4 518 63 c 128,-1,9
 481 122 481 122 502 207 c 0,10,11
 508 230 508 230 526.5 264.5 c 128,-1,12
 545 299 545 299 576.5 329 c 128,-1,13
 608 359 608 359 653.5 380.5 c 128,-1,14
 699 402 699 402 757 398 c 0,15,16
 796 398 796 398 822.5 385.5 c 128,-1,17
 849 373 849 373 865 359 c 0,18,19
 874 350 874 350 882 340.5 c 128,-1,20
 890 331 890 331 893 318 c 1,21,-1
 966 626 l 2,22,23
 1005 785 1005 785 1028 909 c 128,-1,24
 1051 1033 1051 1033 1035 1118 c 128,-1,25
 1019 1203 1019 1203 951 1248 c 128,-1,26
 883 1293 883 1293 738 1297 c 0,27,28
 548 1300 548 1300 444 1196 c 256,29,30
 340 1091 340 1091 295 923 c 0,31,32
 288 895 288 895 258 890 c 0,33,34
 232 884 232 884 235 920 c 0,35,36
 274 1128 274 1128 404 1241.5 c 128,-1,37
 534 1355 534 1355 743 1355 c 0,38,39
 858 1355 858 1355 930.5 1331 c 128,-1,40
 1003 1307 1003 1307 1043 1260 c 128,-1,41
 1083 1213 1083 1213 1094.5 1148 c 128,-1,42
 1106 1083 1106 1083 1098.5 1001.5 c 128,-1,43
 1091 920 1091 920 1071 825.5 c 128,-1,44
 1051 731 1051 731 1028 626 c 2,45,-1
 929 193 l 2,0,1
564 218 m 0,46,47
 545 149 545 149 574 103.5 c 128,-1,48
 603 58 603 58 663 51 c 0,49,50
 736 44 736 44 789 90 c 0,51,52
 840 140 840 140 856 180 c 0,53,54
 874 228 874 228 851 281 c 0,55,56
 826 338 826 338 754 345 c 0,57,58
 723 348 723 348 694 340.5 c 128,-1,59
 665 333 665 333 639.5 316 c 128,-1,60
 614 299 614 299 594.5 274 c 128,-1,61
 575 249 575 249 564 218 c 0,46,47
EndSplineSet
EndChar
StartChar: uni0E28
Encoding: 3624 3624 44
Width: 1448
VWidth: 3622
Flags: W
HStem: 11 21G<141.5 163> 432 46<621.818 813.958> 775 47<742.663 904.765> 1275 59<753.552 1134.42>
VStem: 1804 53<1647.72 1873>
Fore
1857 1873 m 1,0,1
 1852 1763 1852 1763 1821 1644 c 128,-1,2
 1790 1525 1790 1525 1735 1409 c 128,-1,3
 1680 1293 1680 1293 1601.5 1188 c 128,-1,4
 1523 1083 1523 1083 1422 999 c 1,5,6
 1433 943 1433 943 1430 875 c 128,-1,7
 1427 807 1427 807 1416.5 729 c 128,-1,8
 1406 651 1406 651 1389.5 566 c 128,-1,9
 1373 481 1373 481 1355 394 c 0,10,11
 1344 343 1344 343 1331 284.5 c 128,-1,12
 1318 226 1318 226 1305.5 173 c 128,-1,13
 1293 120 1293 120 1280.5 78.5 c 128,-1,14
 1268 37 1268 37 1261 21 c 0,15,16
 1245 -9 1245 -9 1224 0 c 1,17,18
 1213 2 1213 2 1208 11 c 1,19,-1
 1298 417 l 2,20,21
 1330 568 1330 568 1351 720 c 0,22,23
 1373 874 1373 874 1344 991 c 0,24,25
 1330 1051 1330 1051 1302.5 1102 c 128,-1,26
 1275 1153 1275 1153 1228.5 1190.5 c 128,-1,27
 1182 1228 1182 1228 1113 1250 c 128,-1,28
 1044 1272 1044 1272 948 1275 c 0,29,30
 851 1275 851 1275 747.5 1227.5 c 128,-1,31
 644 1180 644 1180 552 1089.5 c 128,-1,32
 460 999 460 999 387.5 869 c 128,-1,33
 315 739 315 739 278 577 c 0,34,35
 272 552 272 552 261.5 506 c 128,-1,36
 251 460 251 460 238.5 405 c 128,-1,37
 226 350 226 350 213 292.5 c 128,-1,38
 200 235 200 235 192 188.5 c 128,-1,39
 184 142 184 142 181.5 111.5 c 128,-1,40
 179 81 179 81 186 83 c 0,41,42
 203 85 203 85 229.5 113.5 c 128,-1,43
 256 142 256 142 288 185 c 128,-1,44
 320 228 320 228 353 281 c 128,-1,45
 386 334 386 334 416 387 c 128,-1,46
 446 440 446 440 469.5 487 c 128,-1,47
 493 534 493 534 506 564 c 0,48,49
 566 702 566 702 635 764 c 128,-1,50
 704 826 704 826 807 822 c 0,51,52
 899 819 899 819 942 768.5 c 128,-1,53
 985 718 985 718 968 633 c 0,54,55
 950 557 950 557 881 493 c 0,56,57
 810 432 810 432 720 432 c 0,58,59
 665 432 665 432 617.5 460 c 128,-1,60
 570 488 570 488 555 536 c 1,61,62
 474 377 474 377 412 275 c 128,-1,63
 350 173 350 173 301.5 114 c 128,-1,64
 253 55 253 55 216 33 c 128,-1,65
 179 11 179 11 147 11 c 0,66,67
 136 11 136 11 131 29.5 c 128,-1,68
 126 48 126 48 130 103.5 c 128,-1,69
 134 159 134 159 152 262.5 c 128,-1,70
 170 366 170 366 207 536 c 0,71,72
 288 923 288 923 490 1130 c 0,73,74
 692 1334 692 1334 960 1334 c 0,75,76
 1081 1334 1081 1334 1160.5 1304.5 c 128,-1,77
 1240 1275 1240 1275 1290.5 1232 c 128,-1,78
 1341 1189 1341 1189 1366.5 1139.5 c 128,-1,79
 1392 1090 1392 1090 1403 1047 c 1,80,81
 1585 1213 1585 1213 1685 1423 c 128,-1,82
 1785 1633 1785 1633 1804 1873 c 1,83,84
 1811 1894 1811 1894 1829 1892.5 c 128,-1,85
 1847 1891 1847 1891 1857 1873 c 1,0,1
605 633 m 0,86,87
 587 554 587 554 623.5 516 c 128,-1,88
 660 478 660 478 734 478 c 0,89,90
 766 478 766 478 795 490 c 128,-1,91
 824 502 824 502 849 523.5 c 128,-1,92
 874 545 874 545 892.5 573 c 128,-1,93
 911 601 911 601 920 633 c 0,94,95
 934 685 934 685 907 729 c 0,96,97
 883 775 883 775 794 775 c 0,98,99
 764 775 764 775 733 765 c 128,-1,100
 702 755 702 755 675.5 736.5 c 128,-1,101
 649 718 649 718 629.5 691.5 c 128,-1,102
 610 665 610 665 605 633 c 0,86,87
EndSplineSet
EndChar
StartChar: uni0E29
Encoding: 3625 3625 45
Width: 1528
VWidth: 3622
Flags: W
HStem: 1.5 63.5<605.508 807.969 807.969 1081.05 1081.05 1094.58 1094.58 1206 1220 1238.61> 470.5 58.5<1029.05 1091.5 1097.5 1166.87 1166.87 1179.53 1179.53 1301.33> 815 59<396.029 662.695> 840 51<993.002 1115.3> 1261 50<473.062 723.829>
VStem: 1182 47<659.785 736 736 816.273> 1477 62<1202.27 1274.95> 1603 58<720.146 889.323>
Fore
601 73 m 1,0,1
 635 65 635 65 735 65 c 128,-1,2
 835 65 835 65 943 65 c 0,3,4
 1067 65 1067 65 1220 69 c 0,5,6
 1228 69 1228 69 1244.5 131 c 128,-1,7
 1261 193 1261 193 1284 293.5 c 128,-1,8
 1307 394 1307 394 1332.5 523.5 c 128,-1,9
 1358 653 1358 653 1384 783 c 128,-1,10
 1410 913 1410 913 1433.5 1034 c 128,-1,11
 1457 1155 1457 1155 1477 1247 c 0,12,13
 1479 1272 1479 1272 1490.5 1284.5 c 128,-1,14
 1502 1297 1502 1297 1516 1298.5 c 128,-1,15
 1530 1300 1530 1300 1537 1286 c 128,-1,16
 1544 1272 1544 1272 1539 1242 c 0,17,18
 1521 1144 1521 1144 1492 981.5 c 128,-1,19
 1463 819 1463 819 1429.5 643 c 128,-1,20
 1396 467 1396 467 1361.5 304.5 c 128,-1,21
 1327 142 1327 142 1295 44 c 1,22,23
 1289 7 1289 7 1206 4 c 0,24,25
 1038 -4 1038 -4 922.5 -4 c 128,-1,26
 807 -4 807 -4 693.5 1.5 c 128,-1,27
 580 7 580 7 529 21 c 1,28,29
 571 200 571 200 602 331.5 c 128,-1,30
 633 463 633 463 655 565 c 128,-1,31
 677 667 677 667 696 748.5 c 128,-1,32
 715 830 715 830 731 906 c 1,33,34
 677 819 677 819 513 815 c 0,35,36
 389 812 389 812 344 890 c 128,-1,37
 299 968 299 968 316.5 1061.5 c 128,-1,38
 334 1155 334 1155 413 1233 c 128,-1,39
 492 1311 492 1311 610 1311 c 0,40,41
 738 1311 738 1311 788 1248 c 128,-1,42
 838 1185 838 1185 821 1072 c 0,43,44
 808 978 808 978 750.5 717 c 128,-1,45
 693 456 693 456 601 73 c 1,0,1
759 1051 m 0,46,47
 778 1148 778 1148 736.5 1203 c 128,-1,48
 695 1258 695 1258 603 1261 c 0,49,50
 520 1265 520 1265 457 1203 c 128,-1,51
 394 1141 394 1141 373 1068.5 c 128,-1,52
 352 996 352 996 384.5 935 c 128,-1,53
 417 874 417 874 527 874 c 0,54,55
 598 874 598 874 669.5 922.5 c 128,-1,56
 741 971 741 971 759 1051 c 0,46,47
1075 577 m 0,57,58
 1035 564 1035 564 1015 573 c 1,59,60
 1003 577 1003 577 1001 584 c 1,61,62
 1029 550 1029 550 1097.5 529 c 128,-1,63
 1166 508 1166 508 1238 515 c 0,64,65
 1295 518 1295 518 1349.5 532.5 c 128,-1,66
 1404 547 1404 547 1453.5 583 c 128,-1,67
 1503 619 1503 619 1541.5 686.5 c 128,-1,68
 1580 754 1580 754 1603 858 c 1,69,70
 1601 884 1601 884 1634.5 889.5 c 128,-1,71
 1668 895 1668 895 1661 858 c 0,72,73
 1580 478 1580 478 1228 460 c 0,74,75
 1157 456 1157 456 1091.5 470.5 c 128,-1,76
 1026 485 1026 485 977.5 519.5 c 128,-1,77
 929 554 929 554 906 607 c 128,-1,78
 883 660 883 660 899 736 c 0,79,80
 914 808 914 808 973.5 849.5 c 128,-1,81
 1033 891 1033 891 1084 891 c 0,82,83
 1157 899 1157 899 1197.5 852 c 128,-1,84
 1238 805 1238 805 1229 743 c 0,85,86
 1222 692 1222 692 1180.5 645 c 128,-1,87
 1139 598 1139 598 1075 577 c 0,57,58
1065 840 m 0,88,89
 1024 840 1024 840 992 812.5 c 128,-1,90
 960 785 960 785 950 736 c 0,91,92
 934 663 934 663 966.5 637.5 c 128,-1,93
 999 612 999 612 1024 612 c 0,94,95
 1083 612 1083 612 1129.5 652 c 128,-1,96
 1176 692 1176 692 1182 736 c 0,97,98
 1190 794 1190 794 1152 817 c 128,-1,99
 1114 840 1114 840 1065 840 c 0,88,89
EndSplineSet
EndChar
StartChar: uni0E2A
Encoding: 3626 3626 46
Width: 1538
VWidth: 3622
Flags: W
HStem: 0 62<481.207 697.557> 18 83<1248.86 1296.36> 359 62<599.228 749.029> 775 58<828.35 1038.12> 1289 59<960.53 1140.13>
VStem: 1423 80.5<760.611 799 799 899.846 899.846 988.348>
Fore
405 180 m 0,0,1
 414 276 414 276 456.5 390 c 128,-1,2
 499 504 499 504 567 602 c 128,-1,3
 635 700 635 700 726 766.5 c 128,-1,4
 817 833 817 833 927 833 c 0,5,6
 1022 833 1022 833 1079.5 779 c 128,-1,7
 1137 725 1137 725 1169 643.5 c 128,-1,8
 1201 562 1201 562 1213.5 466.5 c 128,-1,9
 1226 371 1226 371 1233 290 c 128,-1,10
 1240 209 1240 209 1247 155 c 128,-1,11
 1254 101 1254 101 1275 101 c 0,12,13
 1284 101 1284 101 1295.5 139 c 128,-1,14
 1307 177 1307 177 1321 236 c 128,-1,15
 1335 295 1335 295 1351 367.5 c 128,-1,16
 1367 440 1367 440 1383 508 c 0,17,18
 1417 676 1417 676 1423 799 c 128,-1,19
 1429 922 1429 922 1413 1007.5 c 128,-1,20
 1397 1093 1397 1093 1362 1147 c 128,-1,21
 1327 1201 1327 1201 1280 1231 c 128,-1,22
 1233 1261 1233 1261 1176.5 1273.5 c 128,-1,23
 1120 1286 1120 1286 1061 1289 c 0,24,25
 971 1289 971 1289 878 1268 c 128,-1,26
 785 1247 785 1247 700.5 1188.5 c 128,-1,27
 616 1130 616 1130 541.5 1028.5 c 128,-1,28
 467 927 467 927 414 768 c 0,29,30
 407 750 407 750 395.5 744.5 c 128,-1,31
 384 739 384 739 373 739 c 0,32,33
 343 739 343 739 348 764 c 0,34,35
 386 934 386 934 467 1046.5 c 128,-1,36
 548 1159 548 1159 649 1226 c 128,-1,37
 750 1293 750 1293 859.5 1320.5 c 128,-1,38
 969 1348 969 1348 1063 1348 c 0,39,40
 1106 1348 1106 1348 1151.5 1341.5 c 128,-1,41
 1197 1335 1197 1335 1242.5 1320 c 128,-1,42
 1288 1305 1288 1305 1329.5 1281.5 c 128,-1,43
 1371 1258 1371 1258 1404 1224 c 1,44,45
 1516 1261 1516 1261 1604 1358 c 0,46,47
 1696 1457 1696 1457 1765 1558 c 0,48,49
 1847 1680 1847 1680 1909 1815 c 0,50,51
 1935 1870 1935 1870 1962 1870 c 0,52,53
 1990 1870 1990 1870 1969 1804 c 0,54,55
 1912 1664 1912 1664 1834 1542 c 0,56,57
 1801 1491 1801 1491 1759.5 1438 c 128,-1,58
 1718 1385 1718 1385 1668 1330 c 0,59,60
 1571 1226 1571 1226 1440 1174 c 1,61,62
 1491 1102 1491 1102 1502 964 c 0,63,64
 1507 895 1507 895 1503.5 836 c 128,-1,65
 1500 777 1500 777 1490 718.5 c 128,-1,66
 1480 660 1480 660 1466 596 c 128,-1,67
 1452 532 1452 532 1438 456 c 0,68,69
 1424 386 1424 386 1405.5 308 c 128,-1,70
 1387 230 1387 230 1365.5 165.5 c 128,-1,71
 1344 101 1344 101 1319.5 59.5 c 128,-1,72
 1295 18 1295 18 1268 18 c 0,73,74
 1228 18 1228 18 1208.5 74.5 c 128,-1,75
 1189 131 1189 131 1178 215 c 128,-1,76
 1167 299 1167 299 1155.5 397 c 128,-1,77
 1144 495 1144 495 1119.5 579 c 128,-1,78
 1095 663 1095 663 1049 719 c 128,-1,79
 1003 775 1003 775 922 775 c 0,80,81
 893 775 893 775 840 758 c 128,-1,82
 787 741 787 741 726 694 c 128,-1,83
 665 647 665 647 603 565 c 128,-1,84
 541 483 541 483 497 352 c 1,85,86
 525 391 525 391 574 406 c 128,-1,87
 623 421 623 421 662 421 c 0,88,89
 716 421 716 421 750 398 c 128,-1,90
 784 375 784 375 800.5 343 c 128,-1,91
 817 311 817 311 820.5 276 c 128,-1,92
 824 241 824 241 819 214 c 0,93,94
 794 99 794 99 718 50 c 256,95,96
 642 0 642 0 575 0 c 0,97,98
 501 0 501 0 444 39 c 0,99,100
 386 78 386 78 405 180 c 0,0,1
462 218 m 0,101,102
 448 143 448 143 482 102.5 c 128,-1,103
 516 62 516 62 587 62 c 0,104,105
 646 62 646 62 700 108 c 0,106,107
 754 156 754 156 768 218 c 0,108,109
 775 256 775 256 752 308 c 0,110,111
 731 359 731 359 646 359 c 0,112,113
 616 359 616 359 586.5 349.5 c 128,-1,114
 557 340 557 340 531.5 321 c 128,-1,115
 506 302 506 302 487.5 275.5 c 128,-1,116
 469 249 469 249 462 218 c 0,101,102
EndSplineSet
EndChar
StartChar: uni0E2B
Encoding: 3627 3627 47
Width: 1452
VWidth: 3622
Flags: W
HStem: 764 55<394.165 545.609> 805 56<1252 1284.51> 1272 51<1226.1 1441.11>
VStem: 270 62.5<921.555 966 966 1040.15> 425 67<55 58 58 78.6329 78.6329 122>
Fore
1153 798 m 1,0,1
 1044 849 1044 849 1028 927 c 0,2,3
 1015 1006 1015 1006 1028 1072 c 0,4,5
 1052 1176 1052 1176 1132 1249 c 0,6,7
 1213 1323 1213 1323 1341 1323 c 0,8,9
 1445 1318 1445 1318 1501.5 1253.5 c 128,-1,10
 1558 1189 1558 1189 1535 1079 c 0,11,12
 1526 1038 1526 1038 1507 989.5 c 128,-1,13
 1488 941 1488 941 1454 900.5 c 128,-1,14
 1420 860 1420 860 1370.5 832.5 c 128,-1,15
 1321 805 1321 805 1252 805 c 1,16,17
 1300 720 1300 720 1307 618 c 128,-1,18
 1314 516 1314 516 1300 410 c 128,-1,19
 1286 304 1286 304 1259.5 200.5 c 128,-1,20
 1233 97 1233 97 1215 11 c 1,21,22
 1201 -4 1201 -4 1182.5 -9 c 128,-1,23
 1164 -14 1164 -14 1157 11 c 1,24,25
 1233 336 1233 336 1249.5 514 c 128,-1,26
 1266 692 1266 692 1194 746 c 1,27,28
 1143 699 1143 699 1083.5 630 c 128,-1,29
 1024 561 1024 561 962 485 c 128,-1,30
 900 409 900 409 839 332 c 128,-1,31
 778 255 778 255 721.5 188.5 c 128,-1,32
 665 122 665 122 615.5 73.5 c 128,-1,33
 566 25 566 25 529 7 c 0,34,35
 508 0 508 0 488.5 -2 c 128,-1,36
 469 -4 469 -4 454 0.5 c 128,-1,37
 439 5 439 5 431 19.5 c 128,-1,38
 423 34 423 34 425 58 c 1,39,40
 456 161 456 161 482.5 238 c 128,-1,41
 509 315 509 315 531.5 375 c 128,-1,42
 554 435 554 435 573.5 485.5 c 128,-1,43
 593 536 593 536 613 588 c 128,-1,44
 633 640 633 640 655 698.5 c 128,-1,45
 677 757 677 757 706 833 c 1,46,47
 679 807 679 807 653.5 793.5 c 128,-1,48
 628 780 628 780 601.5 774.5 c 128,-1,49
 575 769 575 769 546.5 767.5 c 128,-1,50
 518 766 518 766 486 764 c 0,51,52
 402 761 402 761 355 791 c 128,-1,53
 308 821 308 821 288.5 867 c 128,-1,54
 269 913 269 913 270 966 c 128,-1,55
 271 1019 271 1019 279 1061 c 0,56,57
 287 1100 287 1100 312.5 1144.5 c 128,-1,58
 338 1189 338 1189 381.5 1226 c 128,-1,59
 425 1263 425 1263 487.5 1287 c 128,-1,60
 550 1311 550 1311 633 1307 c 0,61,62
 672 1304 672 1304 711 1285 c 128,-1,63
 750 1266 750 1266 779 1232.5 c 128,-1,64
 808 1199 808 1199 822.5 1148.5 c 128,-1,65
 837 1098 837 1098 826 1029 c 0,66,67
 815 968 815 968 784.5 873 c 128,-1,68
 754 778 754 778 715 673 c 128,-1,69
 676 568 676 568 634.5 462 c 128,-1,70
 593 356 593 356 559 268 c 128,-1,71
 525 180 525 180 505.5 122 c 128,-1,72
 486 64 486 64 492 55 c 0,73,74
 497 44 497 44 570 124 c 0,75,76
 644 203 644 203 745 320 c 2,77,-1
 957 570 l 2,78,79
 1068 702 1068 702 1153 798 c 1,0,1
502 819 m 0,80,81
 626 819 626 819 679 879 c 256,82,83
 732 939 732 939 759 1040 c 0,84,85
 766 1074 766 1074 763.5 1109 c 128,-1,86
 761 1144 761 1144 746 1175 c 128,-1,87
 731 1206 731 1206 701.5 1226.5 c 128,-1,88
 672 1247 672 1247 628 1251 c 0,89,90
 568 1254 568 1254 520 1238 c 128,-1,91
 472 1222 472 1222 436 1194 c 128,-1,92
 400 1166 400 1166 378 1130.5 c 128,-1,93
 356 1095 356 1095 345 1061 c 0,94,95
 336 1033 336 1033 332.5 991.5 c 128,-1,96
 329 950 329 950 342.5 912 c 128,-1,97
 356 874 356 874 393 846.5 c 128,-1,98
 430 819 430 819 502 819 c 0,80,81
1086 1075 m 0,99,100
 1075 1033 1075 1033 1079 994 c 128,-1,101
 1083 955 1083 955 1098.5 926 c 128,-1,102
 1114 897 1114 897 1142.5 879 c 128,-1,103
 1171 861 1171 861 1208 861 c 0,104,105
 1258 861 1258 861 1303 872 c 128,-1,106
 1348 883 1348 883 1382.5 908.5 c 128,-1,107
 1417 934 1417 934 1441.5 976.5 c 128,-1,108
 1466 1019 1466 1019 1477 1083 c 0,109,110
 1488 1162 1488 1162 1450.5 1217 c 128,-1,111
 1413 1272 1413 1272 1323 1272 c 0,112,113
 1275 1272 1275 1272 1235.5 1255 c 128,-1,114
 1196 1238 1196 1238 1166 1210.5 c 128,-1,115
 1136 1183 1136 1183 1116.5 1148 c 128,-1,116
 1097 1113 1097 1113 1086 1075 c 0,99,100
EndSplineSet
EndChar
StartChar: uni0E2C
Encoding: 3628 3628 48
Width: 1659
VWidth: 3622
Flags: W
HStem: 11 86<589.578 662.529> 822 59<406.627 612.436> 1148 65<1311.4 1434.12> 1265 62<506.113 681.715> 1486 56<1402.53 1541.22>
VStem: 1562 67<1358 1419.14>
Fore
1245 87 m 0,0,1
 1259 87 1259 87 1293 179.5 c 128,-1,2
 1327 272 1327 272 1368.5 426 c 128,-1,3
 1410 580 1410 580 1453 779 c 128,-1,4
 1496 978 1496 978 1530 1189 c 1,5,6
 1489 1169 1489 1169 1450.5 1156 c 128,-1,7
 1412 1143 1412 1143 1366 1148 c 0,8,9
 1275 1157 1275 1157 1235.5 1215.5 c 128,-1,10
 1196 1274 1196 1274 1215 1355 c 0,11,12
 1226 1394 1226 1394 1248 1427.5 c 128,-1,13
 1270 1461 1270 1461 1301 1486.5 c 128,-1,14
 1332 1512 1332 1512 1370 1527 c 128,-1,15
 1408 1542 1408 1542 1450 1542 c 0,16,17
 1549 1542 1549 1542 1590 1491 c 128,-1,18
 1631 1440 1631 1440 1629 1358 c 1,19,20
 1652 1366 1652 1366 1672 1380 c 0,21,22
 1716 1408 1716 1408 1765 1459 c 0,23,24
 1779 1475 1779 1475 1792.5 1473.5 c 128,-1,25
 1806 1472 1806 1472 1813 1460.5 c 128,-1,26
 1820 1449 1820 1449 1817.5 1433 c 128,-1,27
 1815 1417 1815 1417 1797 1406 c 1,28,29
 1778 1376 1778 1376 1748.5 1353 c 128,-1,30
 1719 1330 1719 1330 1691 1311 c 0,31,32
 1673 1300 1673 1300 1655.5 1290.5 c 128,-1,33
 1638 1281 1638 1281 1620 1272 c 1,34,35
 1560 987 1560 987 1511.5 756 c 128,-1,36
 1463 525 1463 525 1419.5 360.5 c 128,-1,37
 1376 196 1376 196 1336.5 105 c 128,-1,38
 1297 14 1297 14 1252 11 c 0,39,40
 1199 7 1199 7 1162 63.5 c 128,-1,41
 1125 120 1125 120 1099.5 216.5 c 128,-1,42
 1074 313 1074 313 1059 440.5 c 128,-1,43
 1044 568 1044 568 1037 706 c 1,44,45
 980 566 980 566 915.5 440.5 c 128,-1,46
 851 315 851 315 789 219.5 c 128,-1,47
 727 124 727 124 674 67.5 c 128,-1,48
 621 11 621 11 589 11 c 0,49,50
 554 11 554 11 548.5 57.5 c 128,-1,51
 543 104 543 104 560.5 214.5 c 128,-1,52
 578 325 578 325 617 505.5 c 128,-1,53
 656 686 656 686 709 953 c 1,54,55
 676 888 676 888 611.5 855 c 128,-1,56
 547 822 547 822 478 822 c 0,57,58
 373 822 373 822 317 895 c 0,59,60
 260 969 260 969 283 1075 c 0,61,62
 304 1183 304 1183 386 1254 c 0,63,64
 426 1289 426 1289 475 1309.5 c 128,-1,65
 524 1330 524 1330 578 1327 c 0,66,67
 835 1314 835 1314 787 1010 c 0,68,69
 777 953 777 953 763.5 887.5 c 128,-1,70
 750 822 750 822 732 743 c 0,71,72
 716 663 716 663 702 589.5 c 128,-1,73
 688 516 688 516 674 444 c 0,74,75
 647 297 647 297 631 198 c 0,76,77
 617 97 617 97 635 97 c 0,78,79
 651 97 651 97 708 182 c 0,80,81
 764 271 764 271 826 387 c 0,82,83
 890 508 890 508 946 633 c 0,84,85
 976 697 976 697 996.5 750 c 128,-1,86
 1017 803 1017 803 1029 847 c 1,87,88
 1047 874 1047 874 1074 874 c 256,89,90
 1100 874 1100 874 1104 854 c 1,91,92
 1102 810 1102 810 1104 756 c 128,-1,93
 1106 702 1106 702 1111 637 c 256,94,95
 1116 571 1116 571 1123 509.5 c 128,-1,96
 1130 448 1130 448 1139 386 c 0,97,98
 1148 325 1148 325 1158.5 273 c 128,-1,99
 1169 221 1169 221 1183 175 c 0,100,101
 1210 87 1210 87 1245 87 c 0,0,1
708 1072 m 0,102,103
 723 1146 723 1146 693 1206 c 0,104,105
 663 1265 663 1265 568 1265 c 0,106,107
 492 1265 492 1265 428 1215.5 c 128,-1,108
 364 1166 364 1166 345 1075 c 0,109,110
 334 1028 334 1028 342 991.5 c 128,-1,111
 350 955 350 955 370.5 930.5 c 128,-1,112
 391 906 391 906 422 893.5 c 128,-1,113
 453 881 453 881 490 881 c 0,114,115
 564 881 564 881 625 934 c 128,-1,116
 686 987 686 987 708 1072 c 0,102,103
1562 1337 m 0,117,118
 1574 1396 1574 1396 1542.5 1441 c 128,-1,119
 1511 1486 1511 1486 1456 1486 c 0,120,121
 1417 1486 1417 1486 1381.5 1466.5 c 128,-1,122
 1346 1447 1346 1447 1320.5 1417 c 128,-1,123
 1295 1387 1295 1387 1282.5 1351.5 c 128,-1,124
 1270 1316 1270 1316 1276 1285 c 128,-1,125
 1282 1254 1282 1254 1310.5 1233.5 c 128,-1,126
 1339 1213 1339 1213 1397 1213 c 0,127,128
 1419 1213 1419 1213 1445.5 1224.5 c 128,-1,129
 1472 1236 1472 1236 1496.5 1254 c 128,-1,130
 1521 1272 1521 1272 1539 1294 c 128,-1,131
 1557 1316 1557 1316 1562 1337 c 0,117,118
EndSplineSet
Substitution2: "Single Substitution lookup 22 subtable" uni0E2C.alt1
Substitution2: "Single Substitution lookup 22 subtable" uni0E2C.alt1
EndChar
StartChar: uni0E2D
Encoding: 3629 3629 49
Width: 1282
VWidth: 3622
Flags: W
HStem: -3.5 58.5<521.61 684.965 684.965 983.741> 341 57<451.731 708.944> 746 62<545.963 739.441> 1268 66<725.483 1063.75>
Fore
639 746 m 0,0,1
 577 746 577 746 506 709 c 0,2,3
 435 676 435 676 409 580 c 0,4,5
 394 486 394 486 451 442 c 0,6,7
 506 398 506 398 587 398 c 0,8,9
 667 398 667 398 709.5 441.5 c 128,-1,10
 752 485 752 485 764 547 c 0,11,12
 780 617 780 617 750 683 c 0,13,14
 720 746 720 746 639 746 c 0,0,1
458 743 m 0,15,16
 506 775 506 775 551 791.5 c 128,-1,17
 596 808 596 808 656 808 c 0,18,19
 706 808 706 808 743 783.5 c 128,-1,20
 780 759 780 759 801 720 c 128,-1,21
 822 681 822 681 829.5 634 c 128,-1,22
 837 587 837 587 828 543 c 0,23,24
 808 453 808 453 741 397 c 128,-1,25
 674 341 674 341 566 341 c 0,26,27
 471 341 471 341 421 391 c 0,28,29
 375 439 375 439 361 493 c 1,30,-1
 359 488 l 2,31,32
 302 357 302 357 298.5 268 c 128,-1,33
 295 179 295 179 349 127.5 c 128,-1,34
 403 76 403 76 518 59 c 128,-1,35
 633 42 633 42 815 55 c 0,36,37
 969 55 969 55 1047 156 c 0,38,39
 1127 260 1127 260 1160 421 c 0,40,41
 1194 580 1194 580 1209 732 c 128,-1,42
 1224 884 1224 884 1199 1003.5 c 128,-1,43
 1174 1123 1174 1123 1100 1195.5 c 128,-1,44
 1026 1268 1026 1268 881 1268 c 0,45,46
 799 1268 799 1268 725 1225.5 c 128,-1,47
 651 1183 651 1183 589 1117.5 c 128,-1,48
 527 1052 527 1052 479.5 973.5 c 128,-1,49
 432 895 432 895 405 822 c 1,50,51
 391 805 391 805 369.5 800.5 c 128,-1,52
 348 796 348 796 334 815 c 1,53,-1
 364 904 l 2,54,55
 394 989 394 989 458 1081 c 0,56,57
 524 1178 524 1178 631 1256 c 0,58,59
 741 1334 741 1334 895 1334 c 0,60,61
 1047 1334 1047 1334 1134.5 1269.5 c 128,-1,62
 1222 1205 1222 1205 1256.5 1086.5 c 128,-1,63
 1291 968 1291 968 1280.5 799 c 128,-1,64
 1270 630 1270 630 1226 421 c 0,65,66
 1206 333 1206 333 1178.5 255 c 128,-1,67
 1151 177 1151 177 1104.5 118.5 c 128,-1,68
 1058 60 1058 60 986 26.5 c 128,-1,69
 914 -7 914 -7 807 -7 c 0,70,71
 676 -7 676 -7 563.5 -3.5 c 128,-1,72
 451 0 451 0 371.5 26.5 c 128,-1,73
 292 53 292 53 255 110.5 c 128,-1,74
 218 168 218 168 239 276 c 0,75,76
 271 462 271 462 327.5 578.5 c 128,-1,77
 384 695 384 695 458 743 c 0,15,16
EndSplineSet
EndChar
StartChar: uni0E2E
Encoding: 3630 3630 50
Width: 1289
VWidth: 3622
Flags: W
HStem: -4 59<344.719 428 436 522.34 522.34 545.343 545.343 742.092 742.092 754 754 963.774> 345 53<480.37 696.991> 888 62.5<602.062 708.846 708.846 726.44 726.44 770.5 797.5 897.467> 1300 66<652.645 940.544>
VStem: 1201 62<735.178 812 812 976.652> 1431 39<1409.78 1586.49>
Fore
488 1033 m 0,0,1
 506 996 506 996 548.5 975.5 c 128,-1,2
 591 955 591 955 647.5 950.5 c 128,-1,3
 704 946 704 946 770.5 957.5 c 128,-1,4
 837 969 837 969 901.5 996.5 c 128,-1,5
 966 1024 966 1024 1024.5 1065 c 128,-1,6
 1083 1106 1083 1106 1123 1162 c 1,7,8
 1083 1213 1083 1213 994 1256 c 0,9,10
 907 1300 907 1300 798 1300 c 0,11,12
 711 1300 711 1300 644 1274.5 c 128,-1,13
 577 1249 577 1249 535 1210 c 128,-1,14
 493 1171 493 1171 480 1124 c 128,-1,15
 467 1077 467 1077 488 1033 c 0,0,1
497 709 m 0,16,17
 428 676 428 676 402 580 c 1,18,19
 396 534 396 534 407.5 499.5 c 128,-1,20
 419 465 419 465 443 443 c 128,-1,21
 467 421 467 421 501.5 409.5 c 128,-1,22
 536 398 536 398 577 398 c 0,23,24
 656 398 656 398 697.5 441.5 c 128,-1,25
 739 485 739 485 755 547 c 0,26,27
 775 621 775 621 756.5 665 c 128,-1,28
 738 709 738 709 696 728.5 c 128,-1,29
 654 748 654 748 600.5 742 c 128,-1,30
 547 736 547 736 497 709 c 0,16,17
1157 1114 m 1,31,32
 1109 1051 1109 1051 1049 1007.5 c 128,-1,33
 989 964 989 964 925 937.5 c 128,-1,34
 861 911 861 911 797.5 899.5 c 128,-1,35
 734 888 734 888 681 888 c 256,36,37
 628 888 628 888 576 900.5 c 128,-1,38
 524 913 524 913 483 939.5 c 128,-1,39
 442 966 442 966 422 1005.5 c 128,-1,40
 402 1045 402 1045 412 1098 c 0,41,42
 423 1143 423 1143 454.5 1189.5 c 128,-1,43
 486 1236 486 1236 536.5 1275 c 128,-1,44
 587 1314 587 1314 657 1340 c 128,-1,45
 727 1366 727 1366 815 1366 c 0,46,47
 863 1366 863 1366 916 1353.5 c 128,-1,48
 969 1341 969 1341 1017 1319 c 128,-1,49
 1065 1297 1065 1297 1104.5 1269.5 c 128,-1,50
 1144 1242 1144 1242 1169 1213 c 1,51,52
 1176 1219 1176 1219 1206 1244.5 c 128,-1,53
 1236 1270 1236 1270 1275 1314 c 128,-1,54
 1314 1358 1314 1358 1355.5 1422 c 128,-1,55
 1397 1486 1397 1486 1431 1569 c 1,56,57
 1443 1588 1443 1588 1460 1579.5 c 128,-1,58
 1477 1571 1477 1571 1470 1532 c 0,59,60
 1450 1457 1450 1457 1406 1390 c 128,-1,61
 1362 1323 1362 1323 1316 1272 c 0,62,63
 1288 1238 1288 1238 1259.5 1209 c 128,-1,64
 1231 1180 1231 1180 1201 1155 c 1,65,66
 1265 1061 1265 1061 1263 865 c 0,67,68
 1261 768 1261 768 1248 657.5 c 128,-1,69
 1235 547 1235 547 1208 421 c 0,70,71
 1189 334 1189 334 1159.5 259 c 128,-1,72
 1130 184 1130 184 1083.5 127.5 c 128,-1,73
 1037 71 1037 71 966 37.5 c 128,-1,74
 895 4 895 4 794 0 c 0,75,76
 745 -4 745 -4 690 -4 c 128,-1,77
 635 -4 635 -4 596 -4 c 0,78,79
 502 -4 502 -4 428 6 c 128,-1,80
 354 16 354 16 303.5 45 c 128,-1,81
 253 74 253 74 232.5 130 c 128,-1,82
 212 186 212 186 228 276 c 0,83,84
 258 458 258 458 316.5 575 c 128,-1,85
 375 692 375 692 446 739 c 0,86,87
 481 764 481 764 529.5 779 c 128,-1,88
 578 794 578 794 627.5 794 c 128,-1,89
 677 794 677 794 721.5 776.5 c 128,-1,90
 766 759 766 759 794 718 c 0,91,92
 819 681 819 681 823.5 637 c 128,-1,93
 828 593 828 593 814 543 c 0,94,95
 787 456 787 456 721.5 400.5 c 128,-1,96
 656 345 656 345 550 345 c 256,97,98
 444 345 444 345 400 400 c 256,99,100
 356 455 356 455 350 508 c 1,101,-1
 320 433 l 2,102,103
 278 311 278 311 279.5 237 c 128,-1,104
 281 163 281 163 321 122 c 128,-1,105
 361 81 361 81 436 68 c 128,-1,106
 511 55 511 55 616 55 c 0,107,108
 660 55 660 55 707 55 c 128,-1,109
 754 55 754 55 801 58 c 0,110,111
 962 58 962 58 1038 156 c 256,112,113
 1114 253 1114 253 1150 421 c 0,114,115
 1173 527 1173 527 1185 623.5 c 128,-1,116
 1197 720 1197 720 1201 812 c 256,117,118
 1205 904 1205 904 1198.5 979 c 128,-1,119
 1192 1054 1192 1054 1157 1114 c 1,31,32
EndSplineSet
EndChar
StartChar: uni0E2F
Encoding: 3631 3631 51
Width: 978
VWidth: 3622
Flags: W
HStem: 775 72<519.998 756.155> 904 60<405.739 479.574>
VStem: 619 62<1056.36 1109 1109 1185.88>
Fore
486 913 m 0,0,1
 451 902 451 902 431.5 904 c 128,-1,2
 412 906 412 906 403 913 c 1,3,4
 446 877 446 877 503.5 858.5 c 128,-1,5
 561 840 561 840 635 847 c 0,6,7
 699 851 699 851 758 867 c 128,-1,8
 817 883 817 883 867.5 927 c 128,-1,9
 918 971 918 971 958.5 1049.5 c 128,-1,10
 999 1128 999 1128 1028 1258 c 1,11,12
 1028 1275 1028 1275 1041 1286 c 128,-1,13
 1054 1297 1054 1297 1069 1298.5 c 128,-1,14
 1084 1300 1084 1300 1095 1291 c 128,-1,15
 1106 1282 1106 1282 1100 1261 c 0,16,17
 1095 1236 1095 1236 1089 1207 c 128,-1,18
 1083 1178 1083 1178 1072 1127.5 c 128,-1,19
 1061 1077 1061 1077 1043.5 996.5 c 128,-1,20
 1026 916 1026 916 997 788 c 128,-1,21
 968 660 968 660 925.5 475 c 128,-1,22
 883 290 883 290 824 32 c 0,23,24
 821 9 821 9 785 12 c 0,25,26
 752 14 752 14 757 35 c 2,27,-1
 943 895 l 1,28,29
 883 833 883 833 807 805.5 c 128,-1,30
 731 778 731 778 614 775 c 0,31,32
 529 775 529 775 461 792.5 c 128,-1,33
 393 810 393 810 346 850 c 128,-1,34
 299 890 299 890 278.5 953.5 c 128,-1,35
 258 1017 258 1017 271 1109 c 0,36,37
 276 1148 276 1148 298 1182.5 c 128,-1,38
 320 1217 320 1217 352 1241.5 c 128,-1,39
 384 1266 384 1266 422 1282 c 128,-1,40
 460 1298 460 1298 497 1300 c 0,41,42
 589 1307 589 1307 643 1255 c 128,-1,43
 697 1203 697 1203 681 1113 c 0,44,45
 669 1038 669 1038 617.5 987.5 c 128,-1,46
 566 937 566 937 486 913 c 0,0,1
474 1242 m 0,47,48
 428 1238 428 1238 383 1204.5 c 128,-1,49
 338 1171 338 1171 325 1109 c 0,50,51
 315 1063 315 1063 323 1034.5 c 128,-1,52
 331 1006 331 1006 348.5 990.5 c 128,-1,53
 366 975 366 975 387.5 969.5 c 128,-1,54
 409 964 409 964 425 964 c 0,55,56
 467 962 467 962 500.5 974.5 c 128,-1,57
 534 987 534 987 559 1007.5 c 128,-1,58
 584 1028 584 1028 599 1055.5 c 128,-1,59
 614 1083 614 1083 619 1109 c 0,60,61
 630 1183 630 1183 587.5 1217 c 128,-1,62
 545 1251 545 1251 474 1242 c 0,47,48
EndSplineSet
EndChar
StartChar: uni0E30
Encoding: 3632 3632 52
Width: 953
VWidth: 3622
Flags: W
HStem: 90 59<319.169 478.088> 501 46<299.725 444.317> 739 55<456.082 616.068> 900.5 40.5<419.103 502.13> 1144 52<466.145 581.574>
VStem: 166 802<292.5 1141 292.5 337.746> 458 46<333.611 405 405 457.938> 762 68<350.875 488 488 512.871> 902 66<988.976 1149.47>
Fore
511 1144 m 0,0,1
 471 1144 471 1144 430 1123 c 128,-1,2
 389 1102 389 1102 370 1047 c 1,3,4
 364 1010 364 1010 377.5 986 c 128,-1,5
 391 962 391 962 414 950.5 c 128,-1,6
 437 939 437 939 466 941 c 128,-1,7
 495 943 495 943 521.5 956 c 128,-1,8
 548 969 548 969 568.5 994 c 128,-1,9
 589 1019 589 1019 596 1054 c 256,10,11
 603 1090 603 1090 575 1117 c 128,-1,12
 547 1144 547 1144 511 1144 c 0,0,1
375 501 m 0,13,14
 334 501 334 501 293.5 480.5 c 128,-1,15
 253 460 253 460 232 398 c 1,16,17
 226 343 226 343 257 320 c 128,-1,18
 288 297 288 297 329.5 299.5 c 128,-1,19
 371 302 371 302 410 329.5 c 128,-1,20
 449 357 449 357 458 405 c 0,21,22
 467 446 467 446 438.5 473.5 c 128,-1,23
 410 501 410 501 375 501 c 0,13,14
239 276 m 1,24,25
 244 239 244 239 261.5 214 c 128,-1,26
 279 189 279 189 304 174 c 128,-1,27
 329 159 329 159 359 154 c 128,-1,28
 389 149 389 149 421 149 c 0,29,30
 474 149 474 149 530.5 171 c 128,-1,31
 587 193 587 193 635 236 c 128,-1,32
 683 279 683 279 717.5 342 c 128,-1,33
 752 405 752 405 762 488 c 0,34,35
 768 509 768 509 799 513 c 0,36,37
 833 515 833 515 830 493 c 0,38,39
 810 387 810 387 765 311 c 128,-1,40
 720 235 720 235 660.5 186.5 c 128,-1,41
 601 138 601 138 535 114 c 128,-1,42
 469 90 469 90 409 90 c 0,43,44
 329 90 329 90 275 116.5 c 128,-1,45
 221 143 221 143 194.5 188 c 128,-1,46
 168 233 168 233 166 292.5 c 128,-1,47
 164 352 164 352 189 417 c 0,48,49
 216 492 216 492 270 519.5 c 128,-1,50
 324 547 324 547 384 547 c 256,51,52
 444 547 444 547 480 507 c 128,-1,53
 516 467 516 467 504 409 c 0,54,55
 501 368 501 368 475 332.5 c 128,-1,56
 449 297 449 297 410 276 c 128,-1,57
 371 255 371 255 326 252 c 128,-1,58
 281 249 281 249 239 276 c 1,24,25
375 920 m 1,59,60
 386 842 386 842 440 819 c 0,61,62
 499 794 499 794 559 794 c 0,63,64
 612 794 612 794 667.5 817 c 128,-1,65
 723 840 723 840 772 883.5 c 128,-1,66
 821 927 821 927 856 991.5 c 128,-1,67
 891 1056 891 1056 902 1141 c 0,68,69
 904 1159 904 1159 937 1159 c 0,70,71
 969 1159 969 1159 968 1141 c 0,72,73
 948 1037 948 1037 903 960.5 c 128,-1,74
 858 884 858 884 798.5 834.5 c 128,-1,75
 739 785 739 785 673 762 c 128,-1,76
 607 739 607 739 547 739 c 0,77,78
 467 739 467 739 415 764 c 128,-1,79
 363 789 363 789 336.5 832.5 c 128,-1,80
 310 876 310 876 308 935 c 128,-1,81
 306 994 306 994 325 1061 c 0,82,83
 338 1098 338 1098 361 1124 c 128,-1,84
 384 1150 384 1150 411.5 1166 c 128,-1,85
 439 1182 439 1182 467 1189 c 128,-1,86
 495 1196 495 1196 522 1196 c 0,87,88
 582 1196 582 1196 618 1156 c 128,-1,89
 654 1116 654 1116 642 1061 c 0,90,91
 631 1015 631 1015 604.5 979 c 128,-1,92
 578 943 578 943 541 922.5 c 128,-1,93
 504 902 504 902 460.5 900.5 c 128,-1,94
 417 899 417 899 375 920 c 1,59,60
EndSplineSet
EndChar
StartChar: uni0E31
Encoding: 3633 3633 53
Width: 0
VWidth: 3622
Flags: W
HStem: 1532 572.5<-42 403 403 403>
VStem: -493 60<1773.95 1866.92> -143 63<1809.32 1925.21> 364 75<1863.07 2085.88>
Fore
-203 1659 m 0,0,1
 -214 1654 -214 1654 -234.5 1649.5 c 128,-1,2
 -255 1645 -255 1645 -277 1642.5 c 128,-1,3
 -299 1640 -299 1640 -318.5 1641.5 c 128,-1,4
 -338 1643 -338 1643 -347 1652 c 1,5,6
 -325 1631 -325 1631 -292.5 1617 c 128,-1,7
 -260 1603 -260 1603 -218.5 1595.5 c 128,-1,8
 -177 1588 -177 1588 -131 1588 c 128,-1,9
 -85 1588 -85 1588 -37 1597 c 0,10,11
 34 1608 34 1608 101 1633.5 c 128,-1,12
 168 1659 168 1659 222 1711 c 128,-1,13
 276 1763 276 1763 314 1847.5 c 128,-1,14
 352 1932 352 1932 364 2057 c 1,15,16
 361 2077 361 2077 374 2089 c 128,-1,17
 387 2101 387 2101 403 2104.5 c 128,-1,18
 419 2108 419 2108 430.5 2099.5 c 128,-1,19
 442 2091 442 2091 439 2068 c 0,20,21
 417 1832 417 1832 301.5 1697 c 128,-1,22
 186 1562 186 1562 -42 1532 c 0,23,24
 -129 1521 -129 1521 -212 1532.5 c 128,-1,25
 -295 1544 -295 1544 -360 1579.5 c 128,-1,26
 -425 1615 -425 1615 -462 1674 c 128,-1,27
 -499 1733 -499 1733 -493 1818 c 0,28,29
 -488 1910 -488 1910 -421 1969 c 0,30,31
 -373 2011 -373 2011 -314 2022.5 c 128,-1,32
 -255 2034 -255 2034 -202 2018 c 128,-1,33
 -149 2002 -149 2002 -113.5 1961.5 c 128,-1,34
 -78 1921 -78 1921 -80 1859 c 0,35,36
 -80 1832 -80 1832 -85 1805 c 128,-1,37
 -90 1778 -90 1778 -104.5 1751.5 c 128,-1,38
 -119 1725 -119 1725 -142.5 1701 c 128,-1,39
 -166 1677 -166 1677 -203 1659 c 0,0,1
-433 1825 m 0,40,41
 -433 1774 -433 1774 -411 1743 c 128,-1,42
 -389 1712 -389 1712 -357 1700.5 c 128,-1,43
 -325 1689 -325 1689 -287 1695.5 c 128,-1,44
 -249 1702 -249 1702 -216.5 1722 c 128,-1,45
 -184 1742 -184 1742 -163.5 1777.5 c 128,-1,46
 -143 1813 -143 1813 -143 1859 c 0,47,48
 -145 1901 -145 1901 -166 1926 c 128,-1,49
 -187 1951 -187 1951 -220 1960.5 c 128,-1,50
 -253 1970 -253 1970 -290 1964 c 128,-1,51
 -327 1958 -327 1958 -359 1940.5 c 128,-1,52
 -391 1923 -391 1923 -412 1893.5 c 128,-1,53
 -433 1864 -433 1864 -433 1825 c 0,40,41
EndSplineSet
Substitution2: "Single Substitution lookup 22 subtable" uni0E31.alt1
Substitution2: "Single Substitution lookup 22 subtable" uni0E31.alt1
EndChar
StartChar: uni0E32
Encoding: 3634 3634 54
Width: 999
VWidth: 3622
Flags: W
HStem: 1231 62<595.994 853.959>
VStem: 986 56<870.812 1044.74>
Fore
320 941 m 0,0,1
 361 1107 361 1107 462.5 1200 c 128,-1,2
 564 1293 564 1293 741 1293 c 0,3,4
 842 1293 842 1293 905 1266.5 c 128,-1,5
 968 1240 968 1240 1000.5 1193 c 128,-1,6
 1033 1146 1033 1146 1041 1080 c 128,-1,7
 1049 1014 1049 1014 1042 935 c 128,-1,8
 1035 856 1035 856 1016.5 767.5 c 128,-1,9
 998 679 998 679 978 587 c 2,10,-1
 854 51 l 2,11,12
 851 39 851 39 839.5 32 c 128,-1,13
 828 25 828 25 817.5 24 c 128,-1,14
 807 23 807 23 799.5 29 c 128,-1,15
 792 35 792 35 796 51 c 0,16,17
 819 170 819 170 837.5 251.5 c 128,-1,18
 856 333 856 333 873 405.5 c 128,-1,19
 890 478 890 478 908.5 553 c 128,-1,20
 927 628 927 628 952 732 c 0,21,22
 964 785 964 785 974.5 843.5 c 128,-1,23
 985 902 985 902 986 958.5 c 128,-1,24
 987 1015 987 1015 974.5 1065.5 c 128,-1,25
 962 1116 962 1116 932 1155 c 0,26,27
 904 1190 904 1190 854.5 1210.5 c 128,-1,28
 805 1231 805 1231 734 1231 c 0,29,30
 653 1229 653 1229 597 1211.5 c 128,-1,31
 541 1194 541 1194 501.5 1157.5 c 128,-1,32
 462 1121 462 1121 432.5 1066.5 c 128,-1,33
 403 1012 403 1012 375 937 c 0,34,35
 371 923 371 923 361.5 918 c 128,-1,36
 352 913 352 913 341.5 913.5 c 128,-1,37
 331 914 331 914 324 921.5 c 128,-1,38
 317 929 317 929 320 941 c 0,0,1
EndSplineSet
EndChar
StartChar: uni0E33
Encoding: 3635 3635 55
Width: 974
VWidth: 3622
Flags: W
HStem: 1231 62<577.779 876.271> 1489 57<7.90253 193.591> 1825 59<108.98 143>
VStem: 955 62<854.509 935 971 1007.7 1007.7 1012.76 1012.76 1073>
Fore
294 941 m 1,0,1
 295 895 295 895 345 930 c 1,2,3
 371 1008 371 1008 402 1064 c 128,-1,4
 433 1120 433 1120 476.5 1156 c 128,-1,5
 520 1192 520 1192 576.5 1210.5 c 128,-1,6
 633 1229 633 1229 709 1231 c 0,7,8
 854 1231 854 1231 906 1155 c 0,9,10
 932 1118 932 1118 943.5 1073 c 128,-1,11
 955 1028 955 1028 955 971 c 0,12,13
 957 865 957 865 925 732 c 0,14,15
 911 669 911 669 897 610.5 c 128,-1,16
 883 552 883 552 868 497 c 0,17,18
 854 435 854 435 844.5 391.5 c 128,-1,19
 835 348 835 348 824.5 302 c 128,-1,20
 814 256 814 256 801.5 199 c 128,-1,21
 789 142 789 142 771 51 c 0,22,23
 762 19 762 19 792 23 c 256,24,25
 822 27 822 27 830 51 c 2,26,-1
 953 587 l 2,27,28
 973 679 973 679 991.5 767.5 c 128,-1,29
 1010 856 1010 856 1017 935 c 128,-1,30
 1024 1014 1024 1014 1016 1080 c 128,-1,31
 1008 1146 1008 1146 975.5 1193 c 128,-1,32
 943 1240 943 1240 880 1266.5 c 128,-1,33
 817 1293 817 1293 716 1293 c 0,34,35
 539 1293 539 1293 436.5 1200 c 128,-1,36
 334 1107 334 1107 294 941 c 1,0,1
157 1884 m 0,37,38
 242 1884 242 1884 286.5 1828 c 128,-1,39
 331 1772 331 1772 313 1687 c 0,40,41
 294 1599 294 1599 225 1544 c 0,42,43
 157 1489 157 1489 73 1489 c 0,44,45
 32 1489 32 1489 -1 1504 c 128,-1,46
 -34 1519 -34 1519 -55 1545.5 c 128,-1,47
 -76 1572 -76 1572 -84 1608.5 c 128,-1,48
 -92 1645 -92 1645 -83 1687 c 0,49,50
 -64 1772 -64 1772 4 1827 c 0,51,52
 76 1884 76 1884 157 1884 c 0,37,38
159 1825 m 1,53,54
 127 1825 127 1825 98 1814.5 c 128,-1,55
 69 1804 69 1804 44 1785.5 c 128,-1,56
 19 1767 19 1767 1.5 1741.5 c 128,-1,57
 -16 1716 -16 1716 -21 1687 c 0,58,59
 -34 1627 -34 1627 -5.5 1586.5 c 128,-1,60
 23 1546 23 1546 85 1546 c 0,61,62
 143 1546 143 1546 192 1586.5 c 128,-1,63
 241 1627 241 1627 253 1687 c 0,64,65
 265 1746 265 1746 233.5 1784 c 128,-1,66
 202 1822 202 1822 143 1822 c 1,67,-1
 159 1825 l 1,53,54
EndSplineSet
Substitution2: "Single Substitution lookup 22 subtable" uni0E33.alt1
Substitution2: "Single Substitution lookup 22 subtable" uni0E33.alt1
EndChar
StartChar: uni0E34
Encoding: 3636 3636 56
Width: 0
VWidth: 3622
Flags: W
HStem: 1487 53<-706.447 -631.5 -614 -582.858 -582.858 -565.778 -565.778 -385.427 -385.427 -273.73> 1510 62<-103.939 -62.5 -62.5 46.4301 46.4301 97.1735> 1916 44<-396.392 -137.258>
VStem: -785 962<1562 1571 1608 1611 1586.5 1601 1507.72 1688.07>
Fore
-285 1960 m 0,0,1
 -142 1960 -142 1960 -27 1868 c 0,2,3
 90 1774 90 1774 154 1649 c 0,4,5
 175 1611 175 1611 177 1586.5 c 128,-1,6
 179 1562 179 1562 169 1547 c 128,-1,7
 159 1532 159 1532 141.5 1526.5 c 128,-1,8
 124 1521 124 1521 108 1521 c 0,9,10
 34 1518 34 1518 -62.5 1510 c 128,-1,11
 -159 1502 -159 1502 -261 1495 c 128,-1,12
 -363 1488 -363 1488 -460 1487 c 128,-1,13
 -557 1486 -557 1486 -631.5 1495.5 c 128,-1,14
 -706 1505 -706 1505 -749 1530 c 128,-1,15
 -792 1555 -792 1555 -785 1601 c 0,16,17
 -775 1664 -775 1664 -723.5 1729 c 128,-1,18
 -672 1794 -672 1794 -598.5 1845 c 128,-1,19
 -525 1896 -525 1896 -442 1928 c 128,-1,20
 -359 1960 -359 1960 -285 1960 c 0,0,1
138 1590 m 0,21,22
 101 1649 101 1649 59.5 1705.5 c 128,-1,23
 18 1762 18 1762 -33.5 1808 c 128,-1,24
 -85 1854 -85 1854 -147.5 1883 c 128,-1,25
 -210 1912 -210 1912 -290 1916 c 0,26,27
 -350 1916 -350 1916 -423.5 1887.5 c 128,-1,28
 -497 1859 -497 1859 -562.5 1815 c 128,-1,29
 -628 1771 -628 1771 -676.5 1716 c 128,-1,30
 -725 1661 -725 1661 -736 1608 c 0,31,32
 -741 1585 -741 1585 -707.5 1571 c 128,-1,33
 -674 1557 -674 1557 -614 1549 c 128,-1,34
 -554 1541 -554 1541 -472.5 1540 c 128,-1,35
 -391 1539 -391 1539 -298 1541.5 c 128,-1,36
 -205 1544 -205 1544 -107 1552 c 128,-1,37
 -9 1560 -9 1560 83 1572 c 0,38,39
 87 1572 87 1572 97.5 1574 c 128,-1,40
 108 1576 108 1576 117.5 1578.5 c 128,-1,41
 127 1581 127 1581 133.5 1584 c 128,-1,42
 140 1587 140 1587 138 1590 c 0,21,22
EndSplineSet
Substitution2: "Single Substitution lookup 22 subtable" uni0E34.alt1
Substitution2: "Single Substitution lookup 22 subtable" uni0E34.alt1
EndChar
StartChar: uni0E35
Encoding: 3637 3637 57
Width: 0
VWidth: 3622
Flags: W
HStem: 1500 47.5<-666.889 -528.911 -597.9 -451.352 -480.881 -421.823 -421.823 -320.608 -320.608 -297.002> 1923 44<-448.797 -233.733>
VStem: -837 52<1583.3 1713.57>
Fore
-334 1967 m 0,0,1
 -264 1967 -264 1967 -198.5 1941.5 c 128,-1,2
 -133 1916 -133 1916 -77 1873.5 c 128,-1,3
 -21 1831 -21 1831 24 1774.5 c 128,-1,4
 69 1718 69 1718 101 1656 c 1,5,-1
 122 1786 l 2,6,7
 124 1804 124 1804 130 1853.5 c 128,-1,8
 136 1903 136 1903 145 1956 c 128,-1,9
 154 2009 154 2009 167 2050 c 128,-1,10
 180 2091 180 2091 198 2091 c 0,11,12
 221 2091 221 2091 221 2071 c 2,13,-1
 221 2068 l 1,14,15
 210 2011 210 2011 198 1942 c 128,-1,16
 186 1873 186 1873 176 1806.5 c 128,-1,17
 166 1740 166 1740 158 1682 c 128,-1,18
 150 1624 150 1624 149 1587 c 0,19,20
 149 1565 149 1565 120.5 1546.5 c 128,-1,21
 92 1528 92 1528 58 1528 c 0,22,23
 -4 1528 -4 1528 -80 1523 c 128,-1,24
 -156 1518 -156 1518 -238 1511.5 c 128,-1,25
 -320 1505 -320 1505 -402.5 1500 c 128,-1,26
 -485 1495 -485 1495 -559 1495 c 0,27,28
 -617 1495 -617 1495 -668.5 1499 c 128,-1,29
 -720 1503 -720 1503 -757 1514.5 c 128,-1,30
 -794 1526 -794 1526 -815.5 1545 c 128,-1,31
 -837 1564 -837 1564 -837 1594 c 0,32,33
 -837 1659 -837 1659 -785.5 1725.5 c 128,-1,34
 -734 1792 -734 1792 -658 1846 c 128,-1,35
 -582 1900 -582 1900 -494.5 1933.5 c 128,-1,36
 -407 1967 -407 1967 -334 1967 c 0,0,1
88 1597 m 1,37,38
 48 1654 48 1654 4.5 1711.5 c 128,-1,39
 -39 1769 -39 1769 -89.5 1816 c 128,-1,40
 -140 1863 -140 1863 -202.5 1893 c 128,-1,41
 -265 1923 -265 1923 -347 1923 c 0,42,43
 -403 1923 -403 1923 -478.5 1893.5 c 128,-1,44
 -554 1864 -554 1864 -622 1818 c 128,-1,45
 -690 1772 -690 1772 -737.5 1717.5 c 128,-1,46
 -785 1663 -785 1663 -785 1610 c 0,47,48
 -785 1594 -785 1594 -761.5 1581.5 c 128,-1,49
 -738 1569 -738 1569 -694.5 1561 c 128,-1,50
 -651 1553 -651 1553 -592.5 1549.5 c 128,-1,51
 -534 1546 -534 1546 -465 1546 c 0,52,53
 -432 1546 -432 1546 -378 1547.5 c 128,-1,54
 -324 1549 -324 1549 -263 1553 c 128,-1,55
 -202 1557 -202 1557 -139 1561 c 128,-1,56
 -76 1565 -76 1565 -25.5 1570.5 c 128,-1,57
 25 1576 25 1576 56.5 1582 c 128,-1,58
 88 1588 88 1588 88 1595 c 2,59,-1
 88 1597 l 1,37,38
EndSplineSet
Substitution2: "Single Substitution lookup 22 subtable" uni0E35.alt1
Substitution2: "Single Substitution lookup 22 subtable" uni0E35.alt1
EndChar
StartChar: uni0E36
Encoding: 3638 3638 58
Width: 0
VWidth: 3622
Flags: W
HStem: 1486 51.5<-725.032 -604.123 -604.123 -594.304 -599.213 -418.023 -465.85 -370.196 -370.196 -278.5 -278.5 -265.95> 1687 55<46.9531 115.533> 1916 47<-488.234 -226.809> 2004 57<77.3372 211.03>
VStem: 225 54<1861.48 1970.24>
Fore
147 2061 m 0,0,1
 209 2061 209 2061 244 2024.5 c 128,-1,2
 279 1988 279 1988 279 1926 c 0,3,4
 279 1875 279 1875 261.5 1830.5 c 128,-1,5
 244 1786 244 1786 214 1754.5 c 128,-1,6
 184 1723 184 1723 146 1705 c 128,-1,7
 108 1687 108 1687 67 1687 c 2,8,-1
 46 1687 l 1,9,10
 57 1668 57 1668 74.5 1634.5 c 128,-1,11
 92 1601 92 1601 88 1571 c 0,12,13
 85 1546 85 1546 63.5 1533.5 c 128,-1,14
 42 1521 42 1521 18 1521 c 0,15,16
 -39 1516 -39 1516 -106 1509.5 c 128,-1,17
 -173 1503 -173 1503 -245.5 1498 c 128,-1,18
 -318 1493 -318 1493 -393.5 1489.5 c 128,-1,19
 -469 1486 -469 1486 -538 1486 c 0,20,21
 -608 1486 -608 1486 -670 1490.5 c 128,-1,22
 -732 1495 -732 1495 -778 1507 c 128,-1,23
 -824 1519 -824 1519 -850.5 1538 c 128,-1,24
 -877 1557 -877 1557 -877 1587 c 0,25,26
 -877 1654 -877 1654 -824 1721 c 128,-1,27
 -771 1788 -771 1788 -694 1842 c 128,-1,28
 -617 1896 -617 1896 -530.5 1929.5 c 128,-1,29
 -444 1963 -444 1963 -377 1963 c 0,30,31
 -271 1960 -271 1960 -194 1923.5 c 128,-1,32
 -117 1887 -117 1887 -62 1836 c 1,33,-1
 -57 1877 l 2,34,35
 -39 1962 -39 1962 17 2011.5 c 128,-1,36
 73 2061 73 2061 147 2061 c 0,0,1
28 1615 m 0,37,38
 -4 1661 -4 1661 -42 1714 c 128,-1,39
 -80 1767 -80 1767 -129.5 1812 c 128,-1,40
 -179 1857 -179 1857 -240.5 1886.5 c 128,-1,41
 -302 1916 -302 1916 -384 1916 c 0,42,43
 -444 1916 -444 1916 -514.5 1890 c 128,-1,44
 -585 1864 -585 1864 -650 1821 c 128,-1,45
 -715 1778 -715 1778 -764.5 1720.5 c 128,-1,46
 -814 1663 -814 1663 -830 1601 c 1,47,48
 -838 1581 -838 1581 -816 1569 c 128,-1,49
 -794 1557 -794 1557 -751.5 1549 c 128,-1,50
 -709 1541 -709 1541 -652.5 1537.5 c 128,-1,51
 -596 1534 -596 1534 -536 1534 c 0,52,53
 -417 1534 -417 1534 -278.5 1542.5 c 128,-1,54
 -140 1551 -140 1551 -11 1565 c 0,55,56
 23 1565 23 1565 32 1578.5 c 128,-1,57
 41 1592 41 1592 28 1615 c 0,37,38
149 2004 m 1,58,59
 117 2004 117 2004 88.5 1989 c 128,-1,60
 60 1974 60 1974 39.5 1950 c 128,-1,61
 19 1926 19 1926 7 1897 c 128,-1,62
 -5 1868 -5 1868 -5 1840 c 0,63,64
 -5 1799 -5 1799 18 1770.5 c 128,-1,65
 41 1742 41 1742 80 1742 c 0,66,67
 104 1742 104 1742 130 1755.5 c 128,-1,68
 156 1769 156 1769 177 1792 c 128,-1,69
 198 1815 198 1815 211.5 1842.5 c 128,-1,70
 225 1870 225 1870 225 1900 c 0,71,72
 225 1940 225 1940 210 1966 c 128,-1,73
 195 1992 195 1992 149 2004 c 1,58,59
EndSplineSet
Substitution2: "Single Substitution lookup 22 subtable" uni0E36.alt1
Substitution2: "Single Substitution lookup 22 subtable" uni0E36.alt1
EndChar
StartChar: uni0E37
Encoding: 3639 3639 59
Width: 0
VWidth: 3622
Flags: W
HStem: 1497.5 49<-628.694 -572.154 -572.154 -429.911 -429.911 -362.304 -362.304 -210.659> 1923 44<-400.419 -192.942>
Fore
-11 1832 m 1,0,1
 14 1790 14 1790 48.5 1750 c 128,-1,2
 83 1710 83 1710 108 1656 c 1,3,4
 115 1718 115 1718 129 1786 c 0,5,6
 138 1843 138 1843 149.5 1915.5 c 128,-1,7
 161 1988 161 1988 179 2068 c 0,8,9
 180 2078 180 2078 188 2084.5 c 128,-1,10
 196 2091 196 2091 204 2091 c 128,-1,11
 212 2091 212 2091 218.5 2084.5 c 128,-1,12
 225 2078 225 2078 225 2068 c 1,13,-1
 182 1806 l 2,14,15
 172 1735 172 1735 164 1681 c 128,-1,16
 156 1627 156 1627 152 1587 c 1,17,18
 156 1565 156 1565 127.5 1549.5 c 128,-1,19
 99 1534 99 1534 67 1528 c 0,20,21
 -73 1503 -73 1503 -218.5 1500.5 c 128,-1,22
 -364 1498 -364 1498 -506 1495 c 0,23,24
 -577 1493 -577 1493 -638 1497.5 c 128,-1,25
 -699 1502 -699 1502 -742 1515 c 128,-1,26
 -785 1528 -785 1528 -808 1550 c 128,-1,27
 -831 1572 -831 1572 -828 1608 c 0,28,29
 -817 1672 -817 1672 -766 1736.5 c 128,-1,30
 -715 1801 -715 1801 -642.5 1852 c 128,-1,31
 -570 1903 -570 1903 -486 1935 c 128,-1,32
 -402 1967 -402 1967 -327 1967 c 0,33,34
 -246 1967 -246 1967 -177 1937 c 128,-1,35
 -108 1907 -108 1907 -51 1855 c 1,36,37
 -42 1956 -42 1956 -32.5 2012 c 128,-1,38
 -23 2068 -23 2068 -14 2112 c 0,39,40
 -12 2124 -12 2124 -4 2129.5 c 128,-1,41
 4 2135 4 2135 13.5 2135 c 128,-1,42
 23 2135 23 2135 29 2128 c 128,-1,43
 35 2121 35 2121 35 2108 c 1,44,-1
 -11 1832 l 1,0,1
92 1597 m 0,45,46
 53 1656 53 1656 12.5 1712.5 c 128,-1,47
 -28 1769 -28 1769 -78.5 1815 c 128,-1,48
 -129 1861 -129 1861 -191 1890 c 128,-1,49
 -253 1919 -253 1919 -333 1923 c 0,50,51
 -393 1924 -393 1924 -466 1897 c 128,-1,52
 -539 1870 -539 1870 -605.5 1824.5 c 128,-1,53
 -672 1779 -672 1779 -721.5 1723.5 c 128,-1,54
 -771 1668 -771 1668 -782 1615 c 0,55,56
 -785 1594 -785 1594 -751.5 1579.5 c 128,-1,57
 -718 1565 -718 1565 -658 1557 c 128,-1,58
 -598 1549 -598 1549 -516.5 1546.5 c 128,-1,59
 -435 1544 -435 1544 -343 1547.5 c 128,-1,60
 -251 1551 -251 1551 -153 1559 c 128,-1,61
 -55 1567 -55 1567 37 1580 c 0,62,63
 42 1580 42 1580 52 1580.5 c 128,-1,64
 62 1581 62 1581 72.5 1584 c 128,-1,65
 83 1587 83 1587 89.5 1590.5 c 128,-1,66
 96 1594 96 1594 92 1597 c 0,45,46
EndSplineSet
Substitution2: "Single Substitution lookup 22 subtable" uni0E37.alt1
Substitution2: "Single Substitution lookup 22 subtable" uni0E37.alt1
EndChar
StartChar: uni0E38
Encoding: 3640 3640 60
Width: 0
VWidth: 3622
Flags: W
HStem: -504 48<-511.012 -356.748> -180 49<-446.297 -345.971>
VStem: -614.5 51.5<-396.62 -375 -375 -301.937>
Fore
-279 -345 m 0,0,1
 -269 -301 -269 -301 -277 -270 c 128,-1,2
 -285 -239 -285 -239 -301.5 -218.5 c 128,-1,3
 -318 -198 -318 -198 -341 -189 c 128,-1,4
 -364 -180 -364 -180 -382 -180 c 0,5,6
 -451 -180 -451 -180 -492.5 -214 c 128,-1,7
 -534 -248 -534 -248 -557 -301 c 1,8,9
 -564 -331 -564 -331 -563 -359 c 128,-1,10
 -562 -387 -562 -387 -550.5 -408.5 c 128,-1,11
 -539 -430 -539 -430 -515.5 -443 c 128,-1,12
 -492 -456 -492 -456 -451 -456 c 0,13,14
 -386 -456 -386 -456 -341.5 -426 c 128,-1,15
 -297 -396 -297 -396 -279 -345 c 0,0,1
-297 -456 m 1,16,17
 -324 -486 -324 -486 -362 -495 c 128,-1,18
 -400 -504 -400 -504 -462 -504 c 0,19,20
 -515 -504 -515 -504 -547.5 -487.5 c 128,-1,21
 -580 -471 -580 -471 -596 -441.5 c 128,-1,22
 -612 -412 -612 -412 -614.5 -375 c 128,-1,23
 -617 -338 -617 -338 -608 -297 c 0,24,25
 -601 -258 -601 -258 -577.5 -225.5 c 128,-1,26
 -554 -193 -554 -193 -520 -171 c 128,-1,27
 -486 -149 -486 -149 -447.5 -138 c 128,-1,28
 -409 -127 -409 -127 -371 -131 c 0,29,30
 -260 -143 -260 -143 -230 -211 c 128,-1,31
 -200 -279 -200 -279 -239 -432 c 0,32,33
 -249 -474 -249 -474 -258 -514 c 128,-1,34
 -267 -554 -267 -554 -274 -593.5 c 128,-1,35
 -281 -633 -281 -633 -290 -674.5 c 128,-1,36
 -299 -716 -299 -716 -310 -764 c 1,37,38
 -324 -791 -324 -791 -350 -792 c 0,39,40
 -379 -798 -379 -798 -368 -764 c 2,41,-1
 -340 -656 l 2,42,43
 -331 -608 -331 -608 -320.5 -556 c 128,-1,44
 -310 -504 -310 -504 -297 -456 c 1,16,17
EndSplineSet
Substitution2: "Single Substitution lookup 21 subtable" a
Substitution2: "Single Substitution lookup 22 subtable" uni0E38.alt1
Substitution2: "Single Substitution lookup 21 subtable" a
Substitution2: "Single Substitution lookup 22 subtable" uni0E38.alt1
EndChar
StartChar: uni0E39
Encoding: 3641 3641 61
Width: 0
VWidth: 3622
Flags: W
HStem: -761 69<-596 -504 -504 -389> -500.5 54.5<-796.312 -642.865> -170 50<-732.74 -641.687>
VStem: -907 681<-287 -251 -170 -166 -287 -166 -528.41 -261.503>
Fore
-226 -166 m 1,0,1
 -249 -264 -249 -264 -266 -340.5 c 128,-1,2
 -283 -417 -283 -417 -292 -478 c 2,3,-1
 -334 -713 l 2,4,5
 -340 -739 -340 -739 -355.5 -742.5 c 128,-1,6
 -371 -746 -371 -746 -391 -750 c 2,7,-1
 -617 -761 l 2,8,9
 -623 -761 -623 -761 -633.5 -760 c 128,-1,10
 -644 -759 -644 -759 -653.5 -755.5 c 128,-1,11
 -663 -752 -663 -752 -667.5 -742 c 128,-1,12
 -672 -732 -672 -732 -665 -713 c 0,13,14
 -660 -688 -660 -688 -653.5 -662.5 c 128,-1,15
 -647 -637 -647 -637 -640 -612 c 0,16,17
 -628 -570 -628 -570 -618 -524 c 128,-1,18
 -608 -478 -608 -478 -601 -446 c 1,19,20
 -651 -492 -651 -492 -711 -500.5 c 128,-1,21
 -771 -509 -771 -509 -820.5 -486 c 128,-1,22
 -870 -463 -870 -463 -896.5 -412 c 128,-1,23
 -923 -361 -923 -361 -907 -287 c 0,24,25
 -900 -249 -900 -249 -876.5 -218 c 128,-1,26
 -853 -187 -853 -187 -820 -165 c 128,-1,27
 -787 -143 -787 -143 -747.5 -131 c 128,-1,28
 -708 -119 -708 -119 -670 -120 c 0,29,30
 -554 -124 -554 -124 -524.5 -195.5 c 128,-1,31
 -495 -267 -495 -267 -534 -421 c 0,32,33
 -543 -462 -543 -462 -550 -490 c 128,-1,34
 -557 -518 -557 -518 -564 -547.5 c 128,-1,35
 -571 -577 -571 -577 -578 -611.5 c 128,-1,36
 -585 -646 -585 -646 -596 -699 c 1,37,-1
 -389 -692 l 1,38,39
 -382 -656 -382 -656 -375 -616.5 c 128,-1,40
 -368 -577 -368 -577 -359 -536 c 0,41,42
 -347 -462 -347 -462 -327.5 -369 c 128,-1,43
 -308 -276 -308 -276 -283 -163 c 0,44,45
 -279 -142 -279 -142 -251 -143 c 0,46,47
 -225 -145 -225 -145 -226 -166 c 1,0,1
-580 -325 m 0,48,49
 -570 -281 -570 -281 -577 -251 c 128,-1,50
 -584 -221 -584 -221 -601.5 -202.5 c 128,-1,51
 -619 -184 -619 -184 -641 -177 c 128,-1,52
 -663 -170 -663 -170 -681 -170 c 0,53,54
 -750 -170 -750 -170 -792.5 -202.5 c 128,-1,55
 -835 -235 -835 -235 -854 -290 c 0,56,57
 -861 -322 -861 -322 -859.5 -350.5 c 128,-1,58
 -858 -379 -858 -379 -845.5 -400 c 128,-1,59
 -833 -421 -833 -421 -809 -433.5 c 128,-1,60
 -785 -446 -785 -446 -750 -446 c 0,61,62
 -685 -444 -685 -444 -641.5 -410.5 c 128,-1,63
 -598 -377 -598 -377 -580 -325 c 0,48,49
EndSplineSet
Substitution2: "Single Substitution lookup 21 subtable" b
Substitution2: "Single Substitution lookup 22 subtable" uni0E39.alt1
Substitution2: "Single Substitution lookup 21 subtable" b
Substitution2: "Single Substitution lookup 22 subtable" uni0E39.alt1
EndChar
StartChar: uni0E3A
Encoding: 3642 3642 62
Width: 0
VWidth: 3622
Flags: W
HStem: -336 212<-327.419 -208.159>
VStem: -373 214<-303.148 -152.88>
Fore
-159 -228 m 256,0,1
 -170 -276 -170 -276 -207 -306 c 128,-1,2
 -244 -336 -244 -336 -292 -336 c 256,3,4
 -340 -336 -340 -336 -362 -306 c 128,-1,5
 -384 -276 -384 -276 -373 -228 c 256,6,7
 -363 -180 -363 -180 -328.5 -152 c 128,-1,8
 -294 -124 -294 -124 -246 -124 c 256,9,10
 -198 -124 -198 -124 -173.5 -152 c 128,-1,11
 -149 -180 -149 -180 -159 -228 c 256,0,1
EndSplineSet
Substitution2: "Single Substitution lookup 21 subtable" c
Substitution2: "Single Substitution lookup 22 subtable" uni0E3A.alt1
Substitution2: "Single Substitution lookup 21 subtable" c
Substitution2: "Single Substitution lookup 22 subtable" uni0E3A.alt1
EndChar
StartChar: uni0E3F
Encoding: 3647 3647 63
Width: 1296
VWidth: 3622
Flags: W
HStem: 48 60<310 421.015 421.015 425.883 425.883 569.268 569.268 607 695 776.967> 58 73<182 230 697.281 973.06> 709 60<624.192 690.423 690.423 743.843 743.843 762> 1413 50<811.452 925 1012 1127.48>
VStem: 980 76<1620.23 1673.88>
Fore
168 58 m 1,0,1
 131 65 131 65 138 94 c 0,2,3
 149 124 149 124 182 131 c 1,4,-1
 248 131 l 1,5,6
 340 426 340 426 407 727 c 128,-1,7
 474 1028 474 1028 524 1311 c 1,8,9
 509 1300 509 1300 498.5 1298.5 c 128,-1,10
 488 1297 488 1297 479 1300 c 256,11,12
 471 1304 471 1304 463 1312 c 1,13,14
 456 1332 456 1332 468.5 1349 c 128,-1,15
 481 1366 481 1366 527 1390 c 0,16,17
 633 1431 633 1431 730.5 1446 c 128,-1,18
 828 1461 828 1461 936 1463 c 1,19,20
 973 1610 973 1610 980 1652 c 0,21,22
 982 1673 982 1673 996 1684 c 128,-1,23
 1010 1695 1010 1695 1025 1695 c 128,-1,24
 1040 1695 1040 1695 1050.5 1685 c 128,-1,25
 1061 1675 1061 1675 1056 1656 c 0,26,27
 1052 1633 1052 1633 1041.5 1586 c 128,-1,28
 1031 1539 1031 1539 1012 1459 c 1,29,30
 1093 1454 1093 1454 1166.5 1428.5 c 128,-1,31
 1240 1403 1240 1403 1292 1356 c 128,-1,32
 1344 1309 1344 1309 1367 1239 c 128,-1,33
 1390 1169 1390 1169 1373 1075 c 0,34,35
 1360 1012 1360 1012 1321 956 c 128,-1,36
 1282 900 1282 900 1228 856 c 128,-1,37
 1174 812 1174 812 1109.5 781 c 128,-1,38
 1045 750 1045 750 982 736 c 1,39,40
 1042 722 1042 722 1089.5 687.5 c 128,-1,41
 1137 653 1137 653 1168 604 c 128,-1,42
 1199 555 1199 555 1209 496 c 128,-1,43
 1219 437 1219 437 1203 377 c 0,44,45
 1183 278 1183 278 1131 215 c 128,-1,46
 1079 152 1079 152 1007.5 116 c 128,-1,47
 936 80 936 80 852 65 c 128,-1,48
 768 50 768 50 683 48 c 1,49,50
 667 -21 667 -21 655.5 -66 c 128,-1,51
 644 -111 644 -111 637 -134 c 0,52,53
 630 -161 630 -161 591 -164 c 0,54,55
 555 -168 555 -168 561 -134 c 1,56,57
 568 -111 568 -111 579.5 -66 c 128,-1,58
 591 -21 591 -21 607 48 c 1,59,60
 379 58 379 58 299 58 c 1,61,62
 281 14 281 14 248 12 c 0,63,64
 216 11 216 11 230 58 c 1,65,-1
 168 58 l 1,0,1
607 1362 m 1,66,67
 577 1219 577 1219 550.5 1075.5 c 128,-1,68
 524 932 524 932 490 781 c 128,-1,69
 456 630 456 630 413.5 465.5 c 128,-1,70
 371 301 371 301 310 111 c 1,71,72
 453 110 453 110 530 108 c 128,-1,73
 607 106 607 106 619 104 c 1,74,75
 653 249 653 249 691 401.5 c 128,-1,76
 729 554 729 554 762 709 c 1,77,-1
 662 709 l 2,78,79
 617 709 617 709 624 743 c 0,80,81
 630 769 630 769 656 769 c 0,82,83
 688 769 688 769 725 772 c 128,-1,84
 762 775 762 775 778 771 c 1,85,86
 819 950 819 950 844.5 1061.5 c 128,-1,87
 870 1173 870 1173 886 1242 c 128,-1,88
 902 1311 902 1311 911 1347 c 128,-1,89
 920 1383 920 1383 925 1413 c 1,90,91
 847 1413 847 1413 758 1402.5 c 128,-1,92
 669 1392 669 1392 607 1362 c 1,66,67
856 775 m 1,93,94
 927 780 927 780 1003 802 c 128,-1,95
 1079 824 1079 824 1145.5 862 c 128,-1,96
 1212 900 1212 900 1258.5 957 c 128,-1,97
 1305 1014 1305 1014 1320 1088 c 0,98,99
 1334 1169 1334 1169 1311 1225 c 128,-1,100
 1288 1281 1288 1281 1241 1317 c 128,-1,101
 1194 1353 1194 1353 1129.5 1373.5 c 128,-1,102
 1065 1394 1065 1394 999 1406 c 1,103,-1
 856 775 l 1,93,94
695 108 m 1,104,105
 768 111 768 111 840.5 125.5 c 128,-1,106
 913 140 913 140 975 170 c 128,-1,107
 1037 200 1037 200 1082 249.5 c 128,-1,108
 1127 299 1127 299 1143 373 c 0,109,110
 1162 458 1162 458 1145 516.5 c 128,-1,111
 1128 575 1128 575 1085 614 c 128,-1,112
 1042 653 1042 653 977.5 673 c 128,-1,113
 913 693 913 693 837 702 c 1,114,-1
 695 108 l 1,104,105
EndSplineSet
EndChar
StartChar: uni0E40
Encoding: 3648 3648 64
Width: 636
VWidth: 3622
Flags: W
HStem: 4 51<270.814 482.124>
VStem: 216 378<117 210 253 286.663 210 253 -29.004 267.355>
Fore
430 1258 m 2,0,1
 433 1268 433 1268 441 1274.5 c 128,-1,2
 449 1281 449 1281 458 1281 c 128,-1,3
 467 1281 467 1281 475 1276.5 c 128,-1,4
 483 1272 483 1272 485 1261 c 1,5,-1
 440 1049 l 2,6,7
 426 973 426 973 409.5 892.5 c 128,-1,8
 393 812 393 812 375 725 c 0,9,10
 354 630 354 630 336 546.5 c 128,-1,11
 318 463 318 463 299 387 c 1,12,13
 334 417 334 417 392.5 428 c 128,-1,14
 451 439 451 439 502.5 421 c 128,-1,15
 554 403 554 403 584 352.5 c 128,-1,16
 614 302 614 302 594 210 c 0,17,18
 571 104 571 104 503 54 c 128,-1,19
 435 4 435 4 359 4 c 0,20,21
 265 4 265 4 226 60.5 c 128,-1,22
 187 117 187 117 216 253 c 2,23,-1
 430 1258 l 2,0,1
267 253 m 0,24,25
 246 156 246 156 268 105.5 c 128,-1,26
 290 55 290 55 370 55 c 0,27,28
 428 55 428 55 480 94.5 c 128,-1,29
 532 134 532 134 548 210 c 0,30,31
 561 269 561 269 546.5 307 c 128,-1,32
 532 345 532 345 504 364.5 c 128,-1,33
 476 384 476 384 439 385 c 128,-1,34
 402 386 402 386 366.5 371 c 128,-1,35
 331 356 331 356 303.5 325.5 c 128,-1,36
 276 295 276 295 267 253 c 0,24,25
EndSplineSet
EndChar
StartChar: uni0E41
Encoding: 3649 3649 65
Width: 1144
VWidth: 3622
Flags: W
HStem: 4 51<270.814 482.124 762.971 974.507> 387 41<327.288 514.882 852.839 1000.55>
VStem: 216 872<117 210 253 286.663 210 253 253 253>
Fore
430 1258 m 1,0,1
 439 1274 439 1274 461 1275.5 c 128,-1,2
 483 1277 483 1277 485 1261 c 1,3,4
 460 1141 460 1141 442.5 1055 c 128,-1,5
 425 969 425 969 411.5 903 c 128,-1,6
 398 837 398 837 386.5 782 c 128,-1,7
 375 727 375 727 362.5 669.5 c 128,-1,8
 350 612 350 612 335 545 c 128,-1,9
 320 478 320 478 299 387 c 1,10,11
 377 428 377 428 460 428 c 0,12,13
 497 428 497 428 527 416.5 c 128,-1,14
 557 405 557 405 576.5 378.5 c 128,-1,15
 596 352 596 352 601.5 310.5 c 128,-1,16
 607 269 607 269 594 210 c 0,17,18
 571 104 571 104 503 54 c 128,-1,19
 435 4 435 4 359 4 c 0,20,21
 265 4 265 4 226 60.5 c 128,-1,22
 187 117 187 117 216 253 c 2,23,-1
 430 1258 l 1,0,1
433 387 m 0,24,25
 380 380 380 380 329.5 347.5 c 128,-1,26
 279 315 279 315 267 253 c 0,27,28
 246 156 246 156 268 105.5 c 128,-1,29
 290 55 290 55 370 55 c 0,30,31
 428 55 428 55 480 94.5 c 128,-1,32
 532 134 532 134 548 210 c 0,33,34
 568 308 568 308 530.5 347.5 c 128,-1,35
 493 387 493 387 433 387 c 0,24,25
923 1258 m 1,36,37
 932 1274 932 1274 950 1274.5 c 128,-1,38
 968 1275 968 1275 976 1261 c 1,39,40
 952 1141 952 1141 934 1055 c 128,-1,41
 916 969 916 969 903 903 c 128,-1,42
 890 837 890 837 878.5 782 c 128,-1,43
 867 727 867 727 854.5 669.5 c 128,-1,44
 842 612 842 612 827 545 c 128,-1,45
 812 478 812 478 791 387 c 1,46,47
 868 428 868 428 952 428 c 0,48,49
 1024 428 1024 428 1068 379 c 0,50,51
 1113 331 1113 331 1088 210 c 0,52,53
 1065 104 1065 104 996 54 c 128,-1,54
 927 4 927 4 851 4 c 0,55,56
 757 4 757 4 719 60.5 c 128,-1,57
 681 117 681 117 709 253 c 2,58,-1
 923 1258 l 1,36,37
925 387 m 0,59,60
 899 384 899 384 872 374 c 128,-1,61
 845 364 845 364 822 347.5 c 128,-1,62
 799 331 799 331 781.5 308 c 128,-1,63
 764 285 764 285 759 253 c 0,64,65
 738 156 738 156 760 105.5 c 128,-1,66
 782 55 782 55 861 55 c 0,67,68
 920 55 920 55 972 94.5 c 128,-1,69
 1024 134 1024 134 1040 210 c 0,70,71
 1051 258 1051 258 1045.5 291.5 c 128,-1,72
 1040 325 1040 325 1024 346.5 c 128,-1,73
 1008 368 1008 368 982.5 377.5 c 128,-1,74
 957 387 957 387 925 387 c 0,59,60
EndSplineSet
EndChar
StartChar: uni0E42
Encoding: 3650 3650 66
Width: 905
VWidth: 3622
Flags: W
HStem: 0 55<604.754 738.081> 322 51<678.287 846.996> 1567 63<296.773 389.262 389.262 459.764 459.764 567.104 513.434 727.784> 1746 55<1260.06 1348.92> 2068 58<748.64 980.836>
VStem: 863 51.5<174.693 193 193 266.657> 1364 63<1816.49 1882.02>
Fore
771 1307 m 2,0,1
 791 1397 791 1397 791 1450 c 128,-1,2
 791 1503 791 1503 767 1531.5 c 128,-1,3
 743 1560 743 1560 694.5 1568 c 128,-1,4
 646 1576 646 1576 566 1576 c 0,5,6
 446 1567 446 1567 377 1567 c 128,-1,7
 308 1567 308 1567 274.5 1577 c 128,-1,8
 241 1587 241 1587 234.5 1607 c 128,-1,9
 228 1627 228 1627 235 1659 c 0,10,11
 242 1696 242 1696 269.5 1745.5 c 128,-1,12
 297 1795 297 1795 339.5 1847.5 c 128,-1,13
 382 1900 382 1900 437.5 1949.5 c 128,-1,14
 493 1999 493 1999 555 2038.5 c 128,-1,15
 617 2078 617 2078 685.5 2102 c 128,-1,16
 754 2126 754 2126 821 2126 c 0,17,18
 911 2126 911 2126 976.5 2102 c 128,-1,19
 1042 2078 1042 2078 1088 2042 c 128,-1,20
 1134 2006 1134 2006 1165.5 1963.5 c 128,-1,21
 1197 1921 1197 1921 1219.5 1884.5 c 128,-1,22
 1242 1848 1242 1848 1259.5 1824.5 c 128,-1,23
 1277 1801 1277 1801 1295 1801 c 0,24,25
 1332 1801 1332 1801 1342.5 1818.5 c 128,-1,26
 1353 1836 1353 1836 1364 1866 c 0,27,28
 1374 1901 1374 1901 1401 1901 c 0,29,30
 1429 1901 1429 1901 1427 1873 c 0,31,32
 1420 1825 1420 1825 1380.5 1785.5 c 128,-1,33
 1341 1746 1341 1746 1286 1746 c 0,34,35
 1226 1746 1226 1746 1192 1794 c 0,36,37
 1174 1818 1174 1818 1155.5 1845.5 c 128,-1,38
 1137 1873 1137 1873 1114 1903 c 0,39,40
 1074 1960 1074 1960 1003 2013 c 0,41,42
 934 2066 934 2066 808 2068 c 0,43,44
 754 2068 754 2068 696.5 2045 c 128,-1,45
 639 2022 639 2022 584 1986.5 c 128,-1,46
 529 1951 529 1951 479.5 1906 c 128,-1,47
 430 1861 430 1861 392 1816.5 c 128,-1,48
 354 1772 354 1772 329 1733.5 c 128,-1,49
 304 1695 304 1695 299 1670 c 0,50,51
 295 1647 295 1647 296 1639 c 128,-1,52
 297 1631 297 1631 331.5 1630 c 128,-1,53
 366 1629 366 1629 448.5 1631.5 c 128,-1,54
 531 1634 531 1634 688 1634 c 0,55,56
 808 1634 808 1634 833 1549 c 0,57,58
 858 1466 858 1466 833 1351 c 0,59,60
 791 1143 791 1143 757 986.5 c 128,-1,61
 723 830 723 830 696.5 715.5 c 128,-1,62
 670 601 670 601 650.5 524.5 c 128,-1,63
 631 448 631 448 619 399 c 128,-1,64
 607 350 607 350 599 324.5 c 128,-1,65
 591 299 591 299 589 287 c 1,66,67
 616 325 616 325 663.5 349 c 128,-1,68
 711 373 711 373 766 373 c 0,69,70
 842 373 842 373 876.5 335 c 128,-1,71
 911 297 911 297 914.5 246 c 128,-1,72
 918 195 918 195 897 141.5 c 128,-1,73
 876 88 876 88 840 60 c 0,74,75
 807 32 807 32 763.5 16 c 128,-1,76
 720 0 720 0 674 0 c 0,77,78
 633 0 633 0 597.5 13.5 c 128,-1,79
 562 27 562 27 540 51.5 c 128,-1,80
 518 76 518 76 510 114 c 128,-1,81
 502 152 502 152 516 203 c 2,82,-1
 771 1307 l 2,0,1
695 55 m 0,83,84
 727 55 727 55 755.5 66.5 c 128,-1,85
 784 78 784 78 806 97.5 c 128,-1,86
 828 117 828 117 843 141.5 c 128,-1,87
 858 166 858 166 863 193 c 0,88,89
 874 246 874 246 845.5 284 c 128,-1,90
 817 322 817 322 752 322 c 0,91,92
 690 322 690 322 645.5 284 c 128,-1,93
 601 246 601 246 589 203 c 0,94,95
 548 55 548 55 695 55 c 0,83,84
EndSplineSet
EndChar
StartChar: uni0E43
Encoding: 3651 3651 67
Width: 923
VWidth: 3622
Flags: W
HStem: -7 55<669.215 801.15> 315 51<720.03 876.494> 2040.5 67.5<514.067 760.309>
VStem: 287 50<1582.5 1635.15 1635.15 1677 1677 1710.07>
Fore
741 48 m 0,0,1
 807 48 807 48 851 86 c 128,-1,2
 895 124 895 124 909 184 c 0,3,4
 920 239 920 239 891.5 277 c 128,-1,5
 863 315 863 315 798 315 c 0,6,7
 736 315 736 315 691.5 277 c 128,-1,8
 647 239 647 239 635 196 c 0,9,10
 594 48 594 48 741 48 c 0,0,1
345 1714 m 0,11,12
 333 1672 333 1672 337 1633 c 128,-1,13
 341 1594 341 1594 362.5 1566.5 c 128,-1,14
 384 1539 384 1539 423.5 1528.5 c 128,-1,15
 463 1518 463 1518 522 1532 c 0,16,17
 555 1542 555 1542 584.5 1561.5 c 128,-1,18
 614 1581 614 1581 635 1607.5 c 128,-1,19
 656 1634 656 1634 666.5 1664.5 c 128,-1,20
 677 1695 677 1695 674 1725 c 0,21,22
 669 1794 669 1794 615 1825.5 c 128,-1,23
 561 1857 561 1857 492 1843 c 0,24,25
 444 1832 444 1832 403.5 1804 c 128,-1,26
 363 1776 363 1776 345 1714 c 0,11,12
867 1558 m 2,27,28
 895 1714 895 1714 905.5 1804 c 128,-1,29
 916 1894 916 1894 899 1932 c 0,30,31
 861 1999 861 1999 789.5 2024.5 c 128,-1,32
 718 2050 718 2050 643 2040.5 c 128,-1,33
 568 2031 568 2031 504 1990 c 128,-1,34
 440 1949 440 1949 417 1884 c 1,35,36
 686 1962 686 1962 741 1767 c 0,37,38
 748 1739 748 1739 741 1694.5 c 128,-1,39
 734 1650 734 1650 710 1606 c 128,-1,40
 686 1562 686 1562 644.5 1526.5 c 128,-1,41
 603 1491 603 1491 543 1480 c 0,42,43
 472 1463 472 1463 421 1472.5 c 128,-1,44
 370 1482 370 1482 336 1510.5 c 128,-1,45
 302 1539 302 1539 287 1582.5 c 128,-1,46
 272 1626 272 1626 276 1677 c 0,47,48
 278 1730 278 1730 298 1802.5 c 128,-1,49
 318 1875 318 1875 368.5 1943 c 128,-1,50
 419 2011 419 2011 505 2059 c 128,-1,51
 591 2107 591 2107 723 2108 c 0,52,53
 769 2108 769 2108 811 2096.5 c 128,-1,54
 853 2085 853 2085 885.5 2064 c 128,-1,55
 918 2043 918 2043 939 2015.5 c 128,-1,56
 960 1988 960 1988 966 1956 c 0,57,58
 973 1910 973 1910 973 1867 c 128,-1,59
 973 1824 973 1824 965 1764.5 c 128,-1,60
 957 1705 957 1705 941 1623.5 c 128,-1,61
 925 1542 925 1542 900 1424 c 0,62,63
 881 1325 881 1325 858 1215.5 c 128,-1,64
 835 1106 835 1106 809.5 996 c 128,-1,65
 784 886 784 886 759 780 c 128,-1,66
 734 674 734 674 713 580 c 2,67,-1
 651 304 l 1,68,69
 667 325 667 325 708.5 345.5 c 128,-1,70
 750 366 750 366 812 366 c 0,71,72
 854 366 854 366 885 350 c 128,-1,73
 916 334 916 334 934.5 309.5 c 128,-1,74
 953 285 953 285 959.5 251.5 c 128,-1,75
 966 218 966 218 959 184 c 0,76,77
 950 147 950 147 932 111.5 c 128,-1,78
 914 76 914 76 885 48.5 c 128,-1,79
 856 21 856 21 815.5 5 c 128,-1,80
 775 -11 775 -11 720 -7 c 0,81,82
 677 -5 677 -5 644.5 8 c 128,-1,83
 612 21 612 21 591 48.5 c 128,-1,84
 570 76 570 76 564.5 120 c 128,-1,85
 559 164 559 164 573 228 c 2,86,-1
 867 1558 l 2,27,28
EndSplineSet
EndChar
StartChar: uni0E44
Encoding: 3652 3652 68
Width: 923
VWidth: 3622
Flags: W
HStem: -7 55<654.377 819.473> 307.5 44.5<743 777.821 777.821 781.381 779.601 880.451>
VStem: 379 749<2061 2071 2011 2061 2025.6 2126.45>
Fore
1128 2011 m 0,0,1
 1084 1824 1084 1824 1041 1648 c 128,-1,2
 998 1472 998 1472 952 1302 c 0,3,4
 886 1058 886 1058 823.5 824.5 c 128,-1,5
 761 591 761 591 681 364 c 0,6,7
 667 327 667 327 666 322.5 c 128,-1,8
 665 318 665 318 680 328 c 128,-1,9
 695 338 695 338 728 352 c 128,-1,10
 761 366 761 366 815 366 c 0,11,12
 858 366 858 366 889 350 c 128,-1,13
 920 334 920 334 938.5 309.5 c 128,-1,14
 957 285 957 285 962.5 251.5 c 128,-1,15
 968 218 968 218 962 184 c 0,16,17
 953 134 953 134 930 99 c 128,-1,18
 907 64 907 64 874.5 40 c 128,-1,19
 842 16 842 16 803 4.5 c 128,-1,20
 764 -7 764 -7 723 -7 c 0,21,22
 674 -7 674 -7 640.5 10.5 c 128,-1,23
 607 28 607 28 588.5 57.5 c 128,-1,24
 570 87 570 87 565.5 125.5 c 128,-1,25
 561 164 561 164 568 207 c 1,26,27
 584 255 584 255 612 349.5 c 128,-1,28
 640 444 640 444 678 574 c 128,-1,29
 716 704 716 704 761.5 865 c 128,-1,30
 807 1026 807 1026 856.5 1208 c 128,-1,31
 906 1390 906 1390 957 1587.5 c 128,-1,32
 1008 1785 1008 1785 1058 1988 c 1,33,34
 994 1914 994 1914 932 1845 c 128,-1,35
 870 1776 870 1776 817 1718 c 0,36,37
 787 1684 787 1684 759.5 1652 c 128,-1,38
 732 1620 732 1620 708 1590 c 0,39,40
 681 1565 681 1565 653.5 1565 c 128,-1,41
 626 1565 626 1565 616 1583 c 2,42,-1
 379 2061 l 2,43,44
 373 2071 373 2071 379.5 2086 c 128,-1,45
 386 2101 386 2101 397.5 2111 c 128,-1,46
 409 2121 409 2121 423 2122 c 128,-1,47
 437 2123 437 2123 449 2105 c 1,48,-1
 669 1638 l 1,49,50
 702 1673 702 1673 735.5 1710.5 c 128,-1,51
 769 1748 769 1748 803 1786 c 0,52,53
 860 1852 860 1852 932.5 1933.5 c 128,-1,54
 1005 2015 1005 2015 1070 2094 c 0,55,56
 1100 2123 1100 2123 1118 2100 c 128,-1,57
 1136 2077 1136 2077 1128 2011 c 0,0,1
745 48 m 0,58,59
 810 48 810 48 854.5 86 c 128,-1,60
 899 124 899 124 913 184 c 0,61,62
 923 239 923 239 895.5 278.5 c 128,-1,63
 868 318 868 318 803 318 c 0,64,65
 771 318 771 318 743 307.5 c 128,-1,66
 715 297 715 297 692 280.5 c 128,-1,67
 669 264 669 264 652 242.5 c 128,-1,68
 635 221 635 221 630 200 c 0,69,70
 610 126 610 126 640 87 c 128,-1,71
 670 48 670 48 745 48 c 0,58,59
EndSplineSet
EndChar
StartChar: uni0E45
Encoding: 3653 3653 69
Width: 999
VWidth: 3622
Flags: W
HStem: 1282 52<570.644 850.808>
VStem: 324 51<962.246 1050.27> 971 68<774.378 874.5 890.5 947.273 947.273 968.621 968.621 989.5 989.5 1044.82 1044.82 1062.15 1062.15 1188.84>
Fore
324 946 m 1,0,1
 341 1037 341 1037 375 1108.5 c 128,-1,2
 409 1180 409 1180 461 1230.5 c 128,-1,3
 513 1281 513 1281 583 1307.5 c 128,-1,4
 653 1334 653 1334 746 1334 c 0,5,6
 822 1334 822 1334 876 1318 c 128,-1,7
 930 1302 930 1302 965.5 1273.5 c 128,-1,8
 1001 1245 1001 1245 1019.5 1204.5 c 128,-1,9
 1038 1164 1038 1164 1047 1114 c 0,10,11
 1054 1067 1054 1067 1051.5 1010 c 128,-1,12
 1049 953 1049 953 1039 890.5 c 128,-1,13
 1029 828 1029 828 1015 762.5 c 128,-1,14
 1001 697 1001 697 987 630 c 0,15,16
 983 608 983 608 971.5 556 c 128,-1,17
 960 504 960 504 944.5 432.5 c 128,-1,18
 929 361 929 361 909.5 273.5 c 128,-1,19
 890 186 890 186 870 94 c 256,20,21
 851 2 851 2 829.5 -93.5 c 128,-1,22
 808 -189 808 -189 788 -277.5 c 128,-1,23
 768 -366 768 -366 749.5 -445 c 128,-1,24
 731 -524 731 -524 716 -580 c 0,25,26
 715 -591 715 -591 702.5 -598 c 128,-1,27
 690 -605 690 -605 679 -605 c 0,28,29
 653 -605 653 -605 658 -577 c 0,30,31
 670 -515 670 -515 687 -438 c 128,-1,32
 704 -361 704 -361 722.5 -281.5 c 128,-1,33
 741 -202 741 -202 759 -122 c 128,-1,34
 777 -42 777 -42 791 25 c 2,35,-1
 952 773 l 2,36,37
 962 817 962 817 971 874.5 c 128,-1,38
 980 932 980 932 982.5 989.5 c 128,-1,39
 985 1047 985 1047 977 1100 c 128,-1,40
 969 1153 969 1153 945 1190 c 0,41,42
 920 1229 920 1229 867 1255.5 c 128,-1,43
 814 1282 814 1282 746 1282 c 0,44,45
 591 1282 591 1282 506 1201 c 128,-1,46
 421 1120 421 1120 375 953 c 1,47,48
 361 929 361 929 346 933 c 128,-1,49
 331 937 331 937 324 946 c 1,0,1
EndSplineSet
EndChar
StartChar: uni0E46
Encoding: 3654 3654 70
Width: 1126
VWidth: 3622
Flags: W
HStem: 681 55<381.476 453.908 453.908 465.455 465.455 484.5> 916 53.5<410.363 528.672> 1213 62<544.578 647.886>
VStem: 552 56<780.565 826 826 878.9> 1110 62.5<957.837 1051.82 1051.82 1166.06>
Fore
1162 937 m 0,0,1
 1134 778 1134 778 1110 643.5 c 128,-1,2
 1086 509 1086 509 1061.5 382.5 c 128,-1,3
 1037 256 1037 256 1008.5 131.5 c 128,-1,4
 980 7 980 7 945 -133 c 0,5,6
 922 -223 922 -223 896 -320 c 128,-1,7
 870 -417 870 -417 840 -525 c 0,8,9
 837 -536 837 -536 830.5 -552 c 128,-1,10
 824 -568 824 -568 805 -577 c 256,11,12
 785 -585 785 -585 771 -579 c 128,-1,13
 757 -573 757 -573 754 -561 c 1,14,15
 782 -479 782 -479 813.5 -366 c 128,-1,16
 845 -253 845 -253 878 -122 c 128,-1,17
 911 9 911 9 943 149.5 c 128,-1,18
 975 290 975 290 1003 428 c 128,-1,19
 1031 566 1031 566 1056 694 c 128,-1,20
 1081 822 1081 822 1098 927 c 0,21,22
 1106 962 1106 962 1110 1008 c 128,-1,23
 1114 1054 1114 1054 1107 1095.5 c 128,-1,24
 1100 1137 1100 1137 1080 1167 c 128,-1,25
 1060 1197 1060 1197 1015 1203 c 256,26,27
 971 1208 971 1208 937.5 1180.5 c 128,-1,28
 904 1153 904 1153 880 1111.5 c 128,-1,29
 856 1070 856 1070 838.5 1025 c 128,-1,30
 821 980 821 980 808 950 c 0,31,32
 803 939 803 939 792.5 936.5 c 128,-1,33
 782 934 782 934 771.5 935.5 c 128,-1,34
 761 937 761 937 753 943.5 c 128,-1,35
 745 950 745 950 743 960 c 1,36,37
 754 1015 754 1015 746.5 1062 c 128,-1,38
 739 1109 739 1109 719.5 1142.5 c 128,-1,39
 700 1176 700 1176 671 1194.5 c 128,-1,40
 642 1213 642 1213 610 1213 c 256,41,42
 578 1213 578 1213 543.5 1184 c 128,-1,43
 509 1155 509 1155 479 1114.5 c 128,-1,44
 449 1074 449 1074 428 1027 c 128,-1,45
 407 980 407 980 400 946 c 1,46,47
 428 966 428 966 466 969.5 c 128,-1,48
 504 973 504 973 537 959.5 c 128,-1,49
 570 946 570 946 591 914.5 c 128,-1,50
 612 883 612 883 608 833 c 0,51,52
 605 794 605 794 588 765 c 128,-1,53
 571 736 571 736 544.5 717.5 c 128,-1,54
 518 699 518 699 484.5 689 c 128,-1,55
 451 679 451 679 416 681 c 0,56,57
 363 690 363 690 342.5 737 c 128,-1,58
 322 784 322 784 325.5 848.5 c 128,-1,59
 329 913 329 913 354.5 987 c 128,-1,60
 380 1061 380 1061 420 1125 c 128,-1,61
 460 1189 460 1189 509.5 1231.5 c 128,-1,62
 559 1274 559 1274 612 1275 c 0,63,64
 697 1279 697 1279 742 1223 c 128,-1,65
 787 1167 787 1167 799 1083 c 1,66,67
 808 1118 808 1118 831 1153.5 c 128,-1,68
 854 1189 854 1189 885 1217 c 128,-1,69
 916 1245 916 1245 954 1263 c 128,-1,70
 992 1281 992 1281 1031 1279 c 0,71,72
 1074 1277 1074 1277 1105 1251.5 c 128,-1,73
 1136 1226 1136 1226 1152.5 1181 c 128,-1,74
 1169 1136 1169 1136 1172.5 1074 c 128,-1,75
 1176 1012 1176 1012 1162 937 c 0,0,1
552 826 m 0,76,77
 557 854 557 854 543 883.5 c 128,-1,78
 529 913 529 913 478 916 c 0,79,80
 437 916 437 916 409.5 888 c 128,-1,81
 382 860 382 860 374 826 c 128,-1,82
 366 792 366 792 381 764 c 128,-1,83
 396 736 396 736 442 736 c 0,84,85
 451 736 451 736 466 739.5 c 128,-1,86
 481 743 481 743 498 752.5 c 128,-1,87
 515 762 515 762 529 780 c 128,-1,88
 543 798 543 798 552 826 c 0,76,77
EndSplineSet
EndChar
StartChar: uni0E47
Encoding: 3655 3655 71
Width: 0
VWidth: 3622
Flags: W
HStem: 1518 54<-191.157 -132.072> 1641 46<-130.719 -73.2612> 1801 46<-101.11 -34.9843> 2039 55<-322.22 -240.754 -240.754 -229.3 -229.3 -151.267>
VStem: -637.5 797.5<1709.5 2245.5 1735.75 1747.2> 101 59<2169.49 2275.1>
Fore
-71 1641 m 1,0,1
 -127 1629 -127 1629 -151 1644 c 128,-1,2
 -175 1659 -175 1659 -184 1677 c 0,3,4
 -200 1712 -200 1712 -191 1749 c 0,5,6
 -184 1786 -184 1786 -146 1817 c 128,-1,7
 -108 1848 -108 1848 -64 1847 c 0,8,9
 -23 1845 -23 1845 3.5 1816.5 c 128,-1,10
 30 1788 30 1788 19 1732 c 0,11,12
 12 1698 12 1698 -6.5 1661 c 128,-1,13
 -25 1624 -25 1624 -50.5 1592 c 128,-1,14
 -76 1560 -76 1560 -107 1539 c 128,-1,15
 -138 1518 -138 1518 -170 1518 c 256,16,17
 -202 1518 -202 1518 -222 1541 c 128,-1,18
 -242 1564 -242 1564 -260.5 1592 c 128,-1,19
 -279 1620 -279 1620 -299.5 1643 c 128,-1,20
 -320 1666 -320 1666 -354 1666 c 0,21,22
 -368 1666 -368 1666 -392 1645 c 128,-1,23
 -416 1624 -416 1624 -441.5 1599 c 128,-1,24
 -467 1574 -467 1574 -492.5 1553 c 128,-1,25
 -518 1532 -518 1532 -538 1532 c 0,26,27
 -562 1532 -562 1532 -583.5 1556 c 128,-1,28
 -605 1580 -605 1580 -619 1619.5 c 128,-1,29
 -633 1659 -633 1659 -637.5 1709.5 c 128,-1,30
 -642 1760 -642 1760 -630 1815 c 0,31,32
 -616 1886 -616 1886 -574 1938 c 128,-1,33
 -532 1990 -532 1990 -478.5 2024.5 c 128,-1,34
 -425 2059 -425 2059 -368 2075.5 c 128,-1,35
 -311 2092 -311 2092 -267 2094 c 0,36,37
 -223 2094 -223 2094 -192 2089 c 128,-1,38
 -161 2084 -161 2084 -134.5 2072.5 c 128,-1,39
 -108 2061 -108 2061 -82.5 2041.5 c 128,-1,40
 -57 2022 -57 2022 -21 1995 c 1,41,42
 16 2004 16 2004 48 2044 c 128,-1,43
 80 2084 80 2084 92 2144 c 0,44,45
 101 2184 101 2184 101 2226 c 128,-1,46
 101 2268 101 2268 85 2296 c 1,47,48
 81 2324 81 2324 100.5 2333 c 128,-1,49
 120 2342 120 2342 142 2322 c 1,50,51
 161 2292 161 2292 160 2245.5 c 128,-1,52
 159 2199 159 2199 149 2147 c 0,53,54
 129 2064 129 2064 74 2001 c 0,55,56
 18 1939 18 1939 -48 1939 c 1,57,58
 -80 1963 -80 1963 -103 1983.5 c 128,-1,59
 -126 2004 -126 2004 -150.5 2017.5 c 128,-1,60
 -175 2031 -175 2031 -204 2037 c 128,-1,61
 -233 2043 -233 2043 -278 2039 c 256,62,63
 -322 2036 -322 2036 -369.5 2017.5 c 128,-1,64
 -417 1999 -417 1999 -459.5 1969.5 c 128,-1,65
 -502 1940 -502 1940 -533 1900.5 c 128,-1,66
 -564 1861 -564 1861 -577 1815 c 0,67,68
 -593 1744 -593 1744 -583 1687.5 c 128,-1,69
 -573 1631 -573 1631 -531 1594 c 1,70,71
 -520 1594 -520 1594 -500.5 1613.5 c 128,-1,72
 -481 1633 -481 1633 -456.5 1656.5 c 128,-1,73
 -432 1680 -432 1680 -401.5 1702.5 c 128,-1,74
 -371 1725 -371 1725 -340 1732 c 1,75,76
 -308 1728 -308 1728 -281.5 1702.5 c 128,-1,77
 -255 1677 -255 1677 -232.5 1647.5 c 128,-1,78
 -210 1618 -210 1618 -191 1595 c 128,-1,79
 -172 1572 -172 1572 -154 1572 c 0,80,81
 -143 1572 -143 1572 -130 1579.5 c 128,-1,82
 -117 1587 -117 1587 -104.5 1597.5 c 128,-1,83
 -92 1608 -92 1608 -82.5 1619.5 c 128,-1,84
 -73 1631 -73 1631 -71 1641 c 1,0,1
-65 1801 m 1,85,86
 -101 1801 -101 1801 -120.5 1780.5 c 128,-1,87
 -140 1760 -140 1760 -142 1749 c 0,88,89
 -147 1728 -147 1728 -134.5 1707.5 c 128,-1,90
 -122 1687 -122 1687 -94 1687 c 0,91,92
 -73 1687 -73 1687 -52.5 1702.5 c 128,-1,93
 -32 1718 -32 1718 -25 1735 c 1,94,95
 -19 1763 -19 1763 -34.5 1780 c 128,-1,96
 -50 1797 -50 1797 -65 1801 c 1,85,86
EndSplineSet
Substitution2: "Single Substitution lookup 22 subtable" uni0E47.alt1
Substitution2: "Single Substitution lookup 22 subtable" uni0E47.alt1
EndChar
StartChar: uni0E48
Encoding: 3656 3656 72
Width: 0
VWidth: 3622
Flags: W
HStem: 2223 458.5<196 292.5 292.5 292.5>
VStem: 172 148<2243 2669 2243 2243>
Fore
262 2669 m 1,0,1
 274 2680 274 2680 292.5 2681.5 c 128,-1,2
 311 2683 311 2683 320 2669 c 1,3,-1
 230 2243 l 1,4,5
 216 2223 216 2223 196 2223 c 0,6,7
 180 2223 180 2223 172 2243 c 1,8,-1
 262 2669 l 1,0,1
EndSplineSet
Substitution2: "Single Substitution lookup 22 subtable" uni0E48.alt2
Substitution2: "Single Substitution lookup 22 subtable" uni0E48.alt2
EndChar
StartChar: uni0E49
Encoding: 3657 3657 73
Width: 0
VWidth: 3622
Flags: W
HStem: 2491.5 41.5<-54.7056 27.687> 2724 41<-4.42114 77.5343>
VStem: 118 43<2634.44 2688.44>
Fore
-76 2257 m 0,0,1
 57 2282 57 2282 152.5 2316.5 c 128,-1,2
 248 2351 248 2351 319.5 2405.5 c 128,-1,3
 391 2460 391 2460 446.5 2543.5 c 128,-1,4
 502 2627 502 2627 555 2749 c 0,5,6
 566 2770 566 2770 586.5 2772.5 c 128,-1,7
 607 2775 607 2775 605 2752 c 1,8,9
 562 2602 562 2602 490.5 2505.5 c 128,-1,10
 419 2409 419 2409 330 2350 c 128,-1,11
 241 2291 241 2291 141.5 2261.5 c 128,-1,12
 42 2232 42 2232 -53 2216 c 0,13,14
 -106 2209 -106 2209 -135 2220.5 c 128,-1,15
 -164 2232 -164 2232 -150 2252 c 0,16,17
 -126 2284 -126 2284 -101 2312 c 128,-1,18
 -76 2340 -76 2340 -46 2368 c 0,19,20
 -18 2395 -18 2395 8.5 2431 c 128,-1,21
 35 2467 35 2467 64 2513 c 1,22,23
 27 2494 27 2494 -12 2491.5 c 128,-1,24
 -51 2489 -51 2489 -80.5 2503 c 128,-1,25
 -110 2517 -110 2517 -125 2548 c 128,-1,26
 -140 2579 -140 2579 -129 2627 c 0,27,28
 -119 2676 -119 2676 -75.5 2717 c 128,-1,29
 -32 2758 -32 2758 30 2765 c 0,30,31
 101 2772 101 2772 136.5 2735.5 c 128,-1,32
 172 2699 172 2699 161 2637 c 0,33,34
 152 2579 152 2579 126.5 2528.5 c 128,-1,35
 101 2478 101 2478 69 2435.5 c 128,-1,36
 37 2393 37 2393 5 2359.5 c 128,-1,37
 -27 2326 -27 2326 -50.5 2303 c 128,-1,38
 -74 2280 -74 2280 -83 2267.5 c 128,-1,39
 -92 2255 -92 2255 -76 2257 c 0,0,1
-85 2630 m 0,40,41
 -94 2586 -94 2586 -72.5 2556 c 128,-1,42
 -51 2526 -51 2526 -4 2533 c 0,43,44
 35 2538 35 2538 71.5 2565.5 c 128,-1,45
 108 2593 108 2593 117 2634 c 0,46,47
 119 2648 119 2648 118 2664 c 128,-1,48
 117 2680 117 2680 108 2693 c 128,-1,49
 99 2706 99 2706 81.5 2715 c 128,-1,50
 64 2724 64 2724 35 2724 c 0,51,52
 -4 2724 -4 2724 -40 2698.5 c 128,-1,53
 -76 2673 -76 2673 -85 2630 c 0,40,41
EndSplineSet
Substitution2: "Single Substitution lookup 22 subtable" uni0E49.alt2
Substitution2: "Single Substitution lookup 22 subtable" uni0E49.alt2
EndChar
StartChar: uni0E4A
Encoding: 3658 3658 74
Width: 0
VWidth: 3622
Flags: W
HStem: 2140 48<-336.902 -236.646> 2302 58.5<-287.156 -225.791> 2644 55<-210.39 -109.784 155.875 230.95>
VStem: -50 46<2354 2405.03 2405.03 2450.92> 416.5 65.5<2612.06 2862.68>
Fore
241 2223 m 1,0,1
 267 2246 267 2246 292 2282.5 c 128,-1,2
 317 2319 317 2319 338 2361.5 c 128,-1,3
 359 2404 359 2404 375 2451 c 128,-1,4
 391 2498 391 2498 402 2544 c 0,5,6
 417 2620 417 2620 416.5 2705.5 c 128,-1,7
 416 2791 416 2791 391 2865 c 1,8,9
 386 2874 386 2874 389.5 2883 c 128,-1,10
 393 2892 393 2892 401.5 2895.5 c 128,-1,11
 410 2899 410 2899 421.5 2897.5 c 128,-1,12
 433 2896 433 2896 446 2883 c 1,13,14
 478 2834 478 2834 482 2742 c 128,-1,15
 486 2650 486 2650 463 2544 c 0,16,17
 439 2427 439 2427 378 2325 c 128,-1,18
 317 2223 317 2223 235 2167 c 0,19,20
 216 2156 216 2156 194.5 2163 c 128,-1,21
 173 2170 173 2170 177 2199 c 1,22,23
 198 2225 198 2225 215 2269.5 c 128,-1,24
 232 2314 232 2314 242.5 2362.5 c 128,-1,25
 253 2411 253 2411 257.5 2460.5 c 128,-1,26
 262 2510 262 2510 255.5 2550.5 c 128,-1,27
 249 2591 249 2591 231.5 2616 c 128,-1,28
 214 2641 214 2641 184 2641 c 0,29,30
 156 2641 156 2641 127.5 2613.5 c 128,-1,31
 99 2586 99 2586 73.5 2544.5 c 128,-1,32
 48 2503 48 2503 28.5 2452.5 c 128,-1,33
 9 2402 9 2402 -4 2354 c 0,34,35
 -16 2322 -16 2322 -35.5 2326 c 128,-1,36
 -55 2330 -55 2330 -50 2351 c 0,37,38
 -37 2406 -37 2406 -40.5 2459 c 128,-1,39
 -44 2512 -44 2512 -59 2553.5 c 128,-1,40
 -74 2595 -74 2595 -96.5 2619.5 c 128,-1,41
 -119 2644 -119 2644 -143 2644 c 0,42,43
 -179 2644 -179 2644 -209 2611.5 c 128,-1,44
 -239 2579 -239 2579 -261 2532 c 128,-1,45
 -283 2485 -283 2485 -299 2433 c 128,-1,46
 -315 2381 -315 2381 -324 2344 c 1,47,48
 -297 2360 -297 2360 -265 2360.5 c 128,-1,49
 -233 2361 -233 2361 -207.5 2348 c 128,-1,50
 -182 2335 -182 2335 -168 2309.5 c 128,-1,51
 -154 2284 -154 2284 -163 2246 c 0,52,53
 -173 2192 -173 2192 -209.5 2168 c 128,-1,54
 -246 2144 -246 2144 -297 2140 c 0,55,56
 -322 2140 -322 2140 -344 2147 c 128,-1,57
 -366 2154 -366 2154 -380 2178 c 128,-1,58
 -394 2202 -394 2202 -395 2248 c 128,-1,59
 -396 2294 -396 2294 -379 2372 c 0,60,61
 -368 2425 -368 2425 -344 2482.5 c 128,-1,62
 -320 2540 -320 2540 -287.5 2588.5 c 128,-1,63
 -255 2637 -255 2637 -214 2668 c 128,-1,64
 -173 2699 -173 2699 -131 2699 c 0,65,66
 -106 2699 -106 2699 -84 2684 c 128,-1,67
 -62 2669 -62 2669 -43.5 2644.5 c 128,-1,68
 -25 2620 -25 2620 -13.5 2587 c 128,-1,69
 -2 2554 -2 2554 2 2517 c 1,70,71
 19 2552 19 2552 43 2587.5 c 128,-1,72
 67 2623 67 2623 93.5 2649.5 c 128,-1,73
 120 2676 120 2676 146 2691 c 128,-1,74
 172 2706 172 2706 193 2703 c 0,75,76
 228 2699 228 2699 255.5 2675 c 128,-1,77
 283 2651 283 2651 297 2604 c 0,78,79
 325 2506 325 2506 304 2405.5 c 128,-1,80
 283 2305 283 2305 241 2223 c 1,0,1
-210 2246 m 1,81,82
 -205 2280 -205 2280 -222 2292.5 c 128,-1,83
 -239 2305 -239 2305 -262 2302 c 128,-1,84
 -285 2299 -285 2299 -308 2284 c 128,-1,85
 -331 2269 -331 2269 -338 2246 c 0,86,87
 -352 2188 -352 2188 -288 2188 c 0,88,89
 -271 2188 -271 2188 -246 2200.5 c 128,-1,90
 -221 2213 -221 2213 -210 2246 c 1,81,82
EndSplineSet
Substitution2: "Single Substitution lookup 22 subtable" uni0E4A.alt2
Substitution2: "Single Substitution lookup 22 subtable" uni0E4A.alt2
EndChar
StartChar: uni0E4B
Encoding: 3659 3659 75
Width: 0
VWidth: 3622
Flags: W
HStem: 2442.5 60.5<-73.2924 189 262 286.536 286.536 352 352 416.829 432.249 435.156 435.156 466.5 483 508.744>
Fore
198 2503 m 1,0,1
 202 2533 202 2533 210.5 2574.5 c 128,-1,2
 219 2616 219 2616 248 2735 c 0,3,4
 260 2766 260 2766 290 2763.5 c 128,-1,5
 320 2761 320 2761 315 2735 c 0,6,7
 281 2613 281 2613 273 2573 c 128,-1,8
 265 2533 265 2533 262 2503 c 1,9,10
 313 2503 313 2503 337 2503 c 128,-1,11
 361 2503 361 2503 378.5 2503 c 128,-1,12
 396 2503 396 2503 417.5 2504.5 c 128,-1,13
 439 2506 439 2506 483 2513 c 0,14,15
 506 2521 506 2521 512 2505 c 128,-1,16
 518 2489 518 2489 509 2471 c 0,17,18
 501 2457 501 2457 466.5 2450.5 c 128,-1,19
 432 2444 432 2444 392 2442.5 c 128,-1,20
 352 2441 352 2441 312 2442.5 c 128,-1,21
 272 2444 272 2444 253 2444 c 1,22,23
 205 2253 205 2253 196 2209 c 0,24,25
 191 2181 191 2181 162.5 2182.5 c 128,-1,26
 134 2184 134 2184 142 2216 c 2,27,-1
 189 2441 l 1,28,-1
 -55 2448 l 2,29,30
 -80 2452 -80 2452 -73.5 2481 c 128,-1,31
 -67 2510 -67 2510 -42 2510 c 2,32,-1
 198 2503 l 1,0,1
EndSplineSet
Substitution2: "Single Substitution lookup 22 subtable" uni0E4B.alt2
Substitution2: "Single Substitution lookup 22 subtable" uni0E4B.alt2
EndChar
StartChar: uni0E4C
Encoding: 3660 3660 76
Width: 0
VWidth: 3622
Flags: W
HStem: 2641 41<325.041 545> 2672.5 40<124.631 428.191>
VStem: 148 61<2236.83 2375.12>
Fore
42 2183 m 0,0,1
 92 2193 92 2193 119.5 2235.5 c 128,-1,2
 147 2278 147 2278 148 2320.5 c 128,-1,3
 149 2363 149 2363 118.5 2389.5 c 128,-1,4
 88 2416 88 2416 23 2395 c 0,5,6
 -34 2370 -34 2370 -61 2327.5 c 128,-1,7
 -88 2285 -88 2285 -87.5 2248 c 128,-1,8
 -87 2211 -87 2211 -54 2189 c 128,-1,9
 -21 2167 -21 2167 42 2183 c 0,0,1
32 2448 m 0,10,11
 64 2457 64 2457 95.5 2453.5 c 128,-1,12
 127 2450 127 2450 152 2435 c 128,-1,13
 177 2420 177 2420 193 2395 c 128,-1,14
 209 2370 209 2370 209 2337 c 0,15,16
 209 2275 209 2275 178 2225.5 c 128,-1,17
 147 2176 147 2176 100 2148.5 c 128,-1,18
 53 2121 53 2121 -2.5 2120 c 128,-1,19
 -58 2119 -58 2119 -106 2154 c 0,20,21
 -140 2179 -140 2179 -153 2215.5 c 128,-1,22
 -166 2252 -166 2252 -168 2296 c 1,23,24
 -154 2404 -154 2404 -100 2495 c 128,-1,25
 -46 2586 -46 2586 45 2642.5 c 128,-1,26
 136 2699 136 2699 261.5 2712.5 c 128,-1,27
 387 2726 387 2726 545 2682 c 1,28,29
 562 2664 562 2664 554.5 2648 c 128,-1,30
 547 2632 547 2632 520 2641 c 0,31,32
 425 2676 425 2676 317.5 2672.5 c 128,-1,33
 210 2669 210 2669 117.5 2625.5 c 128,-1,34
 25 2582 25 2582 -41.5 2500 c 128,-1,35
 -108 2418 -108 2418 -124 2296 c 1,36,37
 -103 2347 -103 2347 -66.5 2389.5 c 128,-1,38
 -30 2432 -30 2432 32 2448 c 0,10,11
EndSplineSet
Substitution2: "Single Substitution lookup 22 subtable" uni0E4C.alt2
Substitution2: "Single Substitution lookup 22 subtable" uni0E4C.alt2
EndChar
StartChar: uni0E4D
Encoding: 3661 3661 77
Width: 0
VWidth: 3622
Flags: W
HStem: 1542 52<18.1364 161.686> 1818 55<107.687 222.697>
VStem: -41 331<1670 1707 1753 1781 1707 1707 1707 1707>
Fore
159 1873 m 256,0,1
 233 1873 233 1873 268.5 1827 c 128,-1,2
 304 1781 304 1781 290 1707 c 0,3,4
 281 1670 281 1670 261.5 1640 c 128,-1,5
 242 1610 242 1610 214 1588.5 c 128,-1,6
 186 1567 186 1567 153 1554.5 c 128,-1,7
 120 1542 120 1542 88 1542 c 0,8,9
 23 1542 23 1542 -17 1587.5 c 128,-1,10
 -57 1633 -57 1633 -41 1707 c 0,11,12
 -27 1781 -27 1781 29 1827 c 128,-1,13
 85 1873 85 1873 159 1873 c 256,0,1
147 1818 m 0,14,15
 129 1820 129 1820 107 1812 c 128,-1,16
 85 1804 85 1804 64.5 1789 c 128,-1,17
 44 1774 44 1774 28 1753 c 128,-1,18
 12 1732 12 1732 7 1707 c 0,19,20
 -4 1656 -4 1656 22 1625 c 128,-1,21
 48 1594 48 1594 99 1594 c 256,22,23
 150 1594 150 1594 188 1625 c 128,-1,24
 226 1656 226 1656 239 1707 c 0,25,26
 249 1756 249 1756 223.5 1787 c 128,-1,27
 198 1818 198 1818 147 1818 c 0,14,15
EndSplineSet
Substitution2: "Single Substitution lookup 22 subtable" uni0E4D.alt1
Substitution2: "Single Substitution lookup 22 subtable" uni0E4D.alt1
EndChar
StartChar: uni0E4E
Encoding: 3662 3662 78
Width: 0
VWidth: 3622
Flags: W
HStem: 1905 58<36.3281 118.061>
VStem: -187 485<1771 2176.5 1771 1771>
Fore
233 2146 m 0,0,1
 210 2176 210 2176 179.5 2184 c 128,-1,2
 149 2192 149 2192 120 2181 c 0,3,4
 90 2170 90 2170 67 2146.5 c 128,-1,5
 44 2123 44 2123 30 2087 c 0,6,7
 16 2047 16 2047 35.5 2008.5 c 128,-1,8
 55 1970 55 1970 115 1963 c 1,9,10
 133 1958 133 1958 136.5 1948.5 c 128,-1,11
 140 1939 140 1939 135.5 1930 c 128,-1,12
 131 1921 131 1921 119.5 1913 c 128,-1,13
 108 1905 108 1905 96 1905 c 0,14,15
 11 1898 11 1898 -45 1849.5 c 128,-1,16
 -101 1801 -101 1801 -113 1746 c 0,17,18
 -124 1691 -124 1691 -101 1649.5 c 128,-1,19
 -78 1608 -78 1608 -14 1604 c 0,20,21
 44 1595 44 1595 103 1641 c 0,22,23
 119 1652 119 1652 133 1649.5 c 128,-1,24
 147 1647 147 1647 153 1636.5 c 128,-1,25
 159 1626 159 1626 157.5 1610.5 c 128,-1,26
 156 1595 156 1595 143 1583 c 1,27,28
 67 1528 67 1528 -16 1528 c 0,29,30
 -110 1528 -110 1528 -166 1595 c 0,31,32
 -223 1661 -223 1661 -187 1771 c 0,33,34
 -168 1825 -168 1825 -125.5 1876.5 c 128,-1,35
 -83 1928 -83 1928 -23 1949 c 1,36,37
 -50 1978 -50 1978 -54 2012.5 c 128,-1,38
 -58 2047 -58 2047 -53 2071 c 0,39,40
 -44 2110 -44 2110 -21 2143.5 c 128,-1,41
 2 2177 2 2177 33.5 2203 c 128,-1,42
 65 2229 65 2229 102.5 2243 c 128,-1,43
 140 2257 140 2257 175 2257 c 0,44,45
 203 2257 203 2257 233.5 2244.5 c 128,-1,46
 264 2232 264 2232 288 2206 c 0,47,48
 301 2193 301 2193 298 2176.5 c 128,-1,49
 295 2160 295 2160 285.5 2148.5 c 128,-1,50
 276 2137 276 2137 261 2134 c 128,-1,51
 246 2131 246 2131 233 2146 c 0,0,1
EndSplineSet
Substitution2: "Single Substitution lookup 22 subtable" uni0E4E.alt1
Substitution2: "Single Substitution lookup 22 subtable" uni0E4E.alt1
EndChar
